<svg width="120" height="120" fill="none" xmlns="http://www.w3.org/2000/svg"><path d="M16.451 14.713c-1.27 0-2.488.51-3.387 1.417a4.885 4.885 0 00-1.41 3.425v46.591a4.885 4.885 0 001.41 3.425 4.768 4.768 0 003.387 1.417h3.207c.2.004.391.08.54.215.15.135.247.319.274.52l1.96 16.29L34.965 71.27a.83.83 0 01.662-.334H81.56a4.768 4.768 0 003.38-1.422 4.885 4.885 0 001.405-3.42V19.516a4.885 4.885 0 00-1.405-3.42 4.768 4.768 0 00-3.38-1.422l-65.11.039zM21.86 91h-.216a.864.864 0 01-.611-.708L18.92 72.688h-2.47a6.413 6.413 0 01-4.557-1.908A6.57 6.57 0 0110 66.172V19.516a6.569 6.569 0 011.894-4.608A6.412 6.412 0 0116.451 13h65.11a6.412 6.412 0 014.55 1.912A6.57 6.57 0 0188 19.516v46.592a6.569 6.569 0 01-1.89 4.603 6.412 6.412 0 01-4.549 1.913H36.085L22.57 90.652a.83.83 0 01-.66.335l-.052.013z" fill="#282828"/><path d="M34.58 75.024v6.794c0 1.274.5 2.496 1.389 3.398a4.726 4.726 0 003.354 1.413h45.66a.778.778 0 01.657.333l12.443 16.633 1.947-16.173a.834.834 0 01.274-.522.815.815 0 01.548-.207h3.187c.624 0 1.242-.124 1.819-.366a4.757 4.757 0 001.543-1.043 4.821 4.821 0 001.03-1.56 4.86 4.86 0 00.362-1.842V35.577a4.86 4.86 0 00-1.392-3.402 4.758 4.758 0 00-1.543-1.043 4.707 4.707 0 00-1.819-.366H87.916v35.583a6.526 6.526 0 01-1.877 4.574 6.372 6.372 0 01-4.52 1.9H36.325l-1.745 2.201zM98.653 106.5a.811.811 0 01-.658-.333L84.578 88.254H39.323a6.362 6.362 0 01-4.476-1.923A6.514 6.514 0 0133 81.78v-7.076a.787.787 0 01.164-.499l2.112-2.815a.827.827 0 01.658-.332h45.648a4.739 4.739 0 003.358-1.413 4.853 4.853 0 001.396-3.398V29.844a.85.85 0 01.24-.592.83.83 0 01.582-.252h16.944a6.371 6.371 0 014.52 1.9 6.521 6.521 0 011.878 4.574V81.78a6.522 6.522 0 01-1.878 4.574 6.371 6.371 0 01-4.52 1.9h-2.529l-2.1 17.478a.863.863 0 01-.2.443.843.843 0 01-.406.261h-.215v.064zM76.168 32H19.82a1.29 1.29 0 01-.314-.038.971.971 0 01-.266-.108.571.571 0 01-.177-.163A.339.339 0 0119 31.5c0-.066.021-.13.063-.191a.571.571 0 01.177-.163.971.971 0 01.266-.108c.1-.025.206-.038.314-.038h56.348c.218 0 .428.052.584.146.156.093.245.22.248.354-.003.133-.092.26-.248.354a1.158 1.158 0 01-.584.146z" fill="#282828"/><path d="M76.18 42H19.82c-.107 0-.214-.013-.314-.038a.971.971 0 01-.266-.108.57.57 0 01-.177-.163A.339.339 0 0119 41.5c0-.066.021-.13.063-.191a.57.57 0 01.177-.163.971.971 0 01.266-.108c.1-.025.207-.038.314-.038h56.36c.108 0 .214.013.314.038s.19.062.266.108a.57.57 0 01.178.163c.041.06.062.125.062.191s-.021.13-.062.191a.57.57 0 01-.178.163.971.971 0 01-.266.108c-.1.025-.206.038-.314.038zm0 10H19.82c-.107 0-.214-.013-.314-.038a.971.971 0 01-.266-.109.571.571 0 01-.177-.162A.34.34 0 0119 51.5a.34.34 0 01.063-.191.571.571 0 01.177-.162.968.968 0 01.266-.109c.1-.025.207-.038.314-.038h56.36c.108 0 .214.013.314.038s.19.062.266.109a.571.571 0 01.178.162c.041.06.062.125.062.191s-.021.13-.062.191a.571.571 0 01-.178.162.971.971 0 01-.266.109c-.1.025-.206.038-.314.038z" fill="#282828"/></svg>