<svg width="120" height="120" fill="none" xmlns="http://www.w3.org/2000/svg"><path d="M98.614 113.741H20.383c-7.789 0-14.125-6.337-14.125-14.125a1.087 1.087 0 011.086-1.087h104.308a1.085 1.085 0 011.087 1.087c0 7.788-6.337 14.125-14.125 14.125zM8.48 100.702c.55 6.084 5.678 10.866 11.903 10.866h78.23c6.225 0 11.353-4.782 11.903-10.866H8.48z" fill="#282828"/><path d="M105.137 100.702h-91.27a1.085 1.085 0 01-1.086-1.086V40.943c0-4.194 3.412-7.606 7.606-7.606h39.115a1.086 1.086 0 011.087 1.086v2.173a5.439 5.439 0 005.433 5.433 1.086 1.086 0 011.086 1.087V53.53l11.184-11.183a1.086 1.086 0 01.768-.319h26.077a1.085 1.085 0 011.087 1.087v56.5a1.1 1.1 0 01-.319.768 1.09 1.09 0 01-.768.318zm-90.183-2.173h89.096V44.202H79.51l-12.72 12.72a1.087 1.087 0 01-1.855-.768v-12.03c-3.68-.528-6.52-3.702-6.52-7.528V35.51H20.388a5.439 5.439 0 00-5.433 5.433v57.586z" fill="#282828"/><path d="M66.02 57.24a1.086 1.086 0 01-1.085-1.086v-12.03c-3.681-.528-6.52-3.703-6.52-7.528v-21.73c0-4.194 3.412-7.606 7.606-7.606h39.115c4.194 0 7.606 3.412 7.606 7.606v21.73c0 4.194-3.412 7.606-7.606 7.606H79.51l-12.72 12.72a1.087 1.087 0 01-.77.319zm.001-47.807a5.439 5.439 0 00-5.433 5.433v21.73a5.439 5.439 0 005.433 5.433 1.087 1.087 0 011.087 1.086v10.416L78.29 42.347a1.086 1.086 0 01.769-.318h26.076a5.439 5.439 0 005.433-5.433v-21.73a5.439 5.439 0 00-5.433-5.433H66.021zm-26.077 56.5c-6.59 0-11.952-5.362-11.952-11.952s5.362-11.952 11.952-11.952 11.952 5.362 11.952 11.952-5.362 11.952-11.952 11.952zm0-21.73c-5.392 0-9.779 4.386-9.779 9.778s4.387 9.779 9.78 9.779c5.391 0 9.778-4.387 9.778-9.78 0-5.391-4.387-9.778-9.779-9.778z" fill="#282828"/><path d="M57.325 92.01h-34.77a1.086 1.086 0 01-1.086-1.087V77.885c0-7.789 6.336-14.125 14.125-14.125h8.692c7.789 0 14.125 6.336 14.125 14.125v13.038a1.086 1.086 0 01-1.087 1.087zm-33.683-2.173h32.596V77.885c0-6.59-5.362-11.952-11.952-11.952h-8.692c-6.59 0-11.952 5.362-11.952 11.952v11.952zm79.317-71.712h-34.77a1.086 1.086 0 110-2.173h34.77a1.085 1.085 0 011.087 1.087 1.086 1.086 0 01-1.087 1.086zm0 8.692h-34.77a1.086 1.086 0 110-2.172h34.77a1.085 1.085 0 011.087 1.086 1.086 1.086 0 01-1.087 1.086zm0 8.693h-34.77a1.086 1.086 0 110-2.173h34.77a1.085 1.085 0 011.087 1.086 1.086 1.086 0 01-1.087 1.087z" fill="#282828"/></svg>