<svg width="120" height="120" fill="none" xmlns="http://www.w3.org/2000/svg"><path d="M11.348 103.756h98.547V21.098H11.183v50.216l.165 32.442zm99.599 2.114s-97.162.13-99.599.13c-2.437 0-2.347-1.626-2.347-1.626-.01-4.879.078-19.247.078-31.987v-52.33c0-.585.469-1.057 1.052-1.057h100.816c.583 0 1.053.472 1.053 1.057v84.772c.016.569-.47 1.041-1.053 1.041z" fill="#282828"/><path d="M11.033 39.25h98.934c.315 0 .612-.06.84-.171.211-.102.443-.291.443-.579s-.232-.477-.443-.579a1.972 1.972 0 00-.84-.171H11.033c-.316 0-.612.06-.84.171-.211.102-.443.291-.443.579s.232.477.443.579c.228.11.524.171.84.171z" fill="#282828" stroke="#282828" stroke-width=".5"/><path d="M76.5 26.737c-.975 0-1.763.788-1.763 1.763 0 .975.788 1.75 1.763 1.75.975 0 1.763-.788 1.763-1.75.014-.962-.788-1.763-1.763-1.763zm0 5.263c-1.924 0-3.5-1.563-3.5-3.487A3.506 3.506 0 0176.5 25c1.937 0 3.5 1.576 3.5 3.513.013 1.924-1.563 3.487-3.5 3.487zm12-5.263c-.975 0-1.763.788-1.763 1.763 0 .975.788 1.75 1.763 1.75.975 0 1.763-.788 1.763-1.75a1.77 1.77 0 00-1.763-1.763zm0 5.263c-1.924 0-3.5-1.563-3.5-3.487C85 26.576 86.576 25 88.5 25s3.5 1.576 3.5 3.513C92 30.437 90.424 32 88.5 32zm12-5.263c-.975 0-1.763.788-1.763 1.763 0 .975.788 1.75 1.763 1.75.975 0 1.75-.788 1.75-1.75a1.75 1.75 0 00-1.75-1.763zm0 5.263c-1.924 0-3.5-1.563-3.5-3.487C97 26.576 98.576 25 100.5 25s3.5 1.576 3.5 3.513c0 1.924-1.576 3.487-3.5 3.487z" fill="#282828"/><path d="M51 84V52l29 14.4L51 84z" stroke="#282828" stroke-width="2.2" stroke-linecap="round" stroke-linejoin="round"/></svg>