<svg width="57" height="60" fill="none" xmlns="http://www.w3.org/2000/svg"><path d="M43.884 53.704H13.076c-.073 0-.221 0-.295-.076C4.802 48.167 0 39.065 0 29.204 0 13.123 12.781 0 28.443 0 44.18 0 56.886 13.123 56.886 29.204c0 9.86-4.802 18.963-12.78 24.424 0 .076-.074.076-.222.076zm-30.66-.986H43.81c7.683-5.234 12.264-14.033 12.264-23.514 0-15.55-12.338-28.218-27.557-28.218S.96 13.654.96 29.204c0 9.481 4.58 18.28 12.264 23.514z" fill="#040926"/><path d="M45.73 48.926h-34.5c-.296 0-.444-.228-.444-.531V35.424c0-.227.148-.38.296-.455l11.82-4.779c.148-.076.37 0 .517.076l4.876 4.779 5.246-4.855c.148-.152.295-.152.517-.076l11.82 4.779a.512.512 0 01.296.455V48.32c0 .38-.222.607-.443.607zm-33.983-.986h33.467V35.727l-11.304-4.55-5.393 4.93a.543.543 0 01-.665 0l-4.95-4.93-11.23 4.55V47.94h.075z" fill="#040926"/><path d="M39.894 48.926H17.066c-.296 0-.443-.228-.443-.531v-8.192c0-.304.221-.531.443-.531.295 0 .443.227.443.53v7.662h21.868v-7.661c0-.304.222-.531.443-.531.296 0 .444.227.444.53v8.193c.147.303-.074.531-.37.531zm-5.688-11.531H22.754c-.295 0-.443-.227-.443-.53v-6.22c0-.304.222-.532.443-.532.296 0 .444.228.444.531v5.765h10.416v-5.765c0-.303.222-.53.444-.53.295 0 .443.227.443.53v6.22c.148.304-.074.531-.295.531z" fill="#040926"/><path d="M30.216 41.416h-3.398c-.296 0-.444-.228-.444-.531v-4.096c0-.304.222-.531.444-.531h3.398c.296 0 .444.227.444.53v4.097c0 .38-.222.53-.444.53zm-2.955-.986H29.7v-3.11h-2.438v3.11z" fill="#C47A2D"/><path d="M31.62 48.926h-6.575a.557.557 0 01-.37-.152c-.074-.152-.148-.303-.074-.455l1.774-7.434c.073-.227.221-.38.443-.38h3.398c.222 0 .443.153.443.38l1.404 7.434c0 .151 0 .303-.074.379-.148.152-.221.228-.37.228zm-5.984-.986h5.393l-1.182-6.448h-2.66l-1.551 6.448z" fill="#C47A2D"/><path d="M28.665 28.066c-4.95 0-9.013-4.172-9.013-9.254s4.063-9.254 9.013-9.254 9.013 4.172 9.013 9.254c0 5.158-4.063 9.254-9.013 9.254zm0-17.522c-4.433 0-8.053 3.716-8.053 8.268 0 4.55 3.62 8.268 8.053 8.268 4.433 0 8.053-3.717 8.053-8.268 0-4.552-3.62-8.268-8.053-8.268z" fill="#040926"/><path d="M35.093 17.295c-2.217 0-4.36-.683-5.91-1.897-.222-.151-.222-.455-.075-.682.148-.228.444-.228.665-.076 1.773 1.365 4.507 1.972 7.019 1.517.295-.076.517.152.59.38.075.303-.147.53-.369.606-.665.076-1.256.152-1.92.152z" fill="#040926"/><path d="M24.158 17.142a10.38 10.38 0 01-3.768-.683c-.221-.075-.369-.379-.295-.606.074-.228.37-.38.59-.304a10.02 10.02 0 003.4.607c3.915 0 7.166-2.275 7.166-5.082 0-.303.221-.531.443-.531.295 0 .443.228.443.531.074 3.338-3.546 6.068-7.979 6.068zm29.847 39.976H2.955c-.296 0-.443-.228-.443-.531 0-.304.221-.531.443-.531h51.05c.296 0 .443.227.443.53 0 .304-.221.532-.443.532zm0 2.882H2.955c-.296 0-.443-.228-.443-.532 0-.303.221-.53.443-.53h51.05c.296 0 .443.227.443.53 0 .304-.221.531-.443.531z" fill="#040926"/></svg>