<svg width="49" height="60" fill="none" xmlns="http://www.w3.org/2000/svg"><path d="M36.486 27.99H11.53c-.304 0-.455-.227-.455-.455v-9.178a.51.51 0 01.303-.455l8.572-3.338c.151-.076.379 0 .53.076l3.414 3.262 3.717-3.338c.151-.152.303-.152.53-.076l8.572 3.338c.152.076.303.227.303.455v9.178c-.075.304-.303.531-.53.531zm-24.425-.986h23.97V18.66l-7.965-3.11-3.793 3.414a.569.569 0 01-.683 0l-3.565-3.414-7.964 3.11v8.344z" fill="#282828"/><path d="M32.238 27.99H15.702c-.303 0-.531-.228-.531-.456V21.77c0-.304.228-.456.53-.456.304 0 .532.228.532.456v5.233h15.55V21.77c0-.304.227-.456.53-.456.304 0 .532.228.532.456v5.764c-.076.228-.304.456-.607.456zm-4.096-8.117h-8.268c-.304 0-.531-.227-.531-.455v-4.4c0-.303.227-.455.53-.455.304 0 .532.228.532.456v3.868h7.282V15.02c0-.304.227-.456.53-.456.304 0 .532.228.532.456v4.4c-.152.227-.38.454-.607.454z" fill="#282828"/><path d="M25.26 22.756h-2.504c-.303 0-.53-.228-.53-.456v-2.882c0-.303.227-.455.53-.455h2.503c.304 0 .531.227.531.455V22.3c-.076.228-.303.456-.53.456zm-1.973-.986h1.517v-1.897h-1.517v1.896z" fill="#282828"/><path d="M26.245 27.99h-4.779a.58.58 0 01-.379-.152c-.076-.152-.151-.304-.076-.455l1.29-5.234c.076-.228.228-.38.455-.38h2.503c.228 0 .455.152.455.38l.986 5.234c0 .151 0 .303-.075.379a.417.417 0 01-.38.227zm-4.096-.987h3.565l-.834-4.247h-1.67l-1.062 4.247zm1.972-13.653c-3.64 0-6.675-2.958-6.675-6.675 0-3.64 2.959-6.675 6.675-6.675a6.637 6.637 0 016.676 6.675c0 3.641-2.959 6.675-6.676 6.675zm0-12.364c-3.11 0-5.689 2.58-5.689 5.69 0 3.11 2.58 5.688 5.69 5.688 3.11 0 5.688-2.579 5.688-5.689S27.231.986 24.121.986z" fill="#282828"/><path d="M28.824 5.765c-1.669 0-3.186-.455-4.324-1.366-.227-.151-.227-.455-.075-.682.151-.228.455-.228.682-.076 1.214.986 3.186 1.365 5.007 1.062.303-.076.53.152.606.38.076.303-.151.53-.379.606-.607 0-1.062.076-1.517.076z" fill="#282828"/><path d="M20.86 5.613c-.986 0-1.897-.151-2.807-.53-.227-.076-.38-.38-.303-.607.076-.228.379-.38.607-.304a6.29 6.29 0 002.427.455c2.806 0 5.006-1.517 5.006-3.413 0-.304.228-.455.531-.455.304 0 .531.227.531.455 0 2.427-2.655 4.4-5.992 4.4z" fill="#282828"/><path d="M47.636 60c-.303 0-.531-.227-.531-.455v-2.276a3.238 3.238 0 00-3.262-3.261h-5.461a3.238 3.238 0 00-3.262 3.261v2.276c0 .303-.227.455-.53.455-.304 0-.532-.227-.532-.455v-2.276a4.24 4.24 0 014.248-4.247h5.461a4.24 4.24 0 014.248 4.247v2.276c.152.228-.076.455-.38.455zM29.81 60c-.303 0-.53-.227-.53-.455v-2.276a3.238 3.238 0 00-3.262-3.261h-5.462a3.238 3.238 0 00-3.261 3.261v2.276c0 .303-.228.455-.531.455-.304 0-.531-.227-.531-.455v-2.276a4.24 4.24 0 014.247-4.247h5.462a4.24 4.24 0 014.248 4.247v2.276c.151.228-.076.455-.38.455zm-16.46 0c-.303 0-.455-.227-.455-.455v-2.276a3.238 3.238 0 00-3.262-3.261H4.172A3.238 3.238 0 00.91 57.269v2.276c0 .303-.227.455-.455.455A.49.49 0 010 59.545v-2.276a4.24 4.24 0 014.248-4.247h5.461a4.24 4.24 0 014.248 4.247v2.276c-.152.228-.38.455-.607.455zm27.687-7.737c-2.2 0-4.02-1.82-4.02-4.02 0-2.2 1.82-4.02 4.02-4.02 2.2 0 4.02 1.82 4.02 4.02 0 2.276-1.745 4.02-4.02 4.02zm-3.035-3.717c.152 1.593 1.442 2.807 3.035 2.807a3.043 3.043 0 003.034-3.034v-.304c-.835.076-1.745-.151-2.503-.607-.91.91-2.276 1.366-3.566 1.138zm.076-.986c.152 0 .38.076.607.076.986 0 1.82-.455 2.427-1.214.076-.075.228-.151.304-.227.152 0 .303 0 .38.076.53.455 1.289.682 1.971.682-.455-.986-1.517-1.744-2.73-1.744-1.366 0-2.58.986-2.959 2.351zm-14.791 4.703c-2.2 0-4.02-1.82-4.02-4.02 0-2.2 1.82-4.02 4.02-4.02 2.2 0 4.02 1.82 4.02 4.02 0 2.276-1.82 4.02-4.02 4.02zm-3.034-3.717c.152 1.593 1.441 2.807 3.034 2.807a3.043 3.043 0 003.034-3.034v-.304c-.834.076-1.745-.151-2.503-.607-.91.835-2.352 1.29-3.565 1.138zm.076-.986c.151 0 .379.076.607.076.986 0 1.896-.455 2.427-1.214.076-.075.227-.151.303-.227.152 0 .304 0 .38.076.53.455 1.289.682 1.972.682a3.055 3.055 0 00-2.731-1.744 3.012 3.012 0 00-2.958 2.351zM6.75 52.263c-2.2 0-4.02-1.82-4.02-4.02 0-2.2 1.82-4.02 4.02-4.02 2.2 0 4.02 1.82 4.02 4.02 0 2.276-1.82 4.02-4.02 4.02zm-3.034-3.717c.152 1.593 1.441 2.807 3.034 2.807a3.043 3.043 0 003.034-3.034v-.304c-.834.076-1.745-.151-2.503-.607-.759.759-1.82 1.214-2.883 1.214-.227-.076-.455-.076-.682-.076zm.076-.986c.227 0 .379.076.606.076.987 0 1.821-.455 2.428-1.214.076-.075.227-.151.303-.227.152 0 .304 0 .38.076.53.455 1.289.682 1.972.682a3.055 3.055 0 00-2.731-1.744c-1.441 0-2.58.986-2.958 2.351z" fill="#C47A2D"/><path d="M41.264 43.312c-.303 0-.53-.228-.53-.455v-6.751L7.205 35.65v6.978c0 .304-.227.455-.455.455a.49.49 0 01-.455-.455v-7.51c0-.15.076-.227.152-.378a.58.58 0 01.379-.152l34.513.38c.304 0 .455.227.455.454v7.282c0 .38-.227.607-.53.607z" fill="#282828"/><path d="M23.894 39.444c-.304 0-.531-.227-.531-.455V27.535c0-.303.227-.455.53-.455.304 0 .532.228.532.455V38.99c-.076.228-.304.455-.531.455z" fill="#282828"/></svg>