<svg width="54" height="60" fill="none" xmlns="http://www.w3.org/2000/svg"><path d="M40.774 60H.647c-.303 0-.53-.228-.53-.455V2.958c0-.303.227-.455.53-.455h40.127c.303 0 .53.227.53.455v56.587c-.075.227-.227.455-.53.455zm-39.672-.986h39.14V3.489H1.103v55.525zm47.712.152c-.152 0-.38-.076-.455-.303l-4.476-9.255c0-.075-.075-.151-.075-.227V17.523c0-.304.227-.456.53-.456h8.951c.304 0 .531.228.531.456v31.934c0 .076 0 .151-.076.227l-4.475 9.254c-.076.152-.303.228-.455.228zm-4.02-9.86l4.02 8.267 4.02-8.268V17.978h-8.04v31.327z" fill="#000"/><path d="M48.814 59.166c-.151 0-.379-.076-.455-.304l-1.29-2.654a.483.483 0 010-.456.592.592 0 01.304-.303c.834-.228 1.896-.228 2.807 0 .151 0 .303.152.303.303a.484.484 0 010 .456l-1.29 2.654c0 .228-.227.304-.379.304zm-.53-2.73l.53 1.137.531-1.138c-.38-.076-.758-.076-1.062 0z" fill="#000"/><path d="M46.31 48.547c-.293 0-.514-.226-.514-.452V17.519c0-.301.22-.452.515-.452.294 0 .514.226.514.452v30.576c0 .226-.22.452-.514.452zm2.348-.001c-.292 0-.439-.225-.512-.45L48 17.516c0-.3.22-.525.439-.525.292 0 .439.225.512.45l.146 30.58c0 .3-.22.525-.439.525zm2.356.759c-.29 0-.506-.227-.506-.455V17.522c0-.303.217-.455.506-.455.289 0 .506.228.506.456v31.251c-.073.303-.29.531-.506.531z" fill="#C47A2D"/><path d="M53.29 17.977h-8.951c-.304 0-.531-.227-.531-.455v-2.351a2.8 2.8 0 012.806-2.807h4.324a2.8 2.8 0 012.806 2.807v2.351c.076.228-.151.455-.455.455zm-8.496-.986h7.964v-1.82c0-.986-.834-1.82-1.82-1.82h-4.324c-.986 0-1.82.834-1.82 1.82v1.82z" fill="#000"/><path d="M34.023 18.432H7.398c-.303 0-.53-.228-.53-.455v-6.448c0-.303.227-.455.53-.455h26.625c.303 0 .53.228.53.455v6.448c0 .227-.227.455-.53.455zm-26.17-.986h25.639v-5.462H7.853v5.462z" fill="#C47A2D"/><path d="M33.568 22.68H7.929c-.303 0-.53-.228-.53-.455 0-.228.227-.456.53-.456h25.639c.303 0 .53.228.53.456 0 .227-.303.455-.53.455zm0 4.02H7.929c-.303 0-.53-.227-.53-.455 0-.303.227-.455.53-.455h25.639c.303 0 .53.228.53.455-.075.228-.303.455-.53.455zm0 4.02H15.894c-.304 0-.531-.227-.531-.454 0-.304.227-.455.53-.455h17.675c.303 0 .53.227.53.455-.075.227-.303.455-.53.455zm-6.448 4.021H7.853c-.303 0-.53-.227-.53-.455 0-.303.227-.455.53-.455H27.12c.303 0 .531.228.531.455-.076.228-.303.455-.531.455zm6.448 4.019H7.929c-.303 0-.53-.227-.53-.454 0-.304.227-.455.53-.455h25.639c.303 0 .53.227.53.455-.075.227-.303.455-.53.455zm0 4.021H13.315c-.304 0-.531-.227-.531-.455 0-.303.227-.455.53-.455h20.254c.303 0 .53.228.53.455-.075.228-.303.455-.53.455zm0 4.021H7.929c-.303 0-.53-.228-.53-.455 0-.304.227-.455.53-.455h25.639c.303 0 .53.227.53.455-.075.227-.303.455-.53.455zm3.034-40.885c-.304 0-.531-.228-.531-.456V.455c0-.303.227-.455.53-.455.304 0 .532.228.532.455v4.93a.519.519 0 01-.531.532zm-5.31 0c-.304 0-.531-.228-.531-.456V.455c0-.303.227-.455.53-.455.304 0 .532.228.532.455v4.93a.518.518 0 01-.531.532zm-5.31 0c-.303 0-.53-.228-.53-.456V.455c0-.303.227-.455.53-.455.304 0 .531.228.531.455v4.93a.518.518 0 01-.53.532zm-5.31 0c-.303 0-.53-.228-.53-.456V.455c0-.303.227-.455.53-.455.304 0 .531.228.531.455v4.93a.519.519 0 01-.53.532zm-5.31 0c-.303 0-.53-.228-.53-.456V.455c0-.303.227-.455.53-.455.304 0 .532.228.532.455v4.93a.518.518 0 01-.531.532zm-5.31 0c-.302 0-.53-.228-.53-.456V.455c0-.303.228-.455.53-.455.304 0 .532.228.532.455v4.93a.518.518 0 01-.531.532zm-5.233 0c-.303 0-.53-.228-.53-.456V.455c0-.303.227-.455.53-.455.303 0 .531.228.531.455v4.93c-.076.304-.303.532-.53.532zm48.546 43.995c-.076 0-.152 0-.227-.076l-1.442-.834-.91.758a.461.461 0 01-.607 0l-1.44-1.062-.987.986a.58.58 0 01-.38.152c-.151 0-.227-.076-.379-.152l-.986-.986-1.44 1.062c-.228.152-.532.076-.684-.076-.151-.227-.075-.53.076-.682l1.82-1.29c.228-.152.456-.152.608.076l.91.91.91-.91c.152-.152.455-.227.607-.076l1.441 1.062.91-.758c.152-.152.38-.152.607-.076l1.745 1.062a.494.494 0 01.152.682c.075.152-.076.228-.304.228z" fill="#000"/></svg>