<svg width="64" height="60" fill="none" xmlns="http://www.w3.org/2000/svg"><path d="M62.716 60H1.296c-.315 0-.472-.236-.472-.552v-4.573c0-.236.236-.473.473-.473h61.34c.316 0 .473.237.473.552v4.573c.079.237-.157.473-.394.473zM1.849 58.975h60.315v-3.548H1.85v3.548z" fill="#000"/><path d="M58.616 55.427H5.396c-.314 0-.472-.237-.472-.552v-4.573c0-.316.236-.552.473-.552h53.298c.316 0 .473.236.473.552v4.573a.539.539 0 01-.552.552zM5.87 54.402h52.273v-3.548H5.87v3.548zm55.979-36.189H2.164c-.236 0-.473-.158-.473-.395-.079-.236 0-.473.237-.551L31.73.079a.503.503 0 01.473 0l29.803 17.109c.236.079.315.236.315.473.079.315-.158.552-.473.552zM4.057 17.188h55.9L32.046 1.104 4.056 17.188z" fill="#000"/><path d="M35.042 50.854h-5.44c-.316 0-.474-.236-.474-.552V21.445c0-.315.237-.551.474-.551h5.44c.315 0 .473.236.473.552v28.856c0 .316-.237.552-.473.552zm-4.968-1.025h4.416V21.997h-4.416V49.83zm-15.137 1.025h-5.44c-.316 0-.474-.236-.474-.552V21.445c0-.315.237-.551.473-.551h5.44c.316 0 .474.236.474.552v28.856c0 .316-.237.552-.473.552zM9.97 49.83h4.415V21.997H9.97V49.83zm45.098 1.024h-5.44c-.316 0-.473-.236-.473-.552V21.445c0-.315.236-.551.473-.551h5.44c.315 0 .473.236.473.552v28.856c.079.316-.158.552-.473.552zM50.18 49.83h4.415V21.997H50.18V49.83z" fill="#000"/><path d="M16.83 21.998H7.603c-.315 0-.473-.237-.473-.552V17.66c0-.315.237-.552.473-.552h9.304c.315 0 .473.237.473.552v3.785a.539.539 0 01-.552.552zm-8.753-1.025h8.28v-2.76h-8.28v2.76zm28.857 1.025h-9.303c-.316 0-.473-.237-.473-.552V17.66c0-.315.236-.552.473-.552h9.303c.316 0 .473.237.473.552v3.785c0 .315-.157.552-.473.552zm-8.751-1.025h8.278v-2.76h-8.278v2.76zm28.857 1.025h-9.304c-.316 0-.473-.237-.473-.552V17.66c0-.315.236-.552.473-.552h9.303c.316 0 .473.237.473.552v3.785c0 .315-.236.552-.473.552zm-8.752-1.025h8.278v-2.76h-8.278v2.76z" fill="#000"/><path d="M32.046 15.374a3.87 3.87 0 01-3.863-3.863 3.87 3.87 0 013.863-3.864 3.87 3.87 0 013.863 3.864c0 2.05-1.734 3.863-3.863 3.863zm0-6.78a2.827 2.827 0 00-2.838 2.838 2.827 2.827 0 002.838 2.838 2.827 2.827 0 002.838-2.838 2.827 2.827 0 00-2.838-2.838z" fill="#C47A2D"/></svg>