<svg width="120" height="120" fill="none" xmlns="http://www.w3.org/2000/svg"><path d="M12.157 27.512c-.399 0-.782.158-1.065.44a1.522 1.522 0 00-.448 1.066v65.775a1.52 1.52 0 001.513 1.506H97.58V85.483a.839.839 0 01.834-.837h10.363V29.018a1.499 1.499 0 00-1.5-1.507h-5.336v3.375c0 .57-.226 1.117-.627 1.52a2.14 2.14 0 01-1.515.63h-4.104a2.133 2.133 0 01-1.515-.63 2.152 2.152 0 01-.627-1.52v-3.374h-10.66v3.373a2.167 2.167 0 01-.636 1.522 2.15 2.15 0 01-1.519.629h-4.091a2.15 2.15 0 01-1.519-.63 2.167 2.167 0 01-.636-1.52v-3.374H63.834v3.373a2.168 2.168 0 01-.636 1.522 2.15 2.15 0 01-1.519.629h-4.105a2.137 2.137 0 01-1.506-.634 2.155 2.155 0 01-.623-1.517v-3.373h-10.67v3.373a2.16 2.16 0 01-.628 1.521 2.14 2.14 0 01-1.515.63h-4.104a2.135 2.135 0 01-1.98-1.328 2.157 2.157 0 01-.162-.822v-3.374H25.715v3.373c0 .57-.226 1.118-.628 1.521-.402.403-.946.63-1.514.63H19.48a2.15 2.15 0 01-1.519-.63 2.167 2.167 0 01-.636-1.52v-3.374h-5.169zM98.413 97.96H12.157a3.174 3.174 0 01-2.244-.93 3.2 3.2 0 01-.936-2.25V29.018a3.2 3.2 0 01.936-2.25 3.174 3.174 0 012.244-.93h6.08a.833.833 0 01.834.837v4.21a.48.48 0 00.301.444.46.46 0 00.186.033h4.091a.474.474 0 00.475-.476v-4.211a.838.838 0 01.834-.837h12.339a.832.832 0 01.833.837v4.21a.49.49 0 00.475.477h4.104a.487.487 0 00.475-.476v-4.211a.838.838 0 01.834-.837h12.338a.833.833 0 01.834.837v4.21a.477.477 0 00.462.477h4.104a.474.474 0 00.487-.476v-4.211a.838.838 0 01.834-.837h12.326a.832.832 0 01.834.837v4.21a.49.49 0 00.487.477h4.091a.486.486 0 00.488-.476v-4.211a.838.838 0 01.834-.837h12.325a.832.832 0 01.834.837v4.21a.463.463 0 00.475.477h4.104a.487.487 0 00.475-.476v-4.211a.836.836 0 01.833-.837h6.093c.839.003 1.643.34 2.236.935.593.596.928 1.403.932 2.245V85.47a.834.834 0 01-.834.837H99.246v10.816a.839.839 0 01-.833.837z" fill="#282828"/><path d="M109.633 42.77h-99.8A.831.831 0 019 41.933a.839.839 0 01.834-.837h99.799a.831.831 0 01.834.837.83.83 0 01-.834.837zM19.53 21.988a.474.474 0 00-.488.476v8.421a.477.477 0 00.488.477h4.091a.474.474 0 00.475-.477v-8.42a.467.467 0 00-.291-.445.463.463 0 00-.184-.032H19.53zm4.091 11.048H19.53a2.15 2.15 0 01-1.52-.63 2.167 2.167 0 01-.635-1.52v-8.422c0-.574.227-1.124.631-1.53a2.15 2.15 0 011.524-.633h4.091c.57.003 1.114.233 1.516.638.401.405.626.953.626 1.525v8.421c0 .57-.226 1.118-.627 1.52-.402.404-.947.63-1.515.63zM38.58 21.988a.474.474 0 00-.475.476v8.421a.49.49 0 00.475.477h4.104a.486.486 0 00.474-.477v-8.42a.478.478 0 00-.474-.477H38.58zm4.104 11.048H38.58a2.138 2.138 0 01-1.515-.63 2.155 2.155 0 01-.627-1.52v-8.422c0-.572.225-1.12.626-1.525a2.151 2.151 0 011.516-.638h4.104a2.15 2.15 0 011.515.638c.402.405.627.953.627 1.525v8.421c0 .57-.226 1.118-.627 1.52-.402.404-.947.63-1.515.63zm14.937-11.048a.46.46 0 00-.461.476v8.421a.477.477 0 00.461.477h4.104a.473.473 0 00.488-.477v-8.42a.477.477 0 00-.488-.477h-4.104zm4.104 11.048h-4.104a2.137 2.137 0 01-1.506-.635 2.155 2.155 0 01-.623-1.516v-8.42c0-.57.224-1.117.622-1.522a2.15 2.15 0 011.507-.642h4.104c.572 0 1.12.228 1.524.633.404.406.631.956.631 1.53v8.421a2.167 2.167 0 01-.635 1.522 2.15 2.15 0 01-1.52.629zm14.969-11.048a.473.473 0 00-.487.476v8.421a.49.49 0 00.487.477h4.091a.486.486 0 00.488-.477v-8.42a.48.48 0 00-.302-.445.474.474 0 00-.186-.032h-4.09zm4.091 11.048h-4.09c-.57 0-1.116-.226-1.52-.63a2.168 2.168 0 01-.636-1.52v-8.422c0-.574.227-1.124.631-1.53a2.15 2.15 0 011.524-.633h4.091a2.16 2.16 0 011.52.637c.404.405.632.953.635 1.526v8.421a2.167 2.167 0 01-.635 1.522 2.15 2.15 0 01-1.52.629zm14.958-11.048a.46.46 0 00-.474.476v8.421a.465.465 0 00.474.477h4.105a.485.485 0 00.474-.477v-8.42a.478.478 0 00-.474-.477h-4.105zm4.105 11.048h-4.105a2.138 2.138 0 01-1.514-.63 2.154 2.154 0 01-.627-1.52v-8.422c0-.572.225-1.12.626-1.525a2.15 2.15 0 011.515-.638h4.105a2.15 2.15 0 011.515.638c.402.405.627.953.627 1.525v8.421a2.151 2.151 0 01-2.142 2.15zM98.587 97.73a.844.844 0 01-.577-.233.836.836 0 01-.18-.912.837.837 0 01.18-.272l10.98-11.423a.843.843 0 01.585-.258.831.831 0 01.782.5.843.843 0 01-.161.917L99.203 97.472a.807.807 0 01-.603.257h-.013zm-62.004-39.7H19.037a.832.832 0 01-.834-.838.84.84 0 01.515-.773.832.832 0 01.319-.063h17.546a.831.831 0 01.834.836.839.839 0 01-.834.837zm31.875 0H50.912a.831.831 0 01-.834-.838.838.838 0 01.834-.837h17.546a.832.832 0 01.834.837.839.839 0 01-.834.837zm31.862 0H82.787a.832.832 0 01-.834-.838.84.84 0 01.515-.773.832.832 0 01.319-.063h17.533a.83.83 0 01.77.516.839.839 0 01-.451 1.094.83.83 0 01-.319.063zM36.583 70.326H19.037a.832.832 0 01-.834-.837.838.838 0 01.834-.837h17.546a.831.831 0 01.834.837.839.839 0 01-.834.837zm31.875 0H50.912a.832.832 0 01-.834-.837.838.838 0 01.834-.837h17.546a.832.832 0 01.834.837.839.839 0 01-.834.837zm31.862 0H82.787a.832.832 0 01-.834-.837.838.838 0 01.834-.837h17.533a.834.834 0 01.834.837.835.835 0 01-.834.837zM36.583 82.688H19.037a.832.832 0 01-.834-.837.839.839 0 01.834-.837h17.546a.831.831 0 01.834.837.838.838 0 01-.834.837zm31.875 0H50.912a.831.831 0 01-.834-.837.839.839 0 01.834-.837h17.546a.832.832 0 01.834.837.838.838 0 01-.834.837zm31.862 0H82.787a.832.832 0 01-.834-.837.839.839 0 01.834-.837h17.533a.834.834 0 01.834.837.834.834 0 01-.834.837z" fill="#282828"/></svg>