<svg width="120" height="120" fill="none" xmlns="http://www.w3.org/2000/svg"><path d="M18.33 5.84a3.503 3.503 0 00-3.497 3.51v79.3a3.503 3.503 0 003.497 3.51h48.815V63.25a3.466 3.466 0 013.454-3.467h16.554V9.349a3.503 3.503 0 00-3.497-3.51H18.33zM68.06 94H18.33C15.397 94 13 91.594 13 88.65V9.35C13 6.406 15.397 4 18.33 4h65.34C86.617 4 89 6.406 89 9.35v51.353c0 .51-.409.92-.916.92h-17.47c-.903 0-1.622.736-1.622 1.627v29.83a.938.938 0 01-.93.92z" fill="#282828"/><path d="M70.611 61.674c-.9 0-1.618.735-1.618 1.625v49.236c0 .905.732 1.626 1.618 1.626h32.274c.901 0 1.618-.735 1.618-1.626V63.299c0-.904-.732-1.625-1.618-1.625H70.611zm32.274 54.324H70.611c-1.9 0-3.447-1.554-3.447-3.463V63.299c0-1.908 1.548-3.463 3.447-3.463h32.274c1.899 0 3.447 1.555 3.447 3.463v49.236c0 1.909-1.548 3.463-3.447 3.463z" fill="#282828"/><path d="M75.071 77.45h23.34v-9.882h-23.34v9.881zm24.269 1.837H74.157a.915.915 0 01-.915-.919V66.65c0-.509.408-.918.915-.918H99.34c.507 0 .915.41.915.918v11.72a.915.915 0 01-.915.918zm-23.8 6.645h2.251V83.43H75.54v2.502zm3.165 1.837h-4.08a.915.915 0 01-.914-.919v-4.34c0-.508.408-.918.915-.918h4.08c.506 0 .914.41.914.919v4.34a.915.915 0 01-.915.918zm6.921-1.837h2.265V83.43h-2.265v2.502zm3.18 1.837H84.71a.915.915 0 01-.914-.919v-4.34c0-.508.408-.918.914-.918h4.094c.507 0 .915.41.915.919v4.34a.915.915 0 01-.915.918zm6.882-1.837h2.266V83.43h-2.266v2.502zm3.18 1.837h-4.094a.915.915 0 01-.915-.919v-4.34c0-.508.408-.918.915-.918h4.094c.506 0 .914.41.914.919v4.34a.915.915 0 01-.914.918zM75.54 97.098h2.251v-2.502H75.54v2.502zm3.165 1.837h-4.08a.915.915 0 01-.914-.919v-4.34c0-.508.408-.918.915-.918h4.08c.506 0 .914.41.914.919v4.34a.915.915 0 01-.915.918zm6.921-1.837h2.265v-2.502h-2.265v2.502zm3.18 1.837H84.71a.915.915 0 01-.914-.919v-4.34c0-.508.408-.918.914-.918h4.094c.507 0 .915.41.915.919v4.34a.915.915 0 01-.915.918zm6.882-1.837h2.266v-2.502h-2.266v2.502zm3.18 1.837h-4.094a.915.915 0 01-.915-.919v-4.34c0-.508.408-.918.915-.918h4.094c.506 0 .914.41.914.919v4.34a.915.915 0 01-.914.918zm-23.328 9.334h2.251v-2.502H75.54v2.502zm3.165 1.838h-4.08a.915.915 0 01-.914-.919v-4.339c0-.509.408-.919.915-.919h4.08c.506 0 .914.41.914.919v4.339a.915.915 0 01-.915.919zm6.921-1.838h2.265v-2.502h-2.265v2.502zm3.18 1.838H84.71a.915.915 0 01-.914-.919v-4.339c0-.509.408-.919.914-.919h4.094c.507 0 .915.41.915.919v4.339a.915.915 0 01-.915.919zm6.882-1.838h2.266v-2.502h-2.266v2.502zm3.18 1.838h-4.094a.915.915 0 01-.915-.919v-4.339c0-.509.408-.919.915-.919h4.094c.506 0 .914.41.914.919v4.339a.915.915 0 01-.914.919zM74.48 21H27.52c-.842 0-1.52-.446-1.52-1s.678-1 1.52-1h46.96c.842 0 1.52.446 1.52 1s-.678 1-1.52 1zm0 32H27.52c-.842 0-1.52-.446-1.52-1s.678-1 1.52-1h46.96c.842 0 1.52.446 1.52 1s-.678 1-1.52 1zm0-16H27.52c-.842 0-1.52-.446-1.52-1s.678-1 1.52-1h46.96c.842 0 1.52.446 1.52 1s-.678 1-1.52 1zM41.082 69H26.918c-.508 0-.918-.446-.918-1s.41-1 .918-1h14.164c.508 0 .918.446.918 1s-.41 1-.918 1z" fill="#282828"/></svg>