<svg width="120" height="120" fill="none" xmlns="http://www.w3.org/2000/svg"><path d="M55.517 57.015c-1.972-.16-3.838-.253-5.533-.253v-4.893h5.546v5.146h-.013zm9.005 1.275a77.83 77.83 0 00-5.506-.905V44.834h5.532V58.13l-.026.16zm9.14-20.196V60.47l-.211.492a39.583 39.583 0 00-5.295-1.821V38.094h5.506zM86.203 66.64V28.295h5.546v35.46l.093.212a69.249 69.249 0 00-5.639 2.673zM82.69 33.281v35.167l.133.213a28.496 28.496 0 00-2.436 1.742 4.872 4.872 0 00.239-2.66 7.67 7.67 0 00-1.347-2.845 7.634 7.634 0 00-2.373-2.06l.252-.346v-29.21h5.532z" stroke="#000" stroke-width="1.3" stroke-linecap="round" stroke-linejoin="round"/><path d="M68.098 38.093V59.14a58.478 58.478 0 00-3.574-.837V44.847h-5.427V57.4c-1.191-.16-2.37-.28-3.508-.373v-5.145h-5.546v4.893a31.48 31.48 0 00-5.744.399 31.01 31.01 0 00-2.396.624 31.187 31.187 0 01-1.456-9.745 33.07 33.07 0 013.105-14.098 32.929 32.929 0 018.808-11.41 32.746 32.746 0 0112.82-6.532 32.657 32.657 0 0114.37-.398 32.727 32.727 0 0113.157 5.812 32.902 32.902 0 019.421 10.906 33.086 33.086 0 011.456 28.138h-.145a49.853 49.853 0 00-11.595 3.523l-.093-.212V28.294h-5.546V66.64a48.822 48.822 0 00-3.389 1.994l-.132-.212V33.28h-5.533v29.143l-.251.346a21.928 21.928 0 00-3.481-1.822l.238-.478V38.093h-5.56zM24.804 85.852a2.488 2.488 0 00-1.669.925 2.51 2.51 0 00.393 3.516 2.483 2.483 0 003.5-.395 2.507 2.507 0 00-1.255-3.964 2.48 2.48 0 00-.969-.082v0zM12.084 104L9 71.24l14.361-4.441L36.148 87.54l.675 5.318L12.084 104z" stroke="#000" stroke-width="1.3" stroke-linecap="round" stroke-linejoin="round"/><path d="M73.586 89.082c-15.394 1.156-18.531-8.975-37.486-1.543L23.367 66.798c4.673-2.66 12.575-7.127 18.531-9.015a30.606 30.606 0 012.396-.624 31.473 31.473 0 015.744-.4c1.695 0 3.56.094 5.533.253a68.51 68.51 0 013.508.373c1.84.239 3.68.531 5.506.904 1.218.252 2.41.518 3.574.837a39.61 39.61 0 015.294 1.822 21.924 21.924 0 013.481 1.821v0a7.633 7.633 0 012.374 2.06 7.67 7.67 0 011.346 2.847c.17.89.087 1.812-.238 2.659a28.514 28.514 0 012.435-1.742c1.033-.678 2.17-1.33 3.389-1.995a65.02 65.02 0 015.638-2.659 49.85 49.85 0 0111.569-3.47h.145c3.27-.438 8.088-.133 8.405 4.082.503 6.767-29.437 23.84-38.411 24.53z" stroke="#000" stroke-width="1.3" stroke-linecap="round" stroke-linejoin="round"/><path d="M23.367 66.798c4.673-2.66 12.575-7.127 18.531-9.015a30.606 30.606 0 012.396-.624 31.473 31.473 0 015.744-.4c1.695 0 3.56.094 5.533.253a68.51 68.51 0 013.508.373c1.84.239 3.68.531 5.506.904 1.218.252 2.41.518 3.574.837a39.615 39.615 0 015.294 1.822 21.919 21.919 0 013.481 1.821v0a7.633 7.633 0 012.374 2.06 7.672 7.672 0 011.346 2.847c.17.89.087 1.812-.238 2.659-2.528 6.01-19.736.904-23.243 0" stroke="#000" stroke-width="1.3" stroke-linecap="round" stroke-linejoin="round"/><path d="M36.094 87.54c18.967-7.432 22.091 2.66 37.485 1.542 8.974-.664 38.915-17.763 38.385-24.57-.317-4.215-5.135-4.52-8.405-4.082h-.145a49.853 49.853 0 00-11.596 3.523 73.986 73.986 0 00-5.638 2.66 48.882 48.882 0 00-3.389 1.994 28.516 28.516 0 00-2.435 1.742" stroke="#000" stroke-width="1.3" stroke-linecap="round" stroke-linejoin="round"/><path d="M36.095 87.54l.675 5.318L12.084 104 9 71.24l14.308-4.441L36.095 87.54z" stroke="#000" stroke-width="1.3" stroke-linecap="round" stroke-linejoin="round"/><path d="M24.8 85.851a2.479 2.479 0 012.455 1.277 2.509 2.509 0 01-.234 2.767 2.489 2.489 0 01-2.634.842 2.487 2.487 0 01-1.212-.788 2.505 2.505 0 01-.572-1.332 2.496 2.496 0 011.268-2.474c.288-.158.604-.257.93-.292v0zM86.203 66.64V28.295h5.546v35.46m-14.593-1.33V33.281h5.533v35.14m-14.587-9.254V38.094h5.532v22.363M59.04 57.305V44.834h5.532V58.13m-14.588-1.275v-4.986h5.546v5.066" stroke="#000" stroke-width="1.3" stroke-linecap="round" stroke-linejoin="round"/><path d="M41.895 57.878a.256.256 0 010-.093 31.184 31.184 0 01-1.456-9.745 33.069 33.069 0 013.12-14.085 32.925 32.925 0 018.813-11.395 32.745 32.745 0 0112.815-6.519 32.657 32.657 0 0114.36-.393 32.727 32.727 0 0113.149 5.809 32.895 32.895 0 019.417 10.895 33.06 33.06 0 011.476 28.119v0" stroke="#000" stroke-width="1.3" stroke-linecap="round" stroke-linejoin="round"/></svg>