<svg width="120" height="120" fill="none" xmlns="http://www.w3.org/2000/svg"><path d="M14.947 50.627h80.088L54.985 23.52 14.947 50.627zM97.294 52H12.709a.718.718 0 01-.673-.482.659.659 0 01.271-.765l7.84-5.309 34.436-23.318a.723.723 0 01.815 0l42.19 28.564c.25.105.412.346.412.618a.701.701 0 01-.706.692z" fill="#282828"/><circle cx="24.82" cy="30.82" r="17.82" fill="#fff"/><path d="M24.852 48.725a17.863 17.863 0 1117.873-17.862 17.884 17.884 0 01-17.873 17.862zm0-34.321a16.458 16.458 0 1016.47 16.459 16.48 16.48 0 00-16.47-16.459z" fill="#282828"/><path d="M26.608 29.804H14.633c-.13 0-.256-.074-.348-.205a.876.876 0 01-.144-.497c0-.186.052-.364.144-.496s.217-.206.348-.206h11.975c.13 0 .256.074.348.206.092.132.144.31.144.496a.876.876 0 01-.144.497c-.092.131-.217.205-.348.205zm0 3.791H14.633c-.13 0-.256-.074-.348-.205a.876.876 0 01-.144-.497c0-.186.052-.364.144-.496s.217-.206.348-.206h11.975c.13 0 .256.074.348.206.092.132.144.31.144.496a.876.876 0 01-.144.497c-.092.131-.217.205-.348.205z" fill="#282828"/><path d="M29.753 41.35h-3.1a10.357 10.357 0 110-20.713h3.1a.702.702 0 010 1.404h-3.1a8.953 8.953 0 100 17.906h3.1a.702.702 0 110 1.403zM21.36 91.603h8.28V59.397h-8.28v32.206zM30.32 93h-9.64a.688.688 0 01-.68-.698V58.698c0-.386.303-.698.68-.698h9.64c.377 0 .68.312.68.699v33.603a.688.688 0 01-.68.698zm20.163-1.397h9.034V59.397h-9.034v32.206zM60.259 93H49.74c-.41 0-.741-.312-.741-.698V58.698c0-.386.33-.698.741-.698h10.52c.41 0 .741.312.741.699v33.603c0 .386-.33.698-.741.698zm19.213-1.397h9.034V59.397h-9.034v32.206zM89.259 93H78.74c-.41 0-.741-.312-.741-.698V58.698c0-.386.33-.698.741-.698h10.52c.41 0 .741.312.741.699v33.603c0 .386-.342.698-.741.698z" fill="#282828"/><path d="M48.472 57.623h13.056v-5.245H48.472v5.245zM62.264 59H47.736c-.408 0-.736-.307-.736-.689V51.69c0-.382.328-.689.736-.689h14.528c.408 0 .736.307.736.689v6.622c0 .371-.328.689-.736.689zm16.116-1.377h12.24v-5.245H78.38v5.245zM91.31 59H77.69a.688.688 0 01-.69-.689V51.69c0-.382.308-.689.69-.689h13.62c.382 0 .69.307.69.689v6.622a.695.695 0 01-.69.689zm-71.93-1.377h12.24v-5.245H19.38v5.245zM32.31 59H18.69a.688.688 0 01-.69-.689V51.69c0-.382.308-.689.69-.689h13.62c.382 0 .69.307.69.689v6.622a.695.695 0 01-.69.689zm16.162 39.633h13.056v-5.245H48.472v5.245zM62.264 100H47.736c-.408 0-.736-.307-.736-.689V92.69c0-.382.328-.689.736-.689h14.528c.408 0 .736.307.736.689v6.622c0 .382-.328.689-.736.689zm16.116-1.367h12.24v-5.245H78.38v5.245zM91.31 100H77.69a.688.688 0 01-.69-.689V92.69c0-.382.308-.689.69-.689h13.62c.382 0 .69.307.69.689v6.622a.688.688 0 01-.69.689zm-71.93-1.367h12.24v-5.245H19.38v5.245zM32.31 100H18.69a.688.688 0 01-.69-.689V92.69c0-.382.308-.689.69-.689h13.62c.382 0 .69.307.69.689v6.622a.688.688 0 01-.69.689z" fill="#282828"/><path d="M14.408 105.667h82.184v-5.354H14.408v5.354zM97.296 107H13.704c-.39 0-.704-.295-.704-.662v-6.676c0-.367.314-.662.704-.662h83.592c.39 0 .704.295.704.662v6.676c0 .357-.314.662-.704.662zM55 35.268c-2.608 0-4.74 1.901-4.74 4.232 0 2.33 2.123 4.222 4.74 4.222s4.74-1.891 4.74-4.222c0-2.33-2.133-4.232-4.74-4.232zM55 45c-3.305 0-6-2.467-6-5.5s2.695-5.5 6-5.5 6 2.467 6 5.5-2.695 5.5-6 5.5z" fill="#282828"/><circle cx="94.21" cy="84.817" r="17.82" fill="#fff"/><path d="M94.243 102.723a17.86 17.86 0 01-17.508-21.354 17.862 17.862 0 0135.381 3.492 17.885 17.885 0 01-17.873 17.862zm0-34.321a16.459 16.459 0 1016.469 16.459 16.48 16.48 0 00-16.47-16.459z" fill="#282828"/><path d="M94.325 96.966a8.64 8.64 0 01-3.888-.897 5.766 5.766 0 01-2.16-2.095 7.182 7.182 0 01-1.08-3.423.703.703 0 011.157-.589.692.692 0 01.237.48c.043.984.329 1.94.831 2.787a4.386 4.386 0 001.631 1.588c2.16 1.08 5.605 1.08 7.452-.843a5 5 0 001.36-3.607 5.055 5.055 0 00-.323-1.814c-.2-.524-.51-.999-.908-1.393a5.207 5.207 0 00-1.566-1.08 18.288 18.288 0 00-2.764-.886c-1.424-.32-2.8-.825-4.093-1.501a5.087 5.087 0 01-2.01-2.02 5.962 5.962 0 01-.69-2.862 5.874 5.874 0 012.02-4.6 7.052 7.052 0 014.578-1.49 6.966 6.966 0 014.493 1.414 6.038 6.038 0 012.095 3.964.701.701 0 01-.594.788.68.68 0 01-.788-.594 4.687 4.687 0 00-1.62-3.089 5.605 5.605 0 00-3.586-1.08 5.702 5.702 0 00-3.66 1.145 4.481 4.481 0 00-1.534 3.542c-.01.752.169 1.494.518 2.16a3.64 3.64 0 001.458 1.458 15.475 15.475 0 003.77 1.372 20.57 20.57 0 012.97.961 6.33 6.33 0 011.997 1.328c.539.53.955 1.172 1.22 1.88a6.48 6.48 0 01.422 2.322 6.39 6.39 0 01-.419 2.458 6.387 6.387 0 01-1.331 2.11 7.117 7.117 0 01-5.195 2.106z" fill="#282828"/><path d="M94.241 99.322a.702.702 0 01-.702-.703V71.19a.702.702 0 111.404 0v27.43a.702.702 0 01-.702.703z" fill="#282828"/></svg>