<svg width="171" height="62" fill="none" xmlns="http://www.w3.org/2000/svg"><path fill-rule="evenodd" clip-rule="evenodd" d="M10.387 36.798c-2.447 0-4.955.16-7.451.16L.559 41.096c2.987 0 5.547-.16 8.401-.16-.469 2.02-1.001 4.336-1.001 6.529H2.303L.4 50.332h7.61c.193 2.329 1.12 3.911 2.316 5.315 2.085 2.442 4.71 3.549 7.671 4.714 1.632.64 3.472 1.004 5.339 1.324.791.136 1.677.224 2.617.27h3.067c2.742-.12 5.55-.549 7.564-1.232 2.03-.688 3.769-1.49 5.717-2.378.713-.326 1.373-.334 1.373-1.327V45.714c0-1.318-1.275-1.114-2.219-1.114-1.23 0-1.12.994-1.111 2.227l.001 10.191c-.691.162-1.391.434-2.088.609-.73.183-1.628.307-2.415.44-4.284.726-10.354.532-14.18-.91-2.246-.846-4.141-3.006-4.141-5.552 0-.8.065-.718.157-1.433h16.327c.348 0 3.885-2.166 4.28-2.706H18.13c.584-2.516 1.162-4.83 2.4-6.687l26.95.002c1.344.014 1.197.072 2.029-.51l5.245-3.488c.305-.212.522-.273.648-.623-1.32 0-2.64.002-3.962 0-9.241-.004-18.613.478-27.897.478 4.62-8.771 13.72-16.022 22.962-19.126 6.043-2.03 23.714-5.8 28.724 2.555.587.979 1.255 2.566 1.255 4.153l14.9-13.057c-.065-.79-.702-1.955-1.057-2.6-1.68-3.044-5.108-5.324-8.368-6.401a34.866 34.866 0 00-2.973-.836c-11.737-2.848-27.89 1.101-41.679 8.658-12.946 7.095-20.043 14.009-26.92 26.814zm149.474 7.961c0 2.562 2.704.925 5.874 1.74.844.217 1.355.385 1.416 1.126-3.592 0-7.185.004-10.778 0-2.205-.002-4.911.41-6.227 1.865-1.19 1.312-.906 2.858-.906 4.663 0 2.528 3.792 3.98 6.499 3.98h8.877c4.577 0 5.762-1.853 6.023-4.588v-5.283c0-1.7-.605-2.891-1.689-3.559-2.568-1.582-5.313-1.218-8.297-1.218-.565 0-.792.719-.792 1.274zm7.587 5.63v3.378s-.041 1.55-2.673 1.55-9.087.037-9.087.037-3.048.16-3.048-1.767c0-1.928.001-1.7.001-1.7s.029-1.509 2.598-1.509c2.571 0 12.209.011 12.209.011zM82.35 43.644c-.82 3.53.894 2.312 3.53 2.662 1.412.188 2.836-.137 3.602 1.318-3.698 0-7.398.008-11.095 0-2.875-.007-6.974.923-6.974 4.14v2.23c0 2.698 3.697 4.139 6.498 4.139h9.194c3.002 0 5.705-1.32 5.705-4.3v-5.89c0-1.678-.733-2.637-1.768-3.318-2.086-1.375-7.648-1.389-8.692-.98zm7.346 6.688v3.377s-.04 1.55-2.672 1.55c-2.631 0-9.087.037-9.087.037s-3.047.161-3.047-1.767v-1.702s.03-1.507 2.599-1.507c2.57 0 12.207.012 12.207.012zm30.379-2.866c0 8.355 15.216 2.07 15.216 6.05 0 1.559-1.016 1.766-3.009 1.754l-8.879-.003c-2.407 0-3.171-.274-3.171 1.752 0 .743.37 1.114 1.11 1.114h11.889c2.587 0 5.547-1.185 5.547-3.98 0-1.691-.016-3.187-1.894-4.147-1.229-.628-2.423-.797-4.287-.79-1.997.008-9.036.634-9.036-1.114 0-1.827-.064-1.657 3.018-1.746l3.799-.164c.897-1.705.22-2.707-.317-2.707-3.251 0-9.986-.776-9.986 3.981z" fill="#393185"/><path fill-rule="evenodd" clip-rule="evenodd" d="M47.477 47.784v9.076c0 1.578 1.47 1.273 2.537 1.273.38 0 .747-.082.792-.478 0-3.026.007-6.054-.006-9.081-.003-.844-.015-1.39.476-1.752.423-.311 1.12-.476 1.9-.479 3.71-.013 4.734-.293 9.038.011 2.17.154 1.908.882 1.907 3.022v4.776c0 4.198-.242 3.981 2.536 3.981.65 0 .951-.875.951-1.593v-8.12c0-1.79-.407-2.98-1.514-3.733-.872-.593-2.633-1.202-4.034-1.202h-9.035c-2.381 0-5.548 1.16-5.548 4.299zm48.98-.478v9.712c0 1.325 1.086 1.115 2.219 1.115 1.58 0 1.11-2.178 1.11-3.821v-4.936c-.002-3.065-.492-3.185 6.657-3.185 6.999 0 6.661.162 6.657 3.184-.002 1.647 0 3.292 0 4.937 0 3.558-.469 3.821 2.219 3.821.74 0 1.109-.372 1.109-1.115v-10.03c0-2.142-3.212-3.503-5.547-3.503h-8.876c-2.547 0-5.548 1.333-5.548 3.821zm45.491-1.433V56.86c0 1.535 1.394 1.273 2.22 1.273 1.076 0 1.268-.838 1.268-1.91V46.51c0-2.1-.817-1.911-2.219-1.911-.767 0-1.269.503-1.269 1.273z" fill="#393185"/><path fill-rule="evenodd" clip-rule="evenodd" d="M141.473 42.69c0 .566.112.866.726 1.34.824.636 3.553.84 3.553-1.5 0-2.188-4.279-2.116-4.279.16zm-101.604-.16c0 2.788 4.28 2.295 4.28.16 0-.481-.243-.962-.54-1.209-1.283-1.068-3.74-.497-3.74 1.049z" fill="#393185"/></svg>