<svg width="111" height="111" viewBox="0 0 111 111" fill="none" xmlns="http://www.w3.org/2000/svg">
<path d="M0 55.5C0 24.8482 24.8482 0 55.5 0C86.1518 0 111 24.8482 111 55.5V111H55.5C24.8482 111 0 86.1518 0 55.5Z" fill="#393185"/>
<g clip-path="url(#clip0_1815_28002)">
<path d="M87.413 31.8729C86.5423 31.1496 85.449 30.75 84.332 30.75H26.6687C25.5423 30.75 24.4436 31.1496 23.5673 31.8772L23.5673 31.8772L23.5655 31.8787C22.4114 32.856 21.75 34.2863 21.75 35.8019V75.1991C21.75 77.9781 23.9502 80.25 26.6687 80.25H84.332H84.622L84.6206 80.2405C87.2046 80.0865 89.25 77.878 89.25 75.1977V35.8018C89.25 34.2604 88.5797 32.8258 87.413 31.8729ZM87.413 31.8729C87.4126 31.8726 87.4123 31.8724 87.412 31.8721L87.2539 32.0658L87.4137 31.8735C87.4134 31.8733 87.4132 31.8731 87.413 31.8729ZM86.2037 33.4028L86.2054 33.4042C86.9155 33.9839 87.3245 34.856 87.3245 35.8021L87.324 75.198C87.324 76.9051 85.9748 78.2825 84.332 78.2825H26.6687C25.0247 78.2825 23.6756 76.9051 23.6756 75.198V35.8021C23.6756 34.873 24.083 33.996 24.789 33.3978C25.3264 32.9514 25.9755 32.7165 26.6687 32.7165L84.3324 32.7165C85.0048 32.7165 85.6684 32.9578 86.2037 33.4028Z" fill="white" stroke="white" stroke-width="0.5"/>
<path d="M54.8103 65.5358L54.8106 65.5362C54.998 65.7282 55.2449 65.8264 55.4937 65.8264H55.4954C55.7435 65.8264 55.9911 65.7284 56.1783 65.5358L87.4905 33.3299C87.8631 32.9468 87.8631 32.328 87.4905 31.9449C87.1142 31.5578 86.5006 31.5578 86.1243 31.9449L55.4943 63.449L24.8643 31.9449C24.4879 31.5578 23.8744 31.5578 23.498 31.9449C23.1255 32.328 23.1255 32.9468 23.498 33.3299L54.8103 65.5358Z" fill="white" stroke="white" stroke-width="0.5"/>
</g>
<defs>
<clipPath id="clip0_1815_28002">
<rect width="67" height="49" fill="white" transform="translate(22 31)"/>
</clipPath>
</defs>
</svg>
