<svg width="555" height="555" viewBox="0 0 555 555" fill="none" xmlns="http://www.w3.org/2000/svg">
<g clip-path="url(#clip0_1815_27998)">
<g clip-path="url(#clip1_1815_27998)">
<path d="M0 55.5C0 24.8482 24.8482 0 55.5 0C86.1518 0 111 24.8482 111 55.5V111H55.5C24.8482 111 0 86.1518 0 55.5Z" fill="#393185"/>
<g clip-path="url(#clip2_1815_27998)">
<path d="M87.413 31.8729C86.5423 31.1496 85.449 30.75 84.332 30.75H26.6687C25.5423 30.75 24.4436 31.1496 23.5673 31.8772L23.5673 31.8772L23.5655 31.8787C22.4114 32.856 21.75 34.2863 21.75 35.8019V75.1991C21.75 77.9781 23.9502 80.25 26.6687 80.25H84.332H84.622L84.6206 80.2405C87.2046 80.0865 89.25 77.878 89.25 75.1977V35.8018C89.25 34.2604 88.5797 32.8258 87.413 31.8729ZM87.413 31.8729C87.4126 31.8726 87.4123 31.8724 87.412 31.8721L87.2539 32.0658L87.4137 31.8735C87.4134 31.8733 87.4132 31.8731 87.413 31.8729ZM86.2037 33.4028L86.2054 33.4042C86.9155 33.9839 87.3245 34.856 87.3245 35.8021L87.324 75.198C87.324 76.9051 85.9748 78.2825 84.332 78.2825H26.6687C25.0247 78.2825 23.6756 76.9051 23.6756 75.198V35.8021C23.6756 34.873 24.083 33.996 24.789 33.3978C25.3264 32.9514 25.9755 32.7165 26.6687 32.7165L84.3324 32.7165C85.0048 32.7165 85.6684 32.9578 86.2037 33.4028Z" fill="white" stroke="white" stroke-width="0.5"/>
<path d="M54.8103 65.5358L54.8106 65.5362C54.998 65.7282 55.2449 65.8264 55.4937 65.8264H55.4954C55.7435 65.8264 55.9911 65.7284 56.1783 65.5358L87.4905 33.3299C87.8631 32.9468 87.8631 32.328 87.4905 31.9449C87.1142 31.5578 86.5006 31.5578 86.1243 31.9449L55.4943 63.449L24.8643 31.9449C24.4879 31.5578 23.8744 31.5578 23.498 31.9449C23.1255 32.328 23.1255 32.9468 23.498 33.3299L54.8103 65.5358Z" fill="white" stroke="white" stroke-width="0.5"/>
</g>
<path d="M111 55.5C111 24.8482 135.848 0 166.5 0C197.152 0 222 24.8482 222 55.5C222 86.1518 197.152 111 166.5 111H111V55.5Z" fill="#393185" fill-opacity="0.2"/>
<path d="M222 70C222 31.3401 253.34 0 292 0H333V111H222V70Z" fill="#393185"/>
<rect width="111" height="111" transform="translate(333)" fill="#393185"/>
<path d="M444 0H555V41C555 79.6599 523.66 111 485 111H444V0Z" fill="#393185"/>
<path d="M0 166.5C0 135.848 24.8482 111 55.5 111C86.1518 111 111 135.848 111 166.5V222H55.5C24.8482 222 0 197.152 0 166.5Z" fill="#393185" fill-opacity="0.2"/>
<path d="M111 111H166.5C197.152 111 222 135.848 222 166.5C222 197.152 197.152 222 166.5 222C135.848 222 111 197.152 111 166.5V111Z" fill="#393185"/>
<path d="M182.817 135.448C182.817 134.552 181.73 134.108 181.103 134.747L168.225 147.876C168.038 148.066 167.935 148.323 167.939 148.59L168.013 154.14C168.017 154.404 168.125 154.657 168.314 154.842L171.99 158.432C172.382 158.815 173.007 158.812 173.395 158.425L182.523 149.328C182.711 149.141 182.817 148.886 182.817 148.62V135.448Z" fill="white"/>
<path d="M174.973 161.457C174.603 161.068 174.606 160.457 174.98 160.072L183.967 150.805C184.156 150.611 184.415 150.502 184.685 150.502H197.529C198.415 150.502 198.863 151.569 198.243 152.202L185.576 165.117C185.388 165.308 185.131 165.416 184.862 165.416H179.163C178.889 165.416 178.627 165.304 178.438 165.105L174.973 161.457Z" fill="white"/>
<path d="M151.181 197.452C151.181 198.348 152.267 198.792 152.894 198.153L165.772 185.024C165.959 184.834 166.062 184.577 166.058 184.31L165.984 178.76C165.98 178.496 165.872 178.243 165.683 178.058L162.007 174.468C161.615 174.085 160.99 174.088 160.602 174.475L151.475 183.572C151.286 183.759 151.181 184.014 151.181 184.28V197.452Z" fill="white"/>
<path d="M159.023 171.444C159.392 171.833 159.389 172.444 159.016 172.829L150.028 182.095C149.84 182.29 149.581 182.399 149.311 182.399H136.467C135.58 182.399 135.132 181.332 135.753 180.699L148.419 167.784C148.607 167.592 148.864 167.484 149.133 167.484H154.832C155.107 167.484 155.369 167.597 155.557 167.796L159.023 171.444Z" fill="white"/>
<path d="M197.596 182.486C198.485 182.486 198.932 181.413 198.306 180.781L185.328 167.7C185.137 167.508 184.876 167.401 184.604 167.405L179.157 167.479C178.887 167.483 178.631 167.595 178.445 167.79L174.89 171.531C174.52 171.92 174.523 172.531 174.897 172.916L183.884 182.182C184.072 182.376 184.331 182.486 184.602 182.486H197.596Z" fill="white"/>
<path d="M171.905 174.553C172.297 174.171 172.922 174.174 173.31 174.561L182.438 183.658C182.626 183.846 182.732 184.101 182.732 184.366V197.386C182.732 198.279 181.651 198.725 181.022 198.091L168.309 185.278C168.123 185.091 168.019 184.838 168.019 184.574V178.769C168.019 178.499 168.128 178.241 168.32 178.053L171.905 174.553Z" fill="white"/>
<path d="M136.401 150.415C135.512 150.415 135.065 151.488 135.691 152.119L148.669 165.2C148.86 165.393 149.121 165.5 149.393 165.496L154.84 165.421C155.11 165.418 155.366 165.306 155.552 165.11L159.107 161.37C159.477 160.981 159.474 160.37 159.1 159.985L150.113 150.719C149.925 150.524 149.666 150.415 149.395 150.415H136.401Z" fill="white"/>
<path d="M162.092 158.348C161.701 158.73 161.075 158.727 160.687 158.341L151.56 149.243C151.371 149.055 151.266 148.801 151.266 148.535V135.515C151.266 134.622 152.347 134.177 152.976 134.81L165.688 147.623C165.874 147.81 165.978 148.064 165.978 148.327V154.133C165.978 154.402 165.87 154.66 165.677 154.848L162.092 158.348Z" fill="white"/>
<path d="M222 166.5C222 135.848 246.848 111 277.5 111C308.152 111 333 135.848 333 166.5V222H277.5C246.848 222 222 197.152 222 166.5Z" fill="#393185" fill-opacity="0.2"/>
<path d="M333 166.5C333 135.848 357.848 111 388.5 111C419.152 111 444 135.848 444 166.5C444 197.152 419.152 222 388.5 222H333V166.5Z" fill="#393185"/>
<path d="M444 166.5C444 135.848 468.848 111 499.5 111C530.152 111 555 135.848 555 166.5C555 197.152 530.152 222 499.5 222H444V166.5Z" fill="#393185"/>
<g clip-path="url(#clip3_1815_27998)">
<path d="M524.496 195.859H476.527C476.191 195.859 475.919 195.584 475.919 195.244V181.017C475.919 174.601 481.076 169.381 487.415 169.381H513.608C519.947 169.381 525.105 174.601 525.105 181.017V195.243C525.105 195.583 524.833 195.859 524.496 195.859L524.496 195.859ZM477.136 194.627H523.888L523.888 181.017C523.888 175.28 519.277 170.613 513.609 170.613H487.416C481.748 170.613 477.137 175.28 477.137 181.017L477.136 194.627Z" fill="white" stroke="white"/>
<path d="M500.511 162.748C493.758 162.748 488.262 157.186 488.262 150.35C488.262 143.515 493.757 137.953 500.511 137.953C507.266 137.953 512.761 143.515 512.761 150.351C512.761 157.187 507.266 162.748 500.511 162.748ZM500.511 139.185C494.428 139.185 489.48 144.194 489.48 150.351C489.48 156.507 494.428 161.516 500.511 161.516C506.595 161.516 511.543 156.507 511.543 150.351C511.543 144.194 506.595 139.185 500.511 139.185Z" fill="white" stroke="white"/>
<path d="M514.233 195.856C513.896 195.856 513.624 195.58 513.624 195.24L513.624 182.62C513.624 182.28 513.896 182.005 514.232 182.005C514.569 182.005 514.841 182.28 514.841 182.62V195.24C514.841 195.58 514.569 195.856 514.233 195.856H514.233Z" fill="white" stroke="white"/>
<path d="M486.791 195.856C486.455 195.856 486.183 195.58 486.183 195.24L486.183 182.62C486.183 182.28 486.455 182.005 486.791 182.005C487.128 182.005 487.399 182.28 487.399 182.62V195.24C487.4 195.58 487.128 195.856 486.791 195.856Z" fill="white" stroke="white"/>
</g>
<path d="M0 277.5C0 246.848 24.8482 222 55.5 222C86.1518 222 111 246.848 111 277.5V333H55.5C24.8482 333 0 308.152 0 277.5Z" fill="#393185"/>
<g clip-path="url(#clip4_1815_27998)">
<path d="M47.4566 308.123C42.257 308.123 37.3691 306.086 33.6921 302.387C26.1026 294.752 26.1026 282.328 33.6921 274.693L59.3042 248.927C64.5104 243.692 72.9818 243.69 78.1878 248.927C83.3935 254.164 83.3935 262.687 78.1878 267.924L55.6009 290.646C52.5992 293.666 47.7164 293.666 44.7147 290.646C41.714 287.627 41.714 282.714 44.7147 279.694L63.302 260.995C63.5625 260.733 63.9853 260.733 64.2459 260.995C64.5065 261.258 64.5065 261.683 64.2459 261.945L45.6586 280.644C43.1785 283.139 43.1785 287.201 45.6586 289.697C48.1387 292.192 52.1753 292.193 54.6569 289.697L77.2439 266.974C81.9295 262.26 81.9295 254.591 77.2439 249.877C72.5582 245.163 64.9339 245.166 60.2485 249.877L34.6364 275.643C27.5675 282.755 27.5675 294.327 34.6364 301.437C41.7062 308.549 53.2076 308.549 60.277 301.437L81.8907 279.694C82.1512 279.432 82.574 279.432 82.8346 279.694C83.0951 279.956 83.0951 280.381 82.8346 280.643L61.2209 302.387C57.5441 306.086 52.656 308.123 47.4565 308.123L47.4566 308.123Z" fill="white"/>
</g>
<path d="M111 277.5C111 246.848 135.848 222 166.5 222C197.152 222 222 246.848 222 277.5C222 308.152 197.152 333 166.5 333H111V277.5Z" fill="#393185" fill-opacity="0.2"/>
<path d="M222 277.5C222 246.848 246.848 222 277.5 222H333V333H277.5C246.848 333 222 308.152 222 277.5Z" fill="#393185" fill-opacity="0.2"/>
<path d="M333 222H444V263C444 301.66 412.66 333 374 333H333V222Z" fill="#393185" fill-opacity="0.2"/>
<path d="M444 277.5C444 246.848 468.848 222 499.5 222C530.152 222 555 246.848 555 277.5C555 308.152 530.152 333 499.5 333H444V277.5Z" fill="#393185"/>
<path d="M0 388.5C0 357.848 24.8482 333 55.5 333C86.1518 333 111 357.848 111 388.5V444H55.5C24.8482 444 0 419.152 0 388.5Z" fill="#393185" fill-opacity="0.2"/>
<path d="M111 333H166.5C197.152 333 222 357.848 222 388.5C222 419.152 197.152 444 166.5 444C135.848 444 111 419.152 111 388.5V333Z" fill="#393185"/>
<path d="M222 388.5C222 357.848 246.848 333 277.5 333C308.152 333 333 357.848 333 388.5C333 419.152 308.152 444 277.5 444H222V388.5Z" fill="#393185" fill-opacity="0.2"/>
<path d="M293.817 357.448C293.817 356.552 292.73 356.108 292.103 356.747L279.225 369.876C279.038 370.066 278.935 370.323 278.939 370.59L279.013 376.14C279.017 376.404 279.125 376.657 279.314 376.842L282.99 380.432C283.382 380.815 284.007 380.812 284.395 380.425L293.523 371.328C293.711 371.141 293.817 370.886 293.817 370.62V357.448Z" fill="#393185"/>
<path d="M285.973 383.457C285.603 383.068 285.606 382.457 285.98 382.072L294.967 372.805C295.156 372.611 295.415 372.502 295.685 372.502H308.529C309.415 372.502 309.863 373.569 309.243 374.202L296.576 387.117C296.388 387.308 296.131 387.416 295.862 387.416H290.163C289.889 387.416 289.627 387.304 289.438 387.105L285.973 383.457Z" fill="#393185"/>
<path d="M262.181 419.452C262.181 420.348 263.267 420.792 263.894 420.153L276.772 407.024C276.959 406.834 277.062 406.577 277.058 406.31L276.984 400.76C276.98 400.496 276.872 400.243 276.683 400.058L273.007 396.468C272.615 396.085 271.99 396.088 271.602 396.475L262.475 405.572C262.286 405.759 262.181 406.014 262.181 406.28V419.452Z" fill="#393185"/>
<path d="M270.023 393.444C270.392 393.833 270.389 394.444 270.016 394.829L261.028 404.095C260.84 404.29 260.581 404.399 260.311 404.399H247.467C246.58 404.399 246.132 403.332 246.753 402.699L259.419 389.784C259.607 389.592 259.864 389.484 260.133 389.484H265.832C266.107 389.484 266.369 389.597 266.557 389.796L270.023 393.444Z" fill="#393185"/>
<path d="M308.596 404.486C309.485 404.486 309.932 403.413 309.306 402.781L296.328 389.7C296.137 389.508 295.876 389.401 295.604 389.405L290.157 389.479C289.887 389.483 289.631 389.595 289.445 389.79L285.89 393.531C285.52 393.92 285.523 394.531 285.897 394.916L294.884 404.182C295.072 404.376 295.331 404.486 295.602 404.486H308.596Z" fill="#393185"/>
<path d="M282.905 396.553C283.297 396.171 283.922 396.174 284.31 396.561L293.438 405.658C293.626 405.846 293.732 406.101 293.732 406.366V419.386C293.732 420.279 292.651 420.725 292.022 420.091L279.309 407.278C279.123 407.091 279.019 406.838 279.019 406.574V400.769C279.019 400.499 279.128 400.241 279.32 400.053L282.905 396.553Z" fill="#393185"/>
<path d="M247.401 372.415C246.512 372.415 246.065 373.488 246.691 374.119L259.669 387.2C259.86 387.393 260.121 387.5 260.393 387.496L265.84 387.421C266.11 387.418 266.366 387.306 266.552 387.11L270.107 383.37C270.477 382.981 270.474 382.37 270.1 381.985L261.113 372.719C260.925 372.524 260.666 372.415 260.395 372.415H247.401Z" fill="#393185"/>
<path d="M273.092 380.348C272.701 380.73 272.075 380.727 271.687 380.341L262.56 371.243C262.371 371.055 262.266 370.801 262.266 370.535V357.515C262.266 356.622 263.347 356.177 263.976 356.81L276.688 369.623C276.874 369.81 276.978 370.064 276.978 370.327V376.133C276.978 376.402 276.87 376.66 276.677 376.848L273.092 380.348Z" fill="#393185"/>
<path d="M333 388.5C333 357.848 357.848 333 388.5 333C419.152 333 444 357.848 444 388.5V444H388.5C357.848 444 333 419.152 333 388.5Z" fill="#393185"/>
<path d="M444 388.5C444 357.848 468.848 333 499.5 333C530.152 333 555 357.848 555 388.5V444H499.5C468.848 444 444 419.152 444 388.5Z" fill="#393185" fill-opacity="0.2"/>
<path d="M0 499.5C0 468.848 24.8482 444 55.5 444H111V555H55.5C24.8482 555 0 530.152 0 499.5Z" fill="#393185"/>
<rect width="111" height="111" transform="translate(111 444)" fill="#393185"/>
<path d="M222 444H333V485C333 523.66 301.66 555 263 555H222V444Z" fill="#393185"/>
<path d="M333 499.5C333 468.848 357.848 444 388.5 444H444V499.5C444 530.152 419.152 555 388.5 555C357.848 555 333 530.152 333 499.5Z" fill="#393185" fill-opacity="0.2"/>
<path d="M444 499.5C444 468.848 468.848 444 499.5 444H555V499.5C555 530.152 530.152 555 499.5 555C468.848 555 444 530.152 444 499.5Z" fill="#393185"/>
<g clip-path="url(#clip5_1815_27998)">
<path d="M494.519 529H473.205C471.84 529 470.729 527.889 470.729 526.524V505.21C470.729 503.845 471.84 502.734 473.205 502.734H494.519C495.884 502.734 496.995 503.845 496.995 505.21V526.524C496.995 527.889 495.884 529 494.519 529ZM473.205 504.012C472.544 504.012 472.006 504.55 472.006 505.211V526.524C472.006 527.186 472.544 527.724 473.205 527.724H494.519C495.18 527.724 495.718 527.186 495.718 526.524V505.211C495.718 504.55 495.18 504.012 494.519 504.012H473.205Z" fill="white"/>
<path d="M527.525 529H506.21C504.845 529 503.734 527.889 503.734 526.524V505.21C503.734 503.845 504.845 502.734 506.21 502.734H527.524C528.889 502.734 530 503.845 530 505.21V526.524C530 527.889 528.889 529 527.524 529H527.525ZM506.21 504.012C505.549 504.012 505.01 504.55 505.01 505.211V526.524C505.01 527.186 505.549 527.724 506.21 527.724H527.524C528.185 527.724 528.723 527.186 528.723 526.524V505.211C528.723 504.55 528.185 504.012 527.524 504.012H506.21Z" fill="white"/>
<path d="M527.525 495.266H506.21C504.845 495.266 503.734 494.155 503.734 492.79V471.476C503.734 470.111 504.845 469 506.21 469H527.524C528.889 469 530 470.111 530 471.476V492.79C530 494.155 528.889 495.266 527.524 495.266H527.525ZM506.21 470.277C505.549 470.277 505.01 470.815 505.01 471.476V492.79C505.01 493.451 505.549 493.989 506.21 493.989H527.524C528.184 493.989 528.723 493.451 528.723 492.79L528.723 471.476C528.723 470.815 528.185 470.277 527.524 470.277H506.21Z" fill="white"/>
<path d="M493.79 495.266H472.476C471.111 495.266 470 494.155 470 492.79V471.476C470 470.111 471.111 469 472.476 469H493.79C495.155 469 496.266 470.111 496.266 471.476V492.79C496.266 494.155 495.155 495.266 493.79 495.266ZM472.476 470.277C471.815 470.277 471.277 470.815 471.277 471.476V492.79C471.277 493.451 471.815 493.989 472.476 493.989H493.79C494.451 493.989 494.989 493.451 494.989 492.79V471.476C494.989 470.815 494.451 470.277 493.79 470.277H472.476Z" fill="white"/>
<path d="M521.787 516.506H511.947C511.594 516.506 511.309 516.22 511.309 515.868C511.309 515.515 511.595 515.229 511.947 515.229H521.787C522.14 515.229 522.425 515.515 522.425 515.868C522.425 516.22 522.14 516.506 521.787 516.506Z" fill="white"/>
<path d="M488.782 516.506H478.942C478.589 516.506 478.303 516.22 478.303 515.868C478.303 515.515 478.589 515.229 478.942 515.229H488.782C489.134 515.229 489.42 515.515 489.42 515.868C489.42 516.22 489.134 516.506 488.782 516.506Z" fill="white"/>
<path d="M521.787 482.771H511.947C511.594 482.771 511.309 482.486 511.309 482.133C511.309 481.78 511.595 481.495 511.947 481.495H521.787C522.14 481.495 522.425 481.781 522.425 482.133C522.425 482.486 522.14 482.771 521.787 482.771Z" fill="white"/>
<path d="M516.868 487.691C516.515 487.691 516.23 487.405 516.23 487.053L516.229 477.213C516.229 476.86 516.515 476.575 516.867 476.575C517.22 476.575 517.505 476.861 517.505 477.213V487.052C517.506 487.405 517.221 487.691 516.868 487.691V487.691Z" fill="white"/>
<path d="M479.654 486.831C479.506 486.831 479.358 486.781 479.238 486.678C478.97 486.449 478.939 486.046 479.168 485.778L486.126 477.656C486.356 477.388 486.761 477.359 487.026 477.587C487.295 477.816 487.326 478.219 487.096 478.487L480.139 486.608C480.013 486.756 479.833 486.831 479.654 486.831L479.654 486.831Z" fill="white"/>
<path d="M486.611 486.831C486.431 486.831 486.252 486.756 486.126 486.608L479.168 478.487C478.939 478.219 478.97 477.816 479.238 477.587C479.505 477.359 479.91 477.388 480.138 477.656L487.096 485.778C487.325 486.046 487.294 486.448 487.026 486.678C486.906 486.781 486.758 486.831 486.611 486.831L486.611 486.831Z" fill="white"/>
<path d="M483.866 511.934C483.7 511.934 483.534 511.87 483.406 511.755C483.342 511.692 483.305 511.615 483.266 511.538C483.24 511.461 483.215 511.385 483.215 511.296C483.215 511.219 483.24 511.13 483.266 511.053C483.304 510.976 483.342 510.913 483.406 510.848C483.471 510.785 483.534 510.746 483.61 510.708C483.776 510.645 483.943 510.645 484.109 510.708C484.185 510.746 484.249 510.785 484.312 510.848C484.377 510.913 484.415 510.976 484.453 511.053C484.48 511.13 484.504 511.219 484.504 511.296C484.504 511.385 484.479 511.461 484.453 511.538C484.415 511.615 484.377 511.692 484.312 511.755C484.185 511.87 484.031 511.934 483.866 511.934Z" fill="white"/>
<path d="M483.866 521.074C483.7 521.074 483.534 521.01 483.406 520.883C483.342 520.832 483.305 520.755 483.266 520.678C483.24 520.601 483.215 520.513 483.215 520.436C483.215 520.346 483.24 520.27 483.266 520.193C483.304 520.116 483.342 520.04 483.406 519.988C483.649 519.746 484.07 519.746 484.312 519.988C484.377 520.039 484.414 520.116 484.453 520.193C484.479 520.27 484.504 520.346 484.504 520.436C484.504 520.513 484.479 520.601 484.453 520.678C484.414 520.755 484.377 520.832 484.312 520.883C484.185 521.01 484.031 521.074 483.866 521.074Z" fill="white"/>
<path d="M483.585 511.934C483.419 511.934 483.253 511.87 483.137 511.755C483.073 511.691 483.022 511.628 482.997 511.538C482.959 511.461 482.946 511.385 482.946 511.296C482.946 511.219 482.959 511.13 482.997 511.053C483.022 510.976 483.073 510.913 483.137 510.848C483.367 510.606 483.789 510.606 484.031 510.848C484.145 510.964 484.223 511.129 484.223 511.295C484.223 511.384 484.196 511.461 484.172 511.538C484.133 511.628 484.094 511.691 484.031 511.754C483.917 511.87 483.75 511.934 483.585 511.934L483.585 511.934Z" fill="white"/>
</g>
<path d="M269.176 267.976C269.176 266.457 268.802 265.097 268.054 263.896C267.329 262.672 266.331 261.697 265.062 260.972C263.815 260.247 262.399 259.884 260.812 259.884C259.973 259.884 259.18 260.02 258.432 260.292C257.684 260.564 257.027 260.949 256.46 261.448C255.916 261.924 255.474 262.502 255.134 263.182C255.157 261.437 255.395 259.952 255.848 258.728C256.324 257.504 256.981 256.575 257.82 255.94C258.681 255.283 259.667 254.954 260.778 254.954C261.889 254.954 262.897 255.237 263.804 255.804C264.733 256.348 265.459 257.096 265.98 258.048L268.19 255.736C267.397 254.467 266.354 253.481 265.062 252.778C263.793 252.053 262.387 251.69 260.846 251.69C258.987 251.69 257.367 252.211 255.984 253.254C254.601 254.297 253.525 255.849 252.754 257.912C252.006 259.975 251.632 262.547 251.632 265.63C251.632 267.851 251.995 269.767 252.72 271.376C253.468 272.985 254.499 274.221 255.814 275.082C257.151 275.921 258.704 276.34 260.472 276.34C262.104 276.34 263.577 275.966 264.892 275.218C266.229 274.47 267.272 273.461 268.02 272.192C268.791 270.923 269.176 269.517 269.176 267.976ZM260.472 273.144C259.565 273.144 258.715 272.906 257.922 272.43C257.151 271.954 256.528 271.331 256.052 270.56C255.576 269.767 255.338 268.905 255.338 267.976C255.338 267.047 255.565 266.197 256.018 265.426C256.494 264.655 257.129 264.043 257.922 263.59C258.715 263.114 259.565 262.876 260.472 262.876C261.424 262.876 262.285 263.114 263.056 263.59C263.827 264.043 264.439 264.655 264.892 265.426C265.368 266.197 265.606 267.047 265.606 267.976C265.606 268.905 265.368 269.767 264.892 270.56C264.439 271.353 263.815 271.988 263.022 272.464C262.251 272.917 261.401 273.144 260.472 273.144ZM282.484 276.34C280.784 276.295 279.288 275.898 277.996 275.15C276.704 274.402 275.628 273.427 274.766 272.226C273.905 271.002 273.248 269.687 272.794 268.282C272.364 266.854 272.148 265.46 272.148 264.1C272.148 262.649 272.386 261.199 272.862 259.748C273.338 258.297 274.03 256.983 274.936 255.804C275.843 254.603 276.931 253.651 278.2 252.948C279.47 252.223 280.898 251.86 282.484 251.86C284.184 251.86 285.669 252.245 286.938 253.016C288.23 253.787 289.307 254.784 290.168 256.008C291.03 257.232 291.676 258.558 292.106 259.986C292.56 261.414 292.786 262.785 292.786 264.1C292.786 265.573 292.548 267.035 292.072 268.486C291.596 269.914 290.905 271.217 289.998 272.396C289.092 273.575 288.004 274.527 286.734 275.252C285.488 275.955 284.071 276.317 282.484 276.34ZM276.024 264.1C276.07 265.143 276.217 266.185 276.466 267.228C276.738 268.248 277.146 269.189 277.69 270.05C278.234 270.911 278.903 271.603 279.696 272.124C280.49 272.645 281.419 272.906 282.484 272.906C283.595 272.906 284.547 272.634 285.34 272.09C286.156 271.523 286.825 270.798 287.346 269.914C287.868 269.007 288.253 268.044 288.502 267.024C288.774 266.004 288.91 265.029 288.91 264.1C288.91 263.057 288.763 262.026 288.468 261.006C288.196 259.963 287.788 259.011 287.244 258.15C286.7 257.289 286.032 256.597 285.238 256.076C284.445 255.555 283.527 255.294 282.484 255.294C281.374 255.294 280.41 255.577 279.594 256.144C278.778 256.688 278.11 257.413 277.588 258.32C277.067 259.204 276.67 260.156 276.398 261.176C276.149 262.196 276.024 263.171 276.024 264.1ZM306.873 262.434V265.426H303.099V269.54H299.733V265.426H295.959V262.434H299.733V258.32H303.099V262.434H306.873Z" fill="#393185"/>
<path d="M250.272 311.936V309.024H250.416C250.661 309.024 250.885 308.949 251.088 308.8C251.291 308.651 251.472 308.389 251.632 308.016C251.792 307.643 251.92 307.131 252.016 306.48C252.112 305.819 252.176 304.987 252.208 303.984L252.288 301.664H257.712V309.024H258.832V311.936H257.856V310H251.232V311.936H250.272ZM252.064 309.024H256.624V302.64H253.264L253.216 304.08C253.184 305.072 253.115 305.904 253.008 306.576C252.912 307.237 252.784 307.765 252.624 308.16C252.475 308.544 252.288 308.832 252.064 309.024ZM264.033 310.16C263.436 310.16 262.881 310.048 262.369 309.824C261.868 309.589 261.431 309.275 261.057 308.88C260.695 308.475 260.412 308.016 260.209 307.504C260.007 306.981 259.905 306.432 259.905 305.856C259.905 305.259 260.007 304.704 260.209 304.192C260.412 303.669 260.7 303.211 261.073 302.816C261.447 302.411 261.884 302.096 262.385 301.872C262.897 301.637 263.452 301.52 264.049 301.52C264.647 301.52 265.196 301.637 265.697 301.872C266.199 302.096 266.636 302.411 267.009 302.816C267.383 303.211 267.671 303.669 267.873 304.192C268.076 304.704 268.177 305.259 268.177 305.856C268.177 306.432 268.076 306.981 267.873 307.504C267.671 308.016 267.383 308.475 267.009 308.88C266.647 309.275 266.209 309.589 265.697 309.824C265.196 310.048 264.641 310.16 264.033 310.16ZM261.009 305.872C261.009 306.491 261.143 307.056 261.409 307.568C261.687 308.069 262.055 308.469 262.513 308.768C262.972 309.056 263.479 309.2 264.033 309.2C264.588 309.2 265.095 309.051 265.553 308.752C266.012 308.453 266.38 308.048 266.657 307.536C266.935 307.013 267.073 306.448 267.073 305.84C267.073 305.221 266.935 304.656 266.657 304.144C266.38 303.632 266.012 303.227 265.553 302.928C265.095 302.629 264.588 302.48 264.033 302.48C263.479 302.48 262.972 302.635 262.513 302.944C262.065 303.253 261.703 303.664 261.425 304.176C261.148 304.677 261.009 305.243 261.009 305.872ZM269.981 310V301.664H274.141C274.61 301.664 275.005 301.765 275.325 301.968C275.645 302.16 275.885 302.411 276.045 302.72C276.216 303.029 276.301 303.36 276.301 303.712C276.301 304.16 276.194 304.565 275.981 304.928C275.768 305.28 275.458 305.547 275.053 305.728C275.533 305.867 275.922 306.117 276.221 306.48C276.52 306.843 276.669 307.28 276.669 307.792C276.669 308.24 276.557 308.629 276.333 308.96C276.12 309.291 275.821 309.547 275.437 309.728C275.064 309.909 274.632 310 274.141 310H269.981ZM271.021 309.216H274.109C274.386 309.216 274.637 309.147 274.861 309.008C275.096 308.859 275.277 308.667 275.405 308.432C275.544 308.197 275.613 307.952 275.613 307.696C275.613 307.419 275.549 307.168 275.421 306.944C275.293 306.709 275.122 306.523 274.909 306.384C274.696 306.245 274.45 306.176 274.173 306.176H271.021V309.216ZM271.021 305.424H273.853C274.13 305.424 274.376 305.349 274.589 305.2C274.802 305.051 274.968 304.859 275.085 304.624C275.202 304.389 275.261 304.144 275.261 303.888C275.261 303.504 275.133 303.168 274.877 302.88C274.632 302.592 274.312 302.448 273.917 302.448H271.021V305.424ZM282.111 310.16C281.514 310.16 280.959 310.048 280.447 309.824C279.946 309.589 279.509 309.275 279.135 308.88C278.773 308.475 278.49 308.016 278.287 307.504C278.085 306.981 277.983 306.432 277.983 305.856C277.983 305.259 278.085 304.704 278.287 304.192C278.49 303.669 278.778 303.211 279.151 302.816C279.525 302.411 279.962 302.096 280.463 301.872C280.975 301.637 281.53 301.52 282.127 301.52C282.725 301.52 283.274 301.637 283.775 301.872C284.277 302.096 284.714 302.411 285.087 302.816C285.461 303.211 285.749 303.669 285.951 304.192C286.154 304.704 286.255 305.259 286.255 305.856C286.255 306.432 286.154 306.981 285.951 307.504C285.749 308.016 285.461 308.475 285.087 308.88C284.725 309.275 284.287 309.589 283.775 309.824C283.274 310.048 282.719 310.16 282.111 310.16ZM279.087 305.872C279.087 306.491 279.221 307.056 279.487 307.568C279.765 308.069 280.133 308.469 280.591 308.768C281.05 309.056 281.557 309.2 282.111 309.2C282.666 309.2 283.173 309.051 283.631 308.752C284.09 308.453 284.458 308.048 284.735 307.536C285.013 307.013 285.151 306.448 285.151 305.84C285.151 305.221 285.013 304.656 284.735 304.144C284.458 303.632 284.09 303.227 283.631 302.928C283.173 302.629 282.666 302.48 282.111 302.48C281.557 302.48 281.05 302.635 280.591 302.944C280.143 303.253 279.781 303.664 279.503 304.176C279.226 304.677 279.087 305.243 279.087 305.872ZM287.275 310.048V309.056C287.563 309.056 287.819 308.981 288.043 308.832C288.267 308.672 288.464 308.405 288.635 308.032C288.816 307.659 288.96 307.147 289.067 306.496C289.174 305.835 289.243 304.997 289.275 303.984L289.371 301.664H294.779V310H293.691V302.64H290.331L290.299 304.08C290.256 305.232 290.166 306.197 290.027 306.976C289.888 307.744 289.691 308.352 289.435 308.8C289.19 309.248 288.886 309.568 288.523 309.76C288.16 309.952 287.744 310.048 287.275 310.048ZM297.168 310V301.664H298.256V304.608H300.416C301.366 304.608 302.08 304.853 302.56 305.344C303.051 305.824 303.296 306.459 303.296 307.248C303.296 307.76 303.19 308.224 302.976 308.64C302.763 309.056 302.448 309.387 302.032 309.632C301.627 309.877 301.115 310 300.496 310H297.168ZM298.256 309.136H300.352C300.79 309.136 301.142 309.051 301.408 308.88C301.675 308.699 301.872 308.469 302 308.192C302.128 307.904 302.192 307.595 302.192 307.264C302.192 306.944 302.134 306.651 302.016 306.384C301.91 306.107 301.718 305.888 301.44 305.728C301.174 305.557 300.8 305.472 300.32 305.472H298.256V309.136ZM304.981 310V301.664H306.069V305.248H310.837V301.664H311.925V310H310.837V306.224H306.069V310H304.981ZM314.309 310V301.664H315.397V304.608H317.285C318.234 304.608 318.949 304.853 319.429 305.344C319.92 305.824 320.165 306.459 320.165 307.248C320.165 307.76 320.058 308.224 319.845 308.64C319.632 309.056 319.317 309.387 318.901 309.632C318.496 309.877 317.984 310 317.365 310H314.309ZM315.397 309.136H317.221C317.658 309.136 318.01 309.051 318.277 308.88C318.544 308.699 318.741 308.469 318.869 308.192C318.997 307.904 319.061 307.595 319.061 307.264C319.061 306.944 319.002 306.651 318.885 306.384C318.778 306.107 318.586 305.888 318.309 305.728C318.042 305.557 317.669 305.472 317.189 305.472H315.397V309.136ZM321.685 310V301.68H322.773V310H321.685ZM325.425 301.664L327.873 304.928L328.001 305.168L328.129 304.928L330.561 301.664H331.793L328.625 305.856L331.793 310H330.561L328.129 306.752L328.001 306.528L327.873 306.752L325.441 310H324.209L327.361 305.856L324.209 301.664H325.425ZM337.293 310V301.664H338.381V305.232H339.629L342.429 301.664H343.677L340.493 305.712L344.077 310H342.797L339.629 306.24H338.381V310H337.293ZM344.822 310.048V309.056C345.11 309.056 345.366 308.981 345.59 308.832C345.814 308.672 346.011 308.405 346.182 308.032C346.363 307.659 346.507 307.147 346.614 306.496C346.721 305.835 346.79 304.997 346.822 303.984L346.918 301.664H352.326V310H351.238V302.64H347.878L347.846 304.08C347.803 305.232 347.713 306.197 347.574 306.976C347.435 307.744 347.238 308.352 346.982 308.8C346.737 309.248 346.433 309.568 346.07 309.76C345.707 309.952 345.291 310.048 344.822 310.048ZM354.715 310V301.68H355.803V308.528L360.875 301.664H361.851V310H360.763V303.264L355.771 310H354.715ZM367.831 310.16C367.234 310.16 366.679 310.048 366.167 309.824C365.655 309.589 365.213 309.275 364.839 308.88C364.466 308.475 364.173 308.011 363.959 307.488C363.757 306.965 363.655 306.405 363.655 305.808C363.655 305.029 363.831 304.315 364.183 303.664C364.546 303.013 365.042 302.496 365.671 302.112C366.301 301.717 367.015 301.52 367.815 301.52C368.637 301.52 369.351 301.717 369.959 302.112C370.578 302.507 371.063 303.029 371.415 303.68C371.767 304.32 371.943 305.024 371.943 305.792C371.943 305.877 371.943 305.963 371.943 306.048C371.943 306.123 371.938 306.181 371.927 306.224H364.791C364.845 306.821 365.01 307.355 365.287 307.824C365.575 308.283 365.943 308.651 366.391 308.928C366.85 309.195 367.346 309.328 367.879 309.328C368.423 309.328 368.935 309.189 369.415 308.912C369.906 308.635 370.247 308.272 370.439 307.824L371.383 308.08C371.213 308.475 370.951 308.832 370.599 309.152C370.247 309.472 369.831 309.723 369.351 309.904C368.882 310.075 368.375 310.16 367.831 310.16ZM364.759 305.44H370.919C370.877 304.832 370.711 304.299 370.423 303.84C370.146 303.381 369.778 303.024 369.319 302.768C368.871 302.501 368.375 302.368 367.831 302.368C367.287 302.368 366.791 302.501 366.343 302.768C365.895 303.024 365.527 303.387 365.239 303.856C364.962 304.315 364.802 304.843 364.759 305.44ZM373.606 310V301.664H374.694V305.248H379.462V301.664H380.55V310H379.462V306.224H374.694V310H373.606ZM385.03 310V302.64H382.054V301.664H389.094V302.64H386.118V310H385.03ZM394.127 310.16C393.53 310.16 392.975 310.048 392.463 309.824C391.962 309.589 391.524 309.275 391.151 308.88C390.788 308.475 390.506 308.016 390.303 307.504C390.1 306.981 389.999 306.432 389.999 305.856C389.999 305.259 390.1 304.704 390.303 304.192C390.506 303.669 390.794 303.211 391.167 302.816C391.54 302.411 391.978 302.096 392.479 301.872C392.991 301.637 393.546 301.52 394.143 301.52C394.74 301.52 395.29 301.637 395.791 301.872C396.292 302.096 396.73 302.411 397.103 302.816C397.476 303.211 397.764 303.669 397.967 304.192C398.17 304.704 398.271 305.259 398.271 305.856C398.271 306.432 398.17 306.981 397.967 307.504C397.764 308.016 397.476 308.475 397.103 308.88C396.74 309.275 396.303 309.589 395.791 309.824C395.29 310.048 394.735 310.16 394.127 310.16ZM391.103 305.872C391.103 306.491 391.236 307.056 391.503 307.568C391.78 308.069 392.148 308.469 392.607 308.768C393.066 309.056 393.572 309.2 394.127 309.2C394.682 309.2 395.188 309.051 395.647 308.752C396.106 308.453 396.474 308.048 396.751 307.536C397.028 307.013 397.167 306.448 397.167 305.84C397.167 305.221 397.028 304.656 396.751 304.144C396.474 303.632 396.106 303.227 395.647 302.928C395.188 302.629 394.682 302.48 394.127 302.48C393.572 302.48 393.066 302.635 392.607 302.944C392.159 303.253 391.796 303.664 391.519 304.176C391.242 304.677 391.103 305.243 391.103 305.872ZM400.075 310V301.664H404.235C404.704 301.664 405.099 301.765 405.419 301.968C405.739 302.16 405.979 302.411 406.139 302.72C406.309 303.029 406.395 303.36 406.395 303.712C406.395 304.16 406.288 304.565 406.075 304.928C405.861 305.28 405.552 305.547 405.147 305.728C405.627 305.867 406.016 306.117 406.315 306.48C406.613 306.843 406.763 307.28 406.763 307.792C406.763 308.24 406.651 308.629 406.427 308.96C406.213 309.291 405.915 309.547 405.531 309.728C405.157 309.909 404.725 310 404.235 310H400.075ZM401.115 309.216H404.203C404.48 309.216 404.731 309.147 404.955 309.008C405.189 308.859 405.371 308.667 405.499 308.432C405.637 308.197 405.707 307.952 405.707 307.696C405.707 307.419 405.643 307.168 405.515 306.944C405.387 306.709 405.216 306.523 405.003 306.384C404.789 306.245 404.544 306.176 404.267 306.176H401.115V309.216ZM401.115 305.424H403.947C404.224 305.424 404.469 305.349 404.683 305.2C404.896 305.051 405.061 304.859 405.179 304.624C405.296 304.389 405.355 304.144 405.355 303.888C405.355 303.504 405.227 303.168 404.971 302.88C404.725 302.592 404.405 302.448 404.011 302.448H401.115V305.424Z" fill="#393185"/>
</g>
</g>
<defs>
<clipPath id="clip0_1815_27998">
<rect width="555" height="555" fill="white"/>
</clipPath>
<clipPath id="clip1_1815_27998">
<rect width="555" height="555" fill="white"/>
</clipPath>
<clipPath id="clip2_1815_27998">
<rect width="67" height="49" fill="white" transform="translate(22 31)"/>
</clipPath>
<clipPath id="clip3_1815_27998">
<rect width="49.1863" height="57.9062" fill="white" transform="translate(475.919 137.953)"/>
</clipPath>
<clipPath id="clip4_1815_27998">
<rect width="55.03" height="63.1227" fill="white" transform="translate(28 245)"/>
</clipPath>
<clipPath id="clip5_1815_27998">
<rect width="60" height="60" fill="white" transform="translate(470 469)"/>
</clipPath>
</defs>
</svg>
