<svg width="111" height="111" fill="none" xmlns="http://www.w3.org/2000/svg"><path d="M0 55.5C0 24.848 24.848 0 55.5 0S111 24.848 111 55.5V111H55.5C24.848 111 0 86.152 0 55.5z" fill="#393185"/><g clip-path="url(#clip0_1815_28002)" fill="#fff" stroke="#fff" stroke-width=".5"><path d="M87.413 31.873a4.835 4.835 0 00-3.081-1.123H26.669c-1.127 0-2.225.4-3.102 1.127h0l-.002.002a5.13 5.13 0 00-1.815 3.923v39.397c0 2.78 2.2 5.051 4.919 5.051h57.953l-.001-.01c2.584-.153 4.629-2.362 4.629-5.042V35.802c0-1.542-.67-2.976-1.837-3.93zm0 0h-.001l-.158.193.16-.193h-.001zm-1.21 1.53l.002.001c.71.58 1.12 1.452 1.12 2.398l-.001 39.396c0 1.707-1.35 3.085-2.992 3.085H26.669c-1.644 0-2.993-1.378-2.993-3.085V35.802c0-.929.407-1.806 1.113-2.404a2.907 2.907 0 011.88-.681h57.663c.673 0 1.336.24 1.872.686z"/><path d="M54.81 65.536h0c.188.192.435.29.684.29h.001a.95.95 0 00.683-.29L87.491 33.33a.998.998 0 000-1.385.949.949 0 00-1.367 0l-30.63 31.504-30.63-31.504a.949.949 0 00-1.366 0 .998.998 0 000 1.385L54.81 65.536z"/></g><defs><clipPath id="clip0_1815_28002"><path fill="#fff" transform="translate(22 31)" d="M0 0h67v49H0z"/></clipPath></defs></svg>