<svg width="555" height="555" fill="none" xmlns="http://www.w3.org/2000/svg"><g clip-path="url(#clip0_1815_27998)"><g clip-path="url(#clip1_1815_27998)"><path d="M0 55.5C0 24.848 24.848 0 55.5 0S111 24.848 111 55.5V111H55.5C24.848 111 0 86.152 0 55.5z" fill="#393185"/><g clip-path="url(#clip2_1815_27998)" fill="#fff" stroke="#fff" stroke-width=".5"><path d="M87.413 31.873a4.835 4.835 0 00-3.081-1.123H26.669c-1.127 0-2.225.4-3.102 1.127h0l-.002.002a5.13 5.13 0 00-1.815 3.923v39.397c0 2.78 2.2 5.051 4.919 5.051h57.953l-.001-.01c2.584-.153 4.629-2.362 4.629-5.042V35.802c0-1.542-.67-2.976-1.837-3.93zm0 0h-.001l-.158.193.16-.193h-.001zm-1.21 1.53l.002.001c.71.58 1.12 1.452 1.12 2.398l-.001 39.396c0 1.707-1.35 3.085-2.992 3.085H26.669c-1.644 0-2.993-1.378-2.993-3.085V35.802c0-.929.407-1.806 1.113-2.404a2.907 2.907 0 011.88-.681h57.663c.673 0 1.336.24 1.872.686z"/><path d="M54.81 65.536h0c.188.192.435.29.684.29h.001a.95.95 0 00.683-.29L87.491 33.33a.998.998 0 000-1.385.949.949 0 00-1.367 0l-30.63 31.504-30.63-31.504a.949.949 0 00-1.366 0 .998.998 0 000 1.385L54.81 65.536z"/></g><path d="M111 55.5C111 24.848 135.848 0 166.5 0S222 24.848 222 55.5 197.152 111 166.5 111H111V55.5z" fill="#393185" fill-opacity=".2"/><path d="M222 70c0-38.66 31.34-70 70-70h41v111H222V70zM333 0h111v111H333zm111 0h111v41c0 38.66-31.34 70-70 70h-41V0z" fill="#393185"/><path d="M0 166.5C0 135.848 24.848 111 55.5 111s55.5 24.848 55.5 55.5V222H55.5C24.848 222 0 197.152 0 166.5z" fill="#393185" fill-opacity=".2"/><path d="M111 111h55.5c30.652 0 55.5 24.848 55.5 55.5S197.152 222 166.5 222 111 197.152 111 166.5V111z" fill="#393185"/><path d="M182.817 135.448c0-.896-1.087-1.34-1.714-.701l-12.878 13.129a.996.996 0 00-.286.714l.074 5.55c.004.264.112.517.301.702l3.676 3.59a.999.999 0 001.405-.007l9.128-9.097a.999.999 0 00.294-.708v-13.172zm-7.844 26.009a.999.999 0 01.007-1.385l8.987-9.267c.189-.194.448-.303.718-.303h12.844c.886 0 1.334 1.067.714 1.7l-12.667 12.915a1.002 1.002 0 01-.714.299h-5.699a1 1 0 01-.725-.311l-3.465-3.648zm-23.792 35.995c0 .896 1.086 1.34 1.713.701l12.878-13.129a.996.996 0 00.286-.714l-.074-5.55a1.004 1.004 0 00-.301-.702l-3.676-3.59a.999.999 0 00-1.405.007l-9.127 9.097a.995.995 0 00-.294.708v13.172zm7.842-26.008a1 1 0 01-.007 1.385l-8.988 9.266a.995.995 0 01-.717.304h-12.844c-.887 0-1.335-1.067-.714-1.7l12.666-12.915a.999.999 0 01.714-.3h5.699c.275 0 .537.113.725.312l3.466 3.648zm38.573 11.042c.889 0 1.336-1.073.71-1.705L185.328 167.7a1 1 0 00-.724-.295l-5.447.074c-.27.004-.526.116-.712.311l-3.555 3.741a.999.999 0 00.007 1.385l8.987 9.266a1 1 0 00.718.304h12.994zm-25.691-7.933a1 1 0 011.405.008l9.128 9.097c.188.188.294.443.294.708v13.02c0 .893-1.081 1.339-1.71.705l-12.713-12.813a.998.998 0 01-.29-.704v-5.805c0-.27.109-.528.301-.716l3.585-3.5zm-35.504-24.138c-.889 0-1.336 1.073-.71 1.704l12.978 13.081c.191.193.452.3.724.296l5.447-.075a.995.995 0 00.712-.311l3.555-3.74c.37-.389.367-1-.007-1.385l-8.987-9.266a.996.996 0 00-.718-.304h-12.994zm25.691 7.933a1 1 0 01-1.405-.007l-9.127-9.098a.996.996 0 01-.294-.708v-13.02c0-.893 1.081-1.338 1.71-.705l12.712 12.813a1 1 0 01.29.704v5.806a.998.998 0 01-.301.715l-3.585 3.5z" fill="#fff"/><path d="M222 166.5c0-30.652 24.848-55.5 55.5-55.5s55.5 24.848 55.5 55.5V222h-55.5c-30.652 0-55.5-24.848-55.5-55.5z" fill="#393185" fill-opacity=".2"/><path d="M333 166.5c0-30.652 24.848-55.5 55.5-55.5s55.5 24.848 55.5 55.5-24.848 55.5-55.5 55.5H333v-55.5zm111 0c0-30.652 24.848-55.5 55.5-55.5s55.5 24.848 55.5 55.5-24.848 55.5-55.5 55.5H444v-55.5z" fill="#393185"/><g clip-path="url(#clip3_1815_27998)" fill="#fff" stroke="#fff"><path d="M524.496 195.859h-47.969a.611.611 0 01-.608-.615v-14.227c0-6.416 5.157-11.636 11.496-11.636h26.193c6.339 0 11.497 5.22 11.497 11.636v14.226c0 .34-.272.616-.609.616h0zm-47.36-1.232h46.752v-13.61c0-5.737-4.611-10.404-10.279-10.404h-26.193c-5.668 0-10.279 4.667-10.279 10.404l-.001 13.61zm23.375-31.879c-6.753 0-12.249-5.562-12.249-12.398 0-6.835 5.495-12.397 12.249-12.397 6.755 0 12.25 5.562 12.25 12.398 0 6.836-5.495 12.397-12.25 12.397zm0-23.563c-6.083 0-11.031 5.009-11.031 11.166 0 6.156 4.948 11.165 11.031 11.165 6.084 0 11.032-5.009 11.032-11.165 0-6.157-4.948-11.166-11.032-11.166z"/><path d="M514.233 195.856a.612.612 0 01-.609-.616v-12.62c0-.34.272-.615.608-.615.337 0 .609.275.609.615v12.62c0 .34-.272.616-.608.616h0zm-27.442 0a.612.612 0 01-.608-.616v-12.62c0-.34.272-.615.608-.615a.61.61 0 01.608.615v12.62a.61.61 0 01-.608.616z"/></g><path d="M0 277.5C0 246.848 24.848 222 55.5 222s55.5 24.848 55.5 55.5V333H55.5C24.848 333 0 308.152 0 277.5z" fill="#393185"/><g clip-path="url(#clip4_1815_27998)"><path d="M47.457 308.123c-5.2 0-10.088-2.037-13.765-5.736-7.59-7.635-7.59-20.059 0-27.694l25.612-25.766c5.206-5.235 13.678-5.237 18.884 0 5.206 5.237 5.206 13.76 0 18.997L55.6 290.646a7.673 7.673 0 01-10.886 0c-3.001-3.019-3.001-7.932 0-10.952l18.587-18.699a.665.665 0 01.944 0c.26.263.26.688 0 .95l-18.587 18.699c-2.48 2.495-2.48 6.557 0 9.053a6.344 6.344 0 008.998 0l22.587-22.723c4.686-4.714 4.686-12.383 0-17.097-4.686-4.714-12.31-4.711-16.995 0l-25.613 25.766c-7.069 7.112-7.069 18.684 0 25.794 7.07 7.112 18.572 7.112 25.641 0l21.614-21.743a.665.665 0 01.944 0c.26.262.26.687 0 .949L61.22 302.387c-3.677 3.699-8.565 5.736-13.764 5.736z" fill="#fff"/></g><path d="M111 277.5c0-30.652 24.848-55.5 55.5-55.5s55.5 24.848 55.5 55.5-24.848 55.5-55.5 55.5H111v-55.5zm111 0c0-30.652 24.848-55.5 55.5-55.5H333v111h-55.5c-30.652 0-55.5-24.848-55.5-55.5zM333 222h111v41c0 38.66-31.34 70-70 70h-41V222z" fill="#393185" fill-opacity=".2"/><path d="M444 277.5c0-30.652 24.848-55.5 55.5-55.5s55.5 24.848 55.5 55.5-24.848 55.5-55.5 55.5H444v-55.5z" fill="#393185"/><path d="M0 388.5C0 357.848 24.848 333 55.5 333s55.5 24.848 55.5 55.5V444H55.5C24.848 444 0 419.152 0 388.5z" fill="#393185" fill-opacity=".2"/><path d="M111 333h55.5c30.652 0 55.5 24.848 55.5 55.5S197.152 444 166.5 444 111 419.152 111 388.5V333z" fill="#393185"/><path d="M222 388.5c0-30.652 24.848-55.5 55.5-55.5s55.5 24.848 55.5 55.5-24.848 55.5-55.5 55.5H222v-55.5z" fill="#393185" fill-opacity=".2"/><path d="M293.817 357.448c0-.896-1.087-1.34-1.714-.701l-12.878 13.129a.996.996 0 00-.286.714l.074 5.55c.004.264.112.517.301.702l3.676 3.59a.999.999 0 001.405-.007l9.128-9.097a.999.999 0 00.294-.708v-13.172zm-7.844 26.009a.999.999 0 01.007-1.385l8.987-9.267c.189-.194.448-.303.718-.303h12.844c.886 0 1.334 1.067.714 1.7l-12.667 12.915a1.002 1.002 0 01-.714.299h-5.699a1 1 0 01-.725-.311l-3.465-3.648zm-23.792 35.995c0 .896 1.086 1.34 1.713.701l12.878-13.129a.996.996 0 00.286-.714l-.074-5.55a1.004 1.004 0 00-.301-.702l-3.676-3.59a.999.999 0 00-1.405.007l-9.127 9.097a.995.995 0 00-.294.708v13.172zm7.842-26.008a1 1 0 01-.007 1.385l-8.988 9.266a.995.995 0 01-.717.304h-12.844c-.887 0-1.335-1.067-.714-1.7l12.666-12.915a.999.999 0 01.714-.3h5.699c.275 0 .537.113.725.312l3.466 3.648zm38.573 11.042c.889 0 1.336-1.073.71-1.705L296.328 389.7a1 1 0 00-.724-.295l-5.447.074c-.27.004-.526.116-.712.311l-3.555 3.741a.999.999 0 00.007 1.385l8.987 9.266a1 1 0 00.718.304h12.994zm-25.691-7.933a1 1 0 011.405.008l9.128 9.097c.188.188.294.443.294.708v13.02c0 .893-1.081 1.339-1.71.705l-12.713-12.813a.998.998 0 01-.29-.704v-5.805c0-.27.109-.528.301-.716l3.585-3.5zm-35.504-24.138c-.889 0-1.336 1.073-.71 1.704l12.978 13.081c.191.193.452.3.724.296l5.447-.075a.995.995 0 00.712-.311l3.555-3.74c.37-.389.367-1-.007-1.385l-8.987-9.266a.996.996 0 00-.718-.304h-12.994zm25.691 7.933a1 1 0 01-1.405-.007l-9.127-9.098a.996.996 0 01-.294-.708v-13.02c0-.893 1.081-1.338 1.71-.705l12.712 12.813a1 1 0 01.29.704v5.806a.998.998 0 01-.301.715l-3.585 3.5zM333 388.5c0-30.652 24.848-55.5 55.5-55.5s55.5 24.848 55.5 55.5V444h-55.5c-30.652 0-55.5-24.848-55.5-55.5z" fill="#393185"/><path d="M444 388.5c0-30.652 24.848-55.5 55.5-55.5s55.5 24.848 55.5 55.5V444h-55.5c-30.652 0-55.5-24.848-55.5-55.5z" fill="#393185" fill-opacity=".2"/><path d="M0 499.5C0 468.848 24.848 444 55.5 444H111v111H55.5C24.848 555 0 530.152 0 499.5zM111 444h111v111H111zm111 0h111v41c0 38.66-31.34 70-70 70h-41V444z" fill="#393185"/><path d="M333 499.5c0-30.652 24.848-55.5 55.5-55.5H444v55.5c0 30.652-24.848 55.5-55.5 55.5S333 530.152 333 499.5z" fill="#393185" fill-opacity=".2"/><path d="M444 499.5c0-30.652 24.848-55.5 55.5-55.5H555v55.5c0 30.652-24.848 55.5-55.5 55.5S444 530.152 444 499.5z" fill="#393185"/><g clip-path="url(#clip5_1815_27998)" fill="#fff"><path d="M494.519 529h-21.314a2.48 2.48 0 01-2.476-2.476V505.21a2.48 2.48 0 012.476-2.476h21.314a2.48 2.48 0 012.476 2.476v21.314a2.48 2.48 0 01-2.476 2.476zm-21.314-24.988a1.2 1.2 0 00-1.199 1.199v21.313a1.2 1.2 0 001.199 1.2h21.314a1.2 1.2 0 001.199-1.2v-21.313a1.2 1.2 0 00-1.199-1.199h-21.314zM527.525 529H506.21a2.48 2.48 0 01-2.476-2.476V505.21a2.48 2.48 0 012.476-2.476h21.314A2.48 2.48 0 01530 505.21v21.314a2.48 2.48 0 01-2.476 2.476h.001zm-21.315-24.988c-.661 0-1.2.538-1.2 1.199v21.313c0 .662.539 1.2 1.2 1.2h21.314a1.2 1.2 0 001.199-1.2v-21.313a1.2 1.2 0 00-1.199-1.199H506.21zm21.315-8.746H506.21a2.48 2.48 0 01-2.476-2.476v-21.314A2.48 2.48 0 01506.21 469h21.314a2.48 2.48 0 012.476 2.476v21.314a2.48 2.48 0 01-2.476 2.476h.001zm-21.315-24.989c-.661 0-1.2.538-1.2 1.199v21.314c0 .661.539 1.199 1.2 1.199h21.314c.66 0 1.199-.538 1.199-1.199v-21.314a1.2 1.2 0 00-1.199-1.199H506.21zm-12.42 24.989h-21.314A2.48 2.48 0 01470 492.79v-21.314a2.48 2.48 0 012.476-2.476h21.314a2.48 2.48 0 012.476 2.476v21.314a2.48 2.48 0 01-2.476 2.476zm-21.314-24.989a1.2 1.2 0 00-1.199 1.199v21.314a1.2 1.2 0 001.199 1.199h21.314a1.2 1.2 0 001.199-1.199v-21.314a1.2 1.2 0 00-1.199-1.199h-21.314z"/><path d="M521.787 516.506h-9.84a.638.638 0 110-1.277h9.84a.638.638 0 010 1.277zm-33.005 0h-9.84a.639.639 0 110-1.277h9.84a.639.639 0 010 1.277zm33.005-33.735h-9.84a.637.637 0 110-1.276h9.84a.638.638 0 110 1.276z"/><path d="M516.868 487.691a.638.638 0 01-.638-.638l-.001-9.84a.638.638 0 111.276 0v9.839a.637.637 0 01-.637.639zm-37.214-.86a.638.638 0 01-.486-1.053l6.958-8.122a.64.64 0 01.97.831l-6.957 8.121a.636.636 0 01-.485.223z"/><path d="M486.611 486.831a.634.634 0 01-.485-.223l-6.958-8.121a.638.638 0 01.97-.831l6.958 8.122a.638.638 0 01-.485 1.053zm-2.745 25.103a.694.694 0 01-.46-.179c-.064-.063-.101-.14-.14-.217a.735.735 0 01-.051-.242c0-.077.025-.166.051-.243a.733.733 0 01.14-.205.765.765 0 01.204-.14.682.682 0 01.499 0 .73.73 0 01.203.14.716.716 0 01.141.205.782.782 0 01.051.243.735.735 0 01-.051.242.743.743 0 01-.141.217.66.66 0 01-.446.179zm0 9.14a.652.652 0 01-.46-.191c-.064-.051-.101-.128-.14-.205a.806.806 0 01-.051-.242c0-.09.025-.166.051-.243a.584.584 0 01.14-.205.656.656 0 01.906 0c.065.051.102.128.141.205a.736.736 0 01.051.243.806.806 0 01-.051.242c-.039.077-.076.154-.141.205a.62.62 0 01-.446.191z"/><path d="M483.585 511.934a.642.642 0 01-.448-.179.483.483 0 01-.14-.217.521.521 0 01-.051-.242.56.56 0 01.051-.243.534.534 0 01.14-.205c.23-.242.652-.242.894 0a.657.657 0 01.192.447c0 .089-.027.166-.051.243a.642.642 0 01-.141.216.633.633 0 01-.446.18z"/></g><path d="M269.176 267.976c0-1.519-.374-2.879-1.122-4.08a8.053 8.053 0 00-2.992-2.924c-1.247-.725-2.663-1.088-4.25-1.088-.839 0-1.632.136-2.38.408a6.114 6.114 0 00-1.972 1.156 5.607 5.607 0 00-1.326 1.734c.023-1.745.261-3.23.714-4.454.476-1.224 1.133-2.153 1.972-2.788.861-.657 1.847-.986 2.958-.986 1.111 0 2.119.283 3.026.85a5.753 5.753 0 012.176 2.244l2.21-2.312a8.334 8.334 0 00-3.128-2.958c-1.269-.725-2.675-1.088-4.216-1.088-1.859 0-3.479.521-4.862 1.564-1.383 1.043-2.459 2.595-3.23 4.658-.748 2.063-1.122 4.635-1.122 7.718 0 2.221.363 4.137 1.088 5.746.748 1.609 1.779 2.845 3.094 3.706 1.337.839 2.89 1.258 4.658 1.258 1.632 0 3.105-.374 4.42-1.122 1.337-.748 2.38-1.757 3.128-3.026.771-1.269 1.156-2.675 1.156-4.216zm-8.704 5.168a4.87 4.87 0 01-2.55-.714 5.666 5.666 0 01-1.87-1.87 4.932 4.932 0 01-.714-2.584c0-.929.227-1.779.68-2.55a5.279 5.279 0 011.904-1.836 4.87 4.87 0 012.55-.714c.952 0 1.813.238 2.584.714a5.081 5.081 0 011.836 1.836 4.76 4.76 0 01.714 2.55c0 .929-.238 1.791-.714 2.584a5.196 5.196 0 01-1.87 1.904 4.942 4.942 0 01-2.55.68zm22.012 3.196c-1.7-.045-3.196-.442-4.488-1.19a10.25 10.25 0 01-3.23-2.924 14.649 14.649 0 01-1.972-3.944c-.43-1.428-.646-2.822-.646-4.182 0-1.451.238-2.901.714-4.352a13.145 13.145 0 012.074-3.944 10.34 10.34 0 013.264-2.856c1.27-.725 2.698-1.088 4.284-1.088 1.7 0 3.185.385 4.454 1.156a10.452 10.452 0 013.23 2.992 13.752 13.752 0 011.938 3.978c.454 1.428.68 2.799.68 4.114 0 1.473-.238 2.935-.714 4.386a13.22 13.22 0 01-2.074 3.91 10.894 10.894 0 01-3.264 2.856c-1.246.703-2.663 1.065-4.25 1.088zm-6.46-12.24c.046 1.043.193 2.085.442 3.128a10.14 10.14 0 001.224 2.822c.544.861 1.213 1.553 2.006 2.074.794.521 1.723.782 2.788.782 1.111 0 2.063-.272 2.856-.816a6.843 6.843 0 002.006-2.176c.522-.907.907-1.87 1.156-2.89a11.35 11.35 0 00.408-2.924c0-1.043-.147-2.074-.442-3.094a10.062 10.062 0 00-1.224-2.856c-.544-.861-1.212-1.553-2.006-2.074-.793-.521-1.711-.782-2.754-.782-1.11 0-2.074.283-2.89.85-.816.544-1.484 1.269-2.006 2.176a11.362 11.362 0 00-1.19 2.856 12.335 12.335 0 00-.374 2.924zm30.849-1.666v2.992h-3.774v4.114h-3.366v-4.114h-3.774v-2.992h3.774v-4.114h3.366v4.114h3.774zm-56.601 49.502v-2.912h.144c.245 0 .469-.075.672-.224.203-.149.384-.411.544-.784.16-.373.288-.885.384-1.536.096-.661.16-1.493.192-2.496l.08-2.32h5.424v7.36h1.12v2.912h-.976V310h-6.624v1.936h-.96zm1.792-2.912h4.56v-6.384h-3.36l-.048 1.44c-.032.992-.101 1.824-.208 2.496-.096.661-.224 1.189-.384 1.584-.149.384-.336.672-.56.864zm11.969 1.136a4.107 4.107 0 01-1.664-.336 4.306 4.306 0 01-1.312-.944 4.583 4.583 0 01-.848-1.376 4.534 4.534 0 01-.304-1.648c0-.597.102-1.152.304-1.664a4.19 4.19 0 01.864-1.376 3.98 3.98 0 011.312-.944 3.941 3.941 0 011.664-.352 3.83 3.83 0 011.648.352 3.96 3.96 0 011.312.944c.374.395.662.853.864 1.376.203.512.304 1.067.304 1.664a4.382 4.382 0 01-1.168 3.024c-.362.395-.8.709-1.312.944a4.032 4.032 0 01-1.664.336zm-3.024-4.288c0 .619.134 1.184.4 1.696.278.501.646.901 1.104 1.2.459.288.966.432 1.52.432.555 0 1.062-.149 1.52-.448a3.287 3.287 0 001.104-1.216 3.556 3.556 0 00.416-1.696c0-.619-.138-1.184-.416-1.696a3.287 3.287 0 00-1.104-1.216 2.723 2.723 0 00-1.52-.448c-.554 0-1.061.155-1.52.464-.448.309-.81.72-1.088 1.232a3.448 3.448 0 00-.416 1.696zm8.972 4.128v-8.336h4.16c.469 0 .864.101 1.184.304.32.192.56.443.72.752.171.309.256.64.256.992 0 .448-.107.853-.32 1.216a2.01 2.01 0 01-.928.8 2.3 2.3 0 011.168.752c.299.363.448.8.448 1.312 0 .448-.112.837-.336 1.168a2.103 2.103 0 01-.896.768c-.373.181-.805.272-1.296.272h-4.16zm1.04-.784h3.088c.277 0 .528-.069.752-.208.235-.149.416-.341.544-.576a1.49 1.49 0 00.016-1.488 1.529 1.529 0 00-.512-.56 1.318 1.318 0 00-.736-.208h-3.152v3.04zm0-3.792h2.832c.277 0 .523-.075.736-.224.213-.149.379-.341.496-.576a1.63 1.63 0 00.176-.736c0-.384-.128-.72-.384-1.008a1.2 1.2 0 00-.96-.432h-2.896v2.976zm11.09 4.736a4.107 4.107 0 01-1.664-.336 4.306 4.306 0 01-1.312-.944 4.583 4.583 0 01-.848-1.376 4.534 4.534 0 01-.304-1.648c0-.597.102-1.152.304-1.664a4.19 4.19 0 01.864-1.376 3.98 3.98 0 011.312-.944 3.941 3.941 0 011.664-.352 3.83 3.83 0 011.648.352 3.96 3.96 0 011.312.944c.374.395.662.853.864 1.376.203.512.304 1.067.304 1.664a4.382 4.382 0 01-1.168 3.024c-.362.395-.8.709-1.312.944a4.032 4.032 0 01-1.664.336zm-3.024-4.288c0 .619.134 1.184.4 1.696.278.501.646.901 1.104 1.2.459.288.966.432 1.52.432.555 0 1.062-.149 1.52-.448a3.287 3.287 0 001.104-1.216 3.556 3.556 0 00.416-1.696c0-.619-.138-1.184-.416-1.696a3.287 3.287 0 00-1.104-1.216 2.723 2.723 0 00-1.52-.448c-.554 0-1.061.155-1.52.464-.448.309-.81.72-1.088 1.232a3.448 3.448 0 00-.416 1.696zm8.188 4.176v-.992c.288 0 .544-.075.768-.224.224-.16.421-.427.592-.8.181-.373.325-.885.432-1.536.107-.661.176-1.499.208-2.512l.096-2.32h5.408V310h-1.088v-7.36h-3.36l-.032 1.44c-.043 1.152-.133 2.117-.272 2.896-.139.768-.336 1.376-.592 1.824-.245.448-.549.768-.912.96a2.629 2.629 0 01-1.248.288zm9.893-.048v-8.336h1.088v2.944h2.16c.95 0 1.664.245 2.144.736.491.48.736 1.115.736 1.904 0 .512-.106.976-.32 1.392a2.409 2.409 0 01-.944.992c-.405.245-.917.368-1.536.368h-3.328zm1.088-.864h2.096c.438 0 .79-.085 1.056-.256.267-.181.464-.411.592-.688.128-.288.192-.597.192-.928 0-.32-.058-.613-.176-.88a1.269 1.269 0 00-.576-.656c-.266-.171-.64-.256-1.12-.256h-2.064v3.664zm6.725.864v-8.336h1.088v3.584h4.768v-3.584h1.088V310h-1.088v-3.776h-4.768V310h-1.088zm9.328 0v-8.336h1.088v2.944h1.888c.949 0 1.664.245 2.144.736.491.48.736 1.115.736 1.904 0 .512-.107.976-.32 1.392a2.409 2.409 0 01-.944.992c-.405.245-.917.368-1.536.368h-3.056zm1.088-.864h1.824c.437 0 .789-.085 1.056-.256.267-.181.464-.411.592-.688.128-.288.192-.597.192-.928 0-.32-.059-.613-.176-.88a1.277 1.277 0 00-.576-.656c-.267-.171-.64-.256-1.12-.256h-1.792v3.664zm6.288.864v-8.32h1.088V310h-1.088zm3.74-8.336l2.448 3.264.128.24.128-.24 2.432-3.264h1.232l-3.168 4.192 3.168 4.144h-1.232l-2.432-3.248-.128-.224-.128.224-2.432 3.248h-1.232l3.152-4.144-3.152-4.192h1.216zM337.293 310v-8.336h1.088v3.568h1.248l2.8-3.568h1.248l-3.184 4.048 3.584 4.288h-1.28l-3.168-3.76h-1.248V310h-1.088zm7.529.048v-.992c.288 0 .544-.075.768-.224.224-.16.421-.427.592-.8.181-.373.325-.885.432-1.536.107-.661.176-1.499.208-2.512l.096-2.32h5.408V310h-1.088v-7.36h-3.36l-.032 1.44c-.043 1.152-.133 2.117-.272 2.896-.139.768-.336 1.376-.592 1.824-.245.448-.549.768-.912.96a2.629 2.629 0 01-1.248.288zm9.893-.048v-8.32h1.088v6.848l5.072-6.864h.976V310h-1.088v-6.736L355.771 310h-1.056zm13.116.16a4.107 4.107 0 01-1.664-.336 4.246 4.246 0 01-1.328-.944 4.615 4.615 0 01-.88-1.392 4.623 4.623 0 01-.304-1.68c0-.779.176-1.493.528-2.144a4.16 4.16 0 011.488-1.552c.63-.395 1.344-.592 2.144-.592.822 0 1.536.197 2.144.592a4.196 4.196 0 011.456 1.568 4.31 4.31 0 01.528 2.112v.256a.741.741 0 01-.016.176h-7.136c.054.597.219 1.131.496 1.6.288.459.656.827 1.104 1.104.459.267.955.4 1.488.4.544 0 1.056-.139 1.536-.416.491-.277.832-.64 1.024-1.088l.944.256a3.11 3.11 0 01-.784 1.072c-.352.32-.768.571-1.248.752a4.405 4.405 0 01-1.52.256zm-3.072-4.72h6.16c-.042-.608-.208-1.141-.496-1.6a2.948 2.948 0 00-1.104-1.072 2.851 2.851 0 00-1.488-.4c-.544 0-1.04.133-1.488.4a3.082 3.082 0 00-1.104 1.088 3.506 3.506 0 00-.48 1.584zm8.847 4.56v-8.336h1.088v3.584h4.768v-3.584h1.088V310h-1.088v-3.776h-4.768V310h-1.088zm11.424 0v-7.36h-2.976v-.976h7.04v.976h-2.976V310h-1.088zm9.097.16a4.107 4.107 0 01-1.664-.336 4.294 4.294 0 01-1.312-.944 4.563 4.563 0 01-.848-1.376 4.513 4.513 0 01-.304-1.648c0-.597.101-1.152.304-1.664a4.19 4.19 0 01.864-1.376 3.97 3.97 0 011.312-.944 3.941 3.941 0 011.664-.352c.597 0 1.147.117 1.648.352a3.97 3.97 0 011.312.944c.373.395.661.853.864 1.376.203.512.304 1.067.304 1.664 0 .576-.101 1.125-.304 1.648a4.418 4.418 0 01-.864 1.376c-.363.395-.8.709-1.312.944a4.032 4.032 0 01-1.664.336zm-3.024-4.288c0 .619.133 1.184.4 1.696.277.501.645.901 1.104 1.2.459.288.965.432 1.52.432s1.061-.149 1.52-.448a3.287 3.287 0 001.104-1.216 3.568 3.568 0 00.416-1.696c0-.619-.139-1.184-.416-1.696a3.287 3.287 0 00-1.104-1.216 2.725 2.725 0 00-1.52-.448c-.555 0-1.061.155-1.52.464-.448.309-.811.72-1.088 1.232a3.448 3.448 0 00-.416 1.696zm8.972 4.128v-8.336h4.16c.469 0 .864.101 1.184.304.32.192.56.443.72.752.17.309.256.64.256.992 0 .448-.107.853-.32 1.216a2.015 2.015 0 01-.928.8 2.3 2.3 0 011.168.752c.298.363.448.8.448 1.312 0 .448-.112.837-.336 1.168a2.109 2.109 0 01-.896.768c-.374.181-.806.272-1.296.272h-4.16zm1.04-.784h3.088c.277 0 .528-.069.752-.208.234-.149.416-.341.544-.576a1.49 1.49 0 00.016-1.488 1.529 1.529 0 00-.512-.56 1.32 1.32 0 00-.736-.208h-3.152v3.04zm0-3.792h2.832c.277 0 .522-.075.736-.224.213-.149.378-.341.496-.576a1.63 1.63 0 00.176-.736c0-.384-.128-.72-.384-1.008a1.203 1.203 0 00-.96-.432h-2.896v2.976z" fill="#393185"/></g></g><defs><clipPath id="clip0_1815_27998"><path fill="#fff" d="M0 0h555v555H0z"/></clipPath><clipPath id="clip1_1815_27998"><path fill="#fff" d="M0 0h555v555H0z"/></clipPath><clipPath id="clip2_1815_27998"><path fill="#fff" transform="translate(22 31)" d="M0 0h67v49H0z"/></clipPath><clipPath id="clip3_1815_27998"><path fill="#fff" transform="translate(475.919 137.953)" d="M0 0h49.186v57.906H0z"/></clipPath><clipPath id="clip4_1815_27998"><path fill="#fff" transform="translate(28 245)" d="M0 0h55.03v63.123H0z"/></clipPath><clipPath id="clip5_1815_27998"><path fill="#fff" transform="translate(470 469)" d="M0 0h60v60H0z"/></clipPath></defs></svg>