<svg data-name="Слой 1" xmlns="http://www.w3.org/2000/svg" viewBox="0 0 357.47 375.86"><path d="M339.35 243.2c-2-2.79-3.18-4.95-3.17-8.32q.13-96.48.05-193c0-20.92-21.41-37.18-42.54-31.27-13.79 3.86-24.6 18.83-24.46 33.58.25 26.59.07 53.18.07 79.77v5.46c-19.94-5.08-34.13-.33-44.38 18.62-20-7.75-35.17-1.83-45.32 15.59-6-.75-11.46-1.65-16.92-2.06-18-1.34-33.39 14.23-33.14 32.9.44 32.23.09 64.48.18 96.72a53.83 53.83 0 001.16 12.24c5.57 23.38 18.82 40.84 40.34 52 18.13 9.4 37.58 12.88 57.66 13.58 10.79.37 21.61 0 32.41.07 11.33.05 21.91-3 32.14-7.56 10.84-4.81 18.71-13.09 26.08-22.06 13.27-16.14 26.05-32.53 31.64-53.22 1.01-8.67 2.85-22.4-11.8-43.04zm-49-198.1c0-9 4.67-14.86 12-15.06s13.47 6.51 13.82 15v173.49c-7.87-8.46-14.87-16.3-22.27-23.73a11.63 11.63 0 01-3.61-9.12q.16-70.32.07-140.58zm-46.63 113.64c.36-5.81 8.08-11.41 13.39-11 5.78.43 11.78 6.5 12.11 13 .34 6.75.07 13.53.07 20.94-9.81-.88-17.84 1.82-25.74 7.79 0-10.75-.44-20.77.17-30.73zm0 81.24L261 258.41c-10 4.68-18-3.41-17.28-18.41zm-47-59.87c.2-11.89 10.65-18.08 19.85-12.37a11.89 11.89 0 015.85 10.71v70.66c0 8.08-5.14 14.34-12.08 14.72-6.29.35-13.6-6.76-13.66-14-.18-23.27-.35-46.5.05-69.72zm-46.14 71.1c.54-9.61.14-19.27.14-28.91v-28.41c0-7.35 4.82-12.18 12.24-12.26s13.5 5.09 13.53 12c.11 19.27.08 38.55 0 57.83a12.63 12.63 0 01-13.31 12.31c-8.34-.23-12.98-5.55-12.59-12.56zM326.66 292c-7.48 12.2-15.92 23.83-24.28 35.47-11.93 16.53-29.38 21.29-48.65 21.59-18.61.29-37.14-.41-55.32-5-12.27-3.09-23.53-8.56-32.41-17.4-12-11.93-17.24-26.79-14.87-44.19 12 3.58 23 2.4 32.89-5 2.54-1.89 4.41-1.19 6.6.45 11.12 8.34 22.93 8.57 34.93 2.3 3.42-1.8 6.25-4.74 9.46-7.24 12.18 8.8 25.13 10.56 38.85 2.6.86-.5 2.59 0 3.69.51 3.61 1.67 7 3.37 11.14 1.19a10.76 10.76 0 003.11-17c-6.42-6.9-13-13.66-19.47-20.5-5.22-5.52-10.63-10.89-15.55-16.66-3.94-4.63-5.4-12 1.28-17.85a12.07 12.07 0 0117 .52c15.58 16.23 31.46 32.2 46.63 48.82 9.73 10.67 13.31 23.8 4.97 37.39zm-192-160.51a12.13 12.13 0 000-17.14L90.13 69.77a12.13 12.13 0 00-17.14 0 12.11 12.11 0 000 17.14l44.53 44.53a12.11 12.11 0 0017.14 0zm-118.4 63l60 19.07a12.12 12.12 0 107.34-23.11l-60-19.06a12.12 12.12 0 10-7.34 23.1zM92.46 286a12.12 12.12 0 00-14.52-9.12l-61.39 14A12.12 12.12 0 1022 314.55l61.39-14A12.12 12.12 0 0092.46 286zM196.25 83.47a12.12 12.12 0 0014.52 9.12 12.12 12.12 0 009.12-14.52l-14-61.39a12.12 12.12 0 00-14.51-9.12 12.12 12.12 0 00-9.12 14.52z" fill="#c47a2b"/></svg>