<svg width="40" height="40" fill="none" xmlns="http://www.w3.org/2000/svg"><g clip-path="url(#clip0_1161_12871)" fill-rule="evenodd" clip-rule="evenodd"><path d="M39.2 20.456c0-1.418-.127-2.782-.364-4.09H20v7.736h10.764c-.464 2.5-1.873 4.618-3.991 6.036v5.018h6.463c3.782-3.482 5.964-8.609 5.964-14.7z" fill="#4285F4"/><path d="M20 39.999c5.4 0 9.927-1.791 13.236-4.846l-6.463-5.018c-1.791 1.2-4.082 1.91-6.773 1.91-5.209 0-9.618-3.519-11.19-8.246H2.126v5.182C5.418 35.517 12.182 39.999 20 39.999z" fill="#34A853"/><path d="M8.81 23.8c-.4-1.2-.628-2.482-.628-3.8 0-1.319.227-2.6.627-3.8v-5.182H2.127A19.992 19.992 0 000 19.999c0 3.228.773 6.282 2.127 8.982L8.81 23.8z" fill="#FBBC05"/><path d="M20 7.955c2.937 0 5.573 1.009 7.646 2.99l5.736-5.736C29.92 1.982 25.392 0 20 0 12.182 0 5.418 4.482 2.128 11.018L8.809 16.2C10.382 11.473 14.791 7.955 20 7.955z" fill="#EA4335"/></g><defs><clipPath id="clip0_1161_12871"><path fill="#fff" d="M0 0h40v40H0z"/></clipPath></defs></svg>