<svg width="640" height="480" fill="none" xmlns="http://www.w3.org/2000/svg"><path d="M152.91 240.25c0 92.607 75.153 168.194 168.342 168.194 92.689 0 168.342-75.587 168.342-168.194 0-92.607-75.653-168.194-168.342-168.194-93.189 0-168.342 75.587-168.342 168.194zm4.509 0c0-90.104 73.149-163.69 163.833-163.69 90.184 0 163.332 73.586 163.332 163.69s-73.148 163.689-163.332 163.689c-90.684 0-163.833-73.585-163.833-163.689z" fill="#3A76BC"/><path fill-rule="evenodd" clip-rule="evenodd" d="M177.961 103.092v158.683c0 11.513 1.503 22.526 4.509 33.539 5.511 20.524 17.536 39.546 33.067 54.563 14.029 14.016 30.562 25.029 48.098 34.039 13.528 7.008 27.055 12.515 41.585 17.02 3.507 1.502 7.515 2.503 11.022 3.504 1.002 0 2.004.5 3.006.5a211.06 211.06 0 0024.049-6.006c15.031-4.506 30.061-10.513 44.09-18.522 17.535-9.01 33.067-21.525 46.093-36.542 14.53-17.02 24.049-38.044 28.057-60.069 3.006-15.018 2.505-30.035 3.006-45.553 0-20.023 0-40.547.501-61.071 0-19.022 0-38.044.501-57.566v-16.519H177.961zm192.892 262.803c-.501 0-1.002.501-2.004.501h-2.505c-2.505 1.001-4.509 2.002-6.513 3.003-2.004.501-3.508 2.003-5.011 2.503l-6.012 1.502c-3.507 1.001-6.513 2.002-10.02 2.002-3.507 0-8.016-.5-11.023-2.002-1.503-.5-3.006-1.502-5.01-2.002-3.507-2.003-7.515-4.005-11.022-6.007-1.503-1.001-3.006-2.503-4.008-4.505-1.002-.501-1.503-1.502-2.505-2.503-1.002-.501-2.004-2.003-3.007-2.003h-4.509c-.501 0-1.002-1.001-1.002-1.501-.501-.501-1.002-.501-1.503-1.001-.501-.501-1.002-1.002-1.503-1.002-1.002-.5-1.002-1.001-1.503-.5 1.002 1.501 2.004 2.503 3.006 4.004.501 1.002 0 2.003 1.002 2.003s2.505-.501 3.507-.501c4.009.501 6.013 4.505 7.516 8.009.501 1.502 1.002 4.005 1.002 5.507v2.503c-.501 1.001-1.002 2.002-1.002 2.503 0 .5-.501 2.002-1.002 2.002-1.002.5-2.004 1.001-3.006 1.001-1.504.501-3.508 0-5.011-.501-2.004-.5-3.507-1.501-5.01-3.003-.501 0-2.004-1.001-2.505-1.502-.501-1.001-1.002-2.002-1.503-3.504v-2.002c0-1.001-.501-2.503-.501-3.004 1.002-2.502 1.503-4.004 3.006-5.506l1.503 3.003c.501 1.002 1.002 1.502 2.004.501s-.501-2.002-1.002-2.503c-.501-.5-.501-1.001-.501-1.502 0-.5 0-1.001-.501-1.501l-2.505-2.503c-.501-.501-2.004-1.502-2.004-2.002 0-.501-.501-3.004-1.503-1.502-1.002 1.001 0 1.502.501 3.003-2.004 0-3.507-1.001-5.511-1.501-1.503-.501-3.006-1.002-5.01-1.502-3.007-1.001-6.013-2.503-9.019-3.504-3.507-1.502-7.014-2.503-10.521-3.504-.501-.501-1.002-.501-2.004-.501-.501 0-2.004-.5-3.006 0-.501 0-1.503.501-2.004.501-1.002 0-2.004 0-2.505-1.001-3.007-2.003-3.007-5.507-5.011-8.51-2.004-2.503-4.509-5.507-7.515-7.008-1.002-.501-3.006-2.003-3.507-3.004 0-1.001-.501-2.002.501-2.002 1.503 0 1.503 0 2.505 1.502 1.002.5 3.006.5 4.008 1.001 1.503 1.001 3.507 2.002 5.01 3.003 3.006 1.502 5.512 4.005 8.518 6.007 2.505 2.002 5.511 3.504 9.018 5.006 3.006 1.001 5.511 3.504 9.018 4.005 1.503 0 3.507.5 5.01 1.501 1.003.501 1.504.501 2.005 0 .501-1.001 1.002-1.501 1.002-2.503.501 0 .501-.5 1.002-1.001l-.501-.5c-.501-.501-1.002-2.003-1.002-2.503.501-1.001 1.002-1.502 1.503-2.503.501-.501 1.002-1.001 1.503-2.002 1.002-1.002 2.505-2.003 4.008-2.503 1.503-.501 3.006-1.002 4.509-1.002 1.503 0 4.008-.5 5.01 0 1.002.501 1.503 1.002 2.505 1.002h2.505c1.002 1.501 1.503 3.003 1.002 4.505-.501 2.002-1.002 3.504-2.505 5.006-.501 1.001-.501 2.002-1.002 2.503l-3.006 1.501c-2.004 1.001-4.008 1.502-6.012 1.502h-3.006c-.501-.501-2.505-.501-2.505-1.001-.501-1.001 1.002-1.502 1.503-2.503.501-.501-.501-2.002-1.002-2.503l-.501.501v1.001c-.501 1.001-1.503 1.502-2.004 2.002l-.501.501c0 .5.501 1.001 0 1.501 0 .501-1.002 1.002-1.002 1.502 1.503 1.001 3.006 0 4.509.501.501 0 1.503.5 2.004.5 1.503 0 2.505.501 3.507.501h3.006c.501 0 1.002-1.001 2.004-1.001 1.503 0 3.006-1.001 4.509-1.502.501-.501 1.503-.501 2.004-1.001.501-1.001 1.002-1.502 1.503-2.002 1.504-1.502 2.506-3.004 3.508-4.005 2.505-2.002 5.511-4.005 8.016-6.007 3.507-2.002 6.513-3.504 10.02-5.006 1.503-.5 3.507-.5 5.01-.5 1.504 0 3.508 0 5.011-.501 3.507 0 6.513-.501 10.02 0 2.004.501 4.008.501 6.012 1.001 1.503.501 3.006.501 5.01.501h5.011c2.004 0 3.507-.501 5.01-.501 1.503 0 3.507 0 5.01.501.501.5 4.509 1.501 2.505 2.503-1.503 1.001-3.006 1.501-5.01 2.002-1.503 0-3.006 1.001-4.509 2.002-1.503 1.001-2.505 2.003-4.008 2.503-1.503 1.001-3.007 1.502-5.011 2.002-3.006 1.002-6.012 2.503-9.519 3.004-1.503.501-3.507 1.001-5.01 1.502-1.002.5-2.004 0-2.505 0-1.002 0-1.503.5-2.505 1.001h-2.505c-1.002.5-2.004.5-2.505 1.001-2.005 0-3.508.501-5.512.501-3.006 1.001-6.513 1.001-10.02 1.501h-9.519c-2.004-.5-3.007.501-4.51 1.001-1.002.501-1.503 1.002-2.004 1.002-1.002.5 1.503 1.501 1.503 1.501 1.503.501 3.508.501 5.512.501.501 0 1.002 0 2.004-.501.501-.5 1.002-.5 2.505-1.001 3.006-.5 6.513 0 9.519 0 2.004.501 3.507.501 5.511 1.001 1.503 1.001 3.006 1.502 5.011 2.003 3.006 1.001 5.511 2.503 8.517 4.004 2.004.501 3.507 1.001 5.511 1.001 1.503.501 2.505 1.002 4.008 1.502 3.006 1.001 6.513 2.002 10.021 2.002h3.507c1.503 0 2.505-1.001 3.507-.5h3.006c1.002 0 1.503.5 2.004 1.001 1.503.501 2.004.501 1.503 2.002zm26.053-26.53c-.501.5-.501 1.001-1.002 1.001H393.9s-1.002 1.001-1.503 1.001l-4.509 4.505c-2.506 1.502-4.51 4.005-7.015 5.507-1.503 1.001-3.006 2.002-4.008 3.003-1.503.501-3.507 2.002-5.01 2.503-3.507 1.001-7.014 2.002-10.521 2.503-3.006 0-6.514 0-10.021-.501-2.505 0-5.01-1.001-7.515-1.501-2.505-1.002-5.01-1.502-7.515-2.503-3.006-1.001-5.511-2.503-8.017-3.504 3.508.5 6.514 1.001 10.021 1.001h11.022c1.503 0 3.507-.501 5.01-.501 1.503 0 3.006-.5 5.011-1.001 3.006-1.001 7.014-1.001 9.519-3.003-1.503 0-2.505 0-4.008.5-.501.501-1.002 0-2.004 0-.501 0-1.002.501-2.004.501s-1.503-.501-2.505-.501c-.501 0-1.002.501-2.005.501-1.503.5-3.507.5-5.01 1.001-3.006.501-5.511.5-8.016.5h-4.509c-1.002 0-3.006.501-4.008-.5 1.503-.501 2.505-1.001 4.008-1.001 2.004-.501 3.507-.501 5.01-1.001 3.507-1.002 7.014-2.003 10.02-3.504 3.006-1.002 6.514-2.503 10.021-3.505h11.523c3.507 0 6.513-2.002 10.021-3.003 2.505-.501 4.008-1.001 6.513-1.001h3.006c.501 0 .501 0 1.002.5.501 0 1.503 1.502 1.002 2.003zm-19.54-31.036c-17.034 0-34.069-5.507-48.097-15.018-1.504-1.001-3.007-2.502-4.51-3.503-1.002-.501-1.503-1.502-2.505-2.003-.501-.5-.501-1.001-1.002-.5l-1.503 1.501c-3.006 2.503-6.513 5.006-10.02 7.008-7.015 4.506-15.031 7.509-23.047 10.012-29.059 7.008-60.122-2.002-81.165-23.027-20.041-21.024-28.057-50.558-21.544-78.59 6.513-27.032 27.055-50.058 53.609-59.569 14.029-5.006 30.061-6.508 45.092-3.504 8.016 2.002 16.032 5.006 23.548 9.01 3.507 1.502 7.014 4.005 10.521 6.508 1.503 1.001 3.006 2.503 4.509 3.504.501.5.501.5 1.002 0 .501-.501 1.002-1.001 1.503-1.001.501-1.002 1.503-1.502 2.505-2.003 25.552-19.522 60.624-23.026 89.182-8.51 25.051 12.515 42.586 37.544 45.592 65.576 3.006 28.533-8.517 57.066-30.562 75.087-15.03 12.014-34.069 19.022-53.108 19.022z" fill="#3A76BC"/><path fill-rule="evenodd" clip-rule="evenodd" d="M347.307 367.397c-2.505 0-4.509-.5-6.514-1.001-2.505-.501-4.509-1.502-7.014-2.002-4.008-1.002-8.016-3.004-12.024-4.506-3.006-1.501-6.513-1.501-10.021-1.501.501 1.001 4.008 1.501 5.011 1.501 1.002.501 2.505 1.502 4.008 2.003 3.006 1.502 6.012 3.504 9.018 5.006 1.503.5 3.507 1.501 5.01 2.002 2.004 0 3.507.5 5.01.5 2.004 0 5.011.501 7.015 0 1.503-1.001 3.507-1.001 5.01-1.001.501 0 .501-1.001.501-1.001h-5.01zm-101.208-34.04c-1.002-.5-2.004-2.002-3.006-2.503-.501 1.002 2.004 2.503 2.505 3.004.501.501 3.006 3.003 2.505 4.505-.501-.5-1.002-.5-1.002 0 0 .501.501 1.502.501 2.002 0 .501.501 1.002.501 1.502 1.002 1.001 2.004.501 2.506-.5 0-1.502-.502-3.504-1.504-5.006-.501-1.001-2.004-2.002-3.006-3.004zm60.626 12.515c3.507-1.001 6.513-2.002 9.519-3.003 3.507-1.001 7.014-1.502 10.02-2.003 3.508-1.001 7.015-1.501 10.522-1.501 1.503 0 3.507-.501 5.01-.501 1.503-.5 3.006-1.502 4.008-2.002 2.004-1.001 3.507-1.001 5.511-1.502 1.503-.5 3.507 0 4.509-.5.501 0 1.003 0 1.003-.501s0-.501-.502-.501h-3.006c-1.503 0-3.006.501-4.509.501-3.507.501-7.014.501-10.521 1.001-3.006.501-6.513.501-9.52 1.502-3.507 1.001-8.016 2.002-11.523 3.504-4.008 1.502-7.515 3.504-11.523 5.006.501.5 1.002.5 1.002.5z" fill="#3A76BC"/><path d="M179.965 223.731c0 47.555 38.578 86.099 86.175 86.099 21.043 0 41.083-7.509 56.615-21.525 18.538-16.018 29.56-39.545 29.56-64.574 0-24.529-11.022-48.056-29.56-64.575-15.532-13.516-35.572-21.024-56.615-21.024-47.597 0-86.175 38.544-86.175 85.599zm3.507 0c0-45.052 37.075-82.095 82.668-82.095 20.041 0 39.58 7.008 54.611 20.524 17.536 15.517 28.057 38.044 28.057 61.571 0 24.027-10.521 46.554-28.057 62.071-15.031 13.516-34.57 20.524-54.611 20.524-45.593 0-82.668-37.043-82.668-82.595z" fill="#3A76BC"/><path d="M226.562 166.164c1.002-1.001 1.503-1.501 3.006-2.002.501 0 1.002.501 1.002.501-.501 1.001-1.002 1.001-1.002 1.501-.501 1.502-1.002 2.503-2.004 4.005-.501.501.501.501-.501 1.001-.501 0-1.002.501-1.503.501-.501.5-1.002.5-1.503.5-.501 0-1.002-.5-1.503-.5-.501 0-1.503.5-1.503-.501 0-.5.501-1.001 1.002-1.502 1.002-1.001 2.004 0 3.507-.5 1.002-.501.501-2.002 1.002-3.004zm-7.015 5.507c.501-.5 1.002 0 .501.501-.501 0-1.002-.501-.501-.501z" fill="#3A76BC"/><path d="M321.753 163.661c-1.503-1.001-2.505-2.002-4.008-2.503-1.503-1.001-2.505-2.503-4.008-3.504-.501-.5-1.002-1.001-2.004-1.502-.501-.5-1.002-.5-2.004-1.001-1.504-1.501-2.506-2.002-4.51-2.503h-2.004c-1.002 0-1.503 0-2.505 1.002h-1.002c-.501 0-.501 1.001-.501 1.001-.501.5-.501 1.501-1.002 2.002-.501 1.001-1.002 1.502-1.503 1.502h-3.006c-.501.5-1.503.5-2.505.5-.501 0-1.503.501-2.004.501-1.002.501-2.004.501-3.006.501-.501 0-1.503 0-2.505-.501-1.002 0-1.503 0-2.004 1.001-.501.501-1.003 1.001-2.005 1.502-1.503 1.001-3.006 2.002-5.01 2.503-.501.5-1.503 1.001-2.004 1.501-1.503.501 0 .501-.501 2.003-.501-.501-1.002-.501-1.503-1.502 0 0-.501-1.502-1.002-1.001-.501 0-1.002 0-1.503.5-.501 1.002-.501 1.002-1.503.501-1.503 0-2.505.501-4.008.501-1.002 0-2.505-1.002-3.006-.501-1.002.501-1.002.501-2.004.501 0-.501 0-1.502-.501-2.003-.501-.5-1.002-1.001-1.002-2.002-1.002-1.502-2.004-2.002-4.009-2.002-1.002 0-1.503 0-2.004-.501-.501-.5-2.004-1.001-2.505-.5l-1.503 1.501c-.501 0-.501.501-1.002.501 0 .5-.501.5-1.002.5-1.002 0-1.002 1.002-2.004 1.002s-1.503 0-2.505.5h-2.505c-1.002 0-1.002 1.001-2.004 1.502-.501.5-.501 1.001-.501 2.002s1.503.501 2.004.501c.501 0 .501 0 .501.5v1.002c0 1.001-1.002 1.501-1.002 2.002 0 1.502 4.008.5 4.509 0 0 0 0-.501.501-1.001 0-.501.501-.501 1.002-.501.501-.501 1.002-1.502 1.503-2.002.501-1.001 2.505-2.503 3.507-3.004.501 0 2.004 0 2.004.501 0 .5 0 1.502-1.002 2.002-.501.501-1.503-.5-2.004 0-.501.501-1.503.501-2.004 1.502 0 .501-.501.5 0 1.001l.501.501c.501 0 1.503.5 2.004 0 1.002 0 2.004-.501 2.505-.501 1.002 0 2.004 0 1.002 1.001-.501 1.502-3.006.501-4.008 1.001-1.002.501-2.004.501-3.006 1.002-.501 0-1.503-.501-2.004.5-.501.501-1.503 1.001-2.004 1.502-.501.5-2.004-.501-2.004-.501-2.004-1.001 0-3.504-1.503-4.505 0-.501-1.503 0-2.004 0-1.002 0-1.503 0-2.505.501-1.002 1.001-2.505 2.002-4.008 2.503-1.002 0-1.504.5-2.506.5 0 .501-1.503 0-2.004 0h-2.505c-1.002 0-1.002.501-1.503 1.502-.501.5-1.002 1.502-1.503 2.002-.501.501-.501 1.502-1.503 2.003-.501.5-1.002-1.002-1.503-1.002-.501-.5-2.004.501-2.505-.5-.501-.501-1.002-1.001-1.503 0-1.002.5-1.503 1.001-1.503 2.002s-.501 1.001-1.002 1.502c-.501.5-1.503 1.001-1.002 2.002.501 1.001.501 1.502.501 2.503 0 1.001 1.503.501 2.004.501 1.002 0 2.505.5 3.507.5 1.503 0 1.002 0 2.004-1.001 0-.501.501-.501.501-1.001.501-.501 0-.501.501-1.001.501 0 2.004 0 2.505.5 0 .501 1.503.501 2.004.501.501-.501 1.503-.501 2.004 0 1.002.5 1.002 1.001 1.503 2.002.501.501 0 1.502 0 2.002.501 1.002.501 1.002 1.002 1.502 0 .501.501 1.001.501 1.502 0 1.001 0 1.001-1.002 1.502v1.501c1.503 0 2.005-.5 3.007-1.501v1.501c1.503-1.501 1.503-2.502 1.503-4.505 0-.5-1.002-1.001-1.002-1.502v-1.501c0-.501 0-.501.501-.501 2.004 0 1.503 2.002 1.503 3.504v4.505c1.002 0 3.006 0 3.507-1.001 0-.5-.501-1.501-.501-2.002 0-.501 1.002-.501 1.503-.501-.501 1.002-.501 1.502-.501 2.503 0 .501-.501.501 0 1.001v1.002c.501.5 1.503.5 2.004 1.001.501.5.501.5.501 1.001 0 1.001.501.5 1.002.5s1.503 1.502 1.002 1.502c0 1.001-.501 2.003-1.002 2.003s-2.004 0-2.505-.501c-.501 0-1.503-.501-2.505-1.001-.501-.501-.501-1.001-1.503-1.502h-4.509c-.502-1.001-.502-1.502-1.504-2.002-.501-1.001-3.507-1.001-3.507-2.503v-1.502h1.002c.501 1.001.501 1.502 1.002 2.002 1.002-.5.501-1.001.501-1.501l-1.002-1.001c-.501-.501 0-.501-1.002-.501-.501 0 0 .501-.501 0-.501 0-.501-.501-1.002-.501 0-1.001 0-.5-.501-1.001-.501 0-.501-.5-1.002-.5-.501-.501-1.503-.501-2.004-.501h-5.511c-1.002-.501-1.503-1.001-2.505-1.502-.501 0-1.503-1.001-1.503-1.001-.501.501-1.002 1.001-1.503 1.001-1.503 1.502-3.507 3.004-5.511 4.005-2.506 2.002-5.512 3.504-7.516 6.007-1.503 1.502-3.006 3.504-4.008 5.006-1.002 1.001-1.002 3.003-1.002 4.004-.501 2.003-.501 3.504-1.002 5.507 0 1.001-.501 1.501-.501 2.503-.501.5 0 1.501.501 2.002.501 1.502 1.002 3.504 1.503 5.006l1.503 3.003v2.002c0 1.502 0 1.502 1.002 2.003.501 1.001 1.002.5 2.004.5 1.503-.5 1.503-.5 2.505.501.501.5 1.002.5 2.004.5s4.51-.5 5.011 0c.501.501 1.002 1.502 1.503 2.003 1.002 0 2.505.5 2.505 1.001.501.501 0 2.503 0 3.003 0 1.002 0 1.002.501 2.003 1.002 1.501 1.503 3.504 2.004 5.006.501 1.501 2.004 3.003 2.004 4.505v2.503c0 1.001-.501 2.002-1.002 2.503 0 1.001 0 1.001.501 2.002s1.002 2.002 2.004 3.003c.501 1.001 1.002 2.503 1.503 3.504 1.503 3.504 2.505 7.008 4.509 10.512.501 1.502 1.503 3.004 2.004 4.506.501.5 1.503 1.001 2.004 1.001.501 0 1.503-1.001 2.004-1.502 1.503-1.001 3.508-1.502 5.011-2.503 1.503-.5 1.503-3.003 2.004-4.505 0-.501.501-.501 1.002-1.001 1.503-.501 2.505-2.002 1.503-3.504 0 0-.501-.501-.501-1.001v-2.003c0-2.002 1.002-2.002 2.004-3.003 1.503-1.502 1.503-2.503 1.503-4.005v-6.507c0-.501-2.505-3.004-2.004-3.504l3.507-3.504c2.505-2.503 5.01-5.006 7.515-8.01 1.002-1.001 1.503-3.003 2.004-4.505 0-1.001.501-1.502 1.002-2.503 0 0 1.503-1.501.501-2.002-1.503-.501-4.008 1.001-5.511 2.002-.501 0-2.004-.5-2.505-.5-1.503-1.001-1.503-3.004-2.505-4.005-.501-.5-1.002-1.502-1.503-2.002-.501 0-1.002.5-1.002 0-.501 0 0-1.001 0-1.502 0-1.502-1.002-3.003-1.503-4.505-.501-1.001-.501-1.502-1.002-2.002-.501-1.002-.501-2.003-.501-2.503v-2.503c0-.501 1.503-1.502 1.503-1.001 1.002 1.001 1.002 3.504 1.503 4.505.501 2.002 1.002 3.504 2.004 5.006 0 1.001 1.002 1.001 1.503 1.501 1.002.501.501 1.502 1.002 2.003 0 1.501 0 2.502.501 3.504.501 1.501 1.002 1.501 2.004 1.501s2.004-.5 2.505-.5c1.002-.501 1.503-.501 2.505-1.001 1.503-.501 3.006-1.502 4.008-2.503 1.002-.501 1.504-.501 2.506-.501.501 0 1.503-1.502 1.503-2.002l1.503-1.502c0-.5.501-2.002 0-2.002h-1.002c0-1.001-.501-1.502-1.002-2.002-.501-.501-2.506-.501-3.508-.501-1.503 0-1.503 0-2.004-1.001-.501-.501-1.002-1.502-1.002-2.503-.501-.501-.501-.501-.501-1.502.501.501 1.503.501 1.503 1.001.501 1.001.501 1.502.501 2.503.501 0 1.503-.5 2.004-.5 1.003 0 1.003.5 2.005 1.001.501.5 1.002 1.502 1.503 1.502 1.002 0 2.004-.001 2.505.5 1.503 0 3.006-.5 4.008-.5 1.002 0 1.503 0 2.004 1.001.501.5 1.002 1.001 1.503 2.002.501 1.001.501 1.001 1.503 1.001 1.002 0 1.002 0 1.002 1.001 0 1.502 0 3.504 1.002 5.006 1.002 1.502 1.503 2.503 3.006 4.005.501 1.001 1.002 2.503 2.505 3.504.501-1.001 1.503-2.503 1.503-3.504s.501-1.001 1.002-1.502c.501-.501.501-1.001.501-2.002 0-2.003.501-2.503 1.503-3.504 1.002-1.002 2.506-2.003 3.508-3.004 1.002-1.001 2.004-1.502 3.507-1.502.501 0 1.002.501 1.503 1.002.501.5 0 1.501.501 2.002 0 0 0 .5.501.5 0 .501.501.501 1.002.501 0 .501.501 1.502.501 2.002 1.002 2.003 2.004 2.003 3.006.501.501 1.001.501 3.003 1.503 4.005.501 1.001.501 2.502 1.002 4.004.501 1.502 1.002 3.004 1.503 4.005 1.002 1.502 2.004 3.003 3.507 3.504.501 0 1.002 0 .501-1.001 0 0-.501 0-.501-.501v-1.502c-.501-1.501-1.002-3.003-1.503-4.004-.501-.501-1.503-1.001-2.004-1.502-.501 0-.501-1.001-1.002-1.502-.501-1.501 0-2.503 1.503-3.504 1.002 1.001 2.004 3.004 3.507 3.504 1.002 0 1.503-1.001 2.004-1.501.501-.501.501-.501 1.002-.501.501-.501.501-.501 1.002-1.502.501-1.502-.501-3.504-1.002-5.506-.501-1.001-.501-1.502-.501-3.004 0-.5 1.503-1.501 1.503-2.002.501.501 1.002 1.001.501 1.502-.501.5 0 .5 0 1.001.501.501 1.504 0 1.504-.501.501 0 0-1.001 0-1.501 0-1.001 1.002-2.003 2.004-2.003 1.002-.5 2.004-2.002 2.505-2.503.501-.5 1.002-2.002 1.002-3.003 0-1.001.501-2.503 0-3.504-.501-2.503-.501-5.006-2.505-6.508.501-.5 1.503-1.001 1.002-1.501-1.002-1.001-1.503 0-2.004.5 0 0-1.002-1.501-.501-2.002.501 0 .501-.501 1.002-.501.501-.5.501-.5 1.002 0l1.503 1.502c1.002.501.501 1.502 1.002 2.503 0 .501 0 .501.501 1.001.501 0 .501 0 1.002-.5 0-.501 1.002-1.002 1.002-1.502 0-1.001.501-2.002 0-2.503-1.002-1.001-1.503-1.001-1.503-2.503 0-1.502 0-3.504 1.002-4.505 1.002-.501 1.002-.501.501-2.002-.501 0-1.002 0-.501-.501v-1.001c0-2.002 1.002-3.004.501-5.006-.501-1.001-1.503-3.003-2.505-4.005-.501-1.001-1.002-1.501-1.503-2.002-.501-.501-2.004-1.001-2.004-1.502-.501-.5 0-1.001 0-1.001 0-.5-.501-1.001-1.002-1.001-.501-.501-1.504.501-2.005.501-.501 0 0-2.003.502-2.503 0-.501.501-1.001 1.503-1.001 1.002-.501 1.503-.501 2.004-1.002.501-.5.501-1.501 1.503-2.002l1.503 3.004c.501.5.501 1.001 1.002 1.001 0 .5.501 0 .501 0 1.002.5.501 1.001 1.503 1.001 1.503 0 2.505 1.001 4.008 1.001 1.002 0 1.002.501 1.002-.501 0-1.001-.501-1.001-.501-2.002zm-79.662 10.512c.501 0 .501.501 0 1.001-.501 0-1.002-.5 0-1.001zm3.507 19.022c-.501 1.001-3.006-1.001-4.008-.5-.501 0-2.004-.501-1.503-1.001 0-.501.501-2.003 1.002-2.003.501-.5 1.503-1.001 2.004-.5l.501.5c0 .501.501.501 1.002.501 1.002 0 1.002 0 1.503 1.001 0 1.001 0 1.001-.501 2.002zm8.518-.5c-.501.5-1.003 1.001-.501 2.002 0 1.001.501 1.001-.502 2.503 0 .5 0 1.502-1.503 1.502-.501 0-1.002.5-1.503-.501-.501-.501 0-1.001.501-1.001 1.002 0 .501-1.502.501-2.002v-2.003c0-1.001.501-1.501 1.503-1.501.501-.501 2.005-.501 1.504 1.001zm-32.567-27.531c.501 0 1.002-.501 1.002-.501.501.501 1.002.501 1.503.501.501 0 1.002.5 1.002 1.501 0 .501.501 1.002-.501 1.502-.501 0-1.002.501-1.503.501h-2.004c-1.003.5-1.504 1.001-2.005 0-.501-1.502.501-1.502 1.503-2.003.501 0 1.003-1.001 1.003-1.501z" fill="#3A76BC"/><path d="M244.096 250.762c0-1.001 0-1.001 1.002-1.501.501 0 1.503 1.001 1.503 1.501 1.002 1.502.501 3.004.501 5.006 0 .501-1.002 1.502-1.002 2.003-.501.5-1.002 1.001-1.002 2.002 0 .5-.501 1.502-.501 2.503 0 .5 1.002 1.502.501 2.002 0 0-1.002 1.001-1.503 1.001-.501-.5-1.503-1.001-2.004-2.002-1.002-1.001-.501-3.004-.501-4.005v-2.503c-.501-1.001 0-1.501 0-2.502.501-.501.501-1.502 1.002-2.003 1.002 0 1.002-1.001 2.004-1.502zm32.064-22.525c0-.501 1.503-2.003 1.503-2.003 1.003.501.501 2.003.501 2.503 0 .501-.501 2.003-1.503 2.003-1.002-.501-.501-2.003-.501-2.503zm14.531 2.502c1.504 0 2.506 0 4.009 1.001 1.002.501 2.004 1.502 3.006 2.503 1.002 1.001 2.004 2.003 2.505 3.004 1.002.5 0 3.003 0 4.004-.501 1.002-2.004-2.502-2.505-2.502-.501-1.502-1.503-2.503-2.004-3.505-.501-.5-2.505-2.502-3.006-2.502-.501 0-1.504 0-2.005-.501 0 0-.501-1.001 0-1.502zm11.021 8.51c.501.501.501 1.502 1.002 2.503 0 .5 2.004.501 2.505.501.501 0 2.004 0 2.004.5 1.002 1.001.501 2.002-.501 2.002-.501-.5-1.002-1.001-2.004-1.001s-1.503-.5-2.505-.5c-.501-.501-1.503-1.002-1.002-2.003.501-.5 0-1.501.501-2.002zm7.014 5.506c1.002 0 1.002 0 2.004.5h1.503c1.002 0 1.503 0 2.004.501 1.002 0 1.503.501.501 1.001-.501.501-3.006-.5-3.507-.5-1.002 0-1.002-.501-2.004-.501-.501 0-1.503-.501-.501-1.001zm8.52 2.003h1.503c.501 1.001.501 1.502-.501 1.502h-1.503c-.501-.501-.501 0-1.002 0-.501.5-1.503.5-1.503 0-.501 0-1.002-1.002-.501-1.002 1.002 0 3.006 0 3.507-.5zm-13.529-15.017c1.503 0 2.505-.501 3.507-1.502.502-.501 1.504-1.001 2.005-1.502.501-.5 1.002-1.502 1.503-1.001.501 0 2.004.501 2.004 1.001-.501 1.001-.501.501-1.503 1.502-.501 0-.501 1.001 0 1.502 1.002 1.001.501 1.001 0 2.002-.501.501-1.503 1.502-1.503 2.002 0 1.001-.501 1.001-.501 2.003-.501.5-1.002.5-1.503 0-.501-.501-1.003-.501-2.005-.501-.501 0-1.503.501-2.004 0 0 0-.501-1.502-.501-2.002-.501-.501-1.002-1.001-.501-2.003 0-1.001 0-1.001 1.002-1.501zm14.03 2.502c-1.503 0-3.007 0-4.51 1.001-1.002.501-1.503 2.003-1.503 3.504v2.003c.501.5 1.503 1.501 2.004 1.501 1.503-.5-1.002-2.502-.501-3.504.501 0 .501.501 1.002 1.002 0 .5.501 1.001 1.002 1.001s1.504-.501 1.003-.501c0-.5-.502-1.001-1.003-1.001-1.503-1.001 1.003-1.001 1.504-1.001 1.503-1.502-1.504-1.001-2.005-1.001 0-1.002 1.002-1.502 2.005-1.502.501 0 2.004-.501 1.002-1.502zm1-3.504c.501 0 2.004 0 2.004.501 0 .5-.501 1.001-.501 1.502 0 .5.501 0 1.002.5.501.501-.501 1.502-.501 1.502-.501.5-2.505-.501-2.505-1.001-.501-1.502.501-2.003.501-3.004zm-3.004-6.508c0-.5 1.002-1.502 1.503-1.502.501 0 1.002 1.502.501 2.003-.501 1.001.501 1.001.501 2.002s1.002 2.002 0 2.503c-1.503 0-1.503-.501-2.004-1.001-.501-.501-1.002-.501-1.503-.501 0 0 0 .501-.501.501-1.002 0-1.002-1.001-.501-1.502 1.002 0 1.503-.5 2.505 0 0-.5.501-1.001.501-1.502 0-.5-.501-.5-1.002-1.001zm-1.504-3.002c.501 0 2.004 1.501 1.002 1.501s-2.004-1.001-1.002-1.501zm2.004-1.502s.501 1.001.501 1.501c0 .501-.501 0-1.002 0-1.003 0-.502-2.503.501-1.501zm-3.006-6.007c.501 0 1.002 0 1.503 1.001.501.5.001 1.001-.501 1.502-.501 0 .501 1.501.501 2.002.501 0 .501 1.502 0 1.502s-1.503-.501-2.004-1.001c-.501-.501-.501-1.002 0-1.502 0-1.001-1.503-3.504.501-3.504zm1.002-7.509c0-.5 0-1.001.501-1.502.501-.5 1.002.501 1.002.501 0 1.001.501 2.503.501 3.004-.501 1.501-1.503 1.501-2.505 1.001 0-.501 0-2.503.501-3.004zm8.517 27.532c-1.503-2.003.501-2.003 2.505-1.502.501 0 .501.501 1.002 1.001 0 .501 0 .501-.501 1.001 0 .501.501 1.001 1.003 1.001 1.002 1.002 2.505-1.501 4.008-.5 1.503 1.001 2.004 3.003 3.507 4.005.501 0 1.503.5 2.004 1.001.501.5.501.5.501 1.001.501 0 1.002 0 1.002.5 1.002 1.502 2.004 3.004 2.505 4.506.501 1.001 2.505 4.004 1.002 4.505-1.002.5-1.503-1.502-1.503-2.002-.501-1.002-1.503-.001-2.004-.501-1.002-.501-1.503-2.002-2.505-2.002-1.002-.501-1.503 1.501-2.505.5-1.503-.5-1.503-1.502-3.006-2.002-1.002-.501-2.505-1.001-2.004-2.002.501-.501.501-1.002.501-1.502 0-1.001 0-1.001-.501-1.502-1.002-1.001-2.005-1.502-3.007-1.502-.501 0-1.503 0-2.004-.5 0 0-.501-1.001-1.002-1.502-.501 0-1.002-.501 0-1.001.501 0 1.002-.501 1.503-.501l-.501-.5zm18.537 2.503v-.501c1.503 0 3.507 1.502 3.006 2.503 0 .501-.501 1.001-1.002 1.001-.501-.5-.501-.5-.501-1.001-.501-.501-.501-1.001-.501-1.502-.501 0-1.002 0-1.002-.5zm-.502 3.003l.501-.501c.501 0 .501.501.501 1.001v1.001c-.501.501-.501.501-1.002.501-.501 1.001-1.503.501-1.002-.501.501-.5 1.503-.5 1.002-1.501zm3.509 0c1.503-.501 1.503 3.003.501 3.504-1.002.501-1.503-3.003-.501-3.504zm.502 4.505c.501-.501 1.002-.501 1.503-1.001v2.002c-.501.501-.501 2.003-1.002 2.003-1.002.5-.501-1.002-1.002-1.502 0-.501-.501 0 0-1.001l.501-.501zm-24.552 5.006h5.011c1.002 0 .501.5.501 1.502 0 1.001-.501 1.001-1.002 2.002-1.503 1.001.501 2.503 1.503 3.504.501 1.001 1.002 1.001 1.503 0 .501-1.001 1.002-1.001 1.002-2.002.501-1.002 1.002-1.502 1.002-2.003.501-1.001.501-2.002 1.002-2.503 2.004-1.501 1.503 3.004 1.503 4.005s0 1.502.501 2.503c.501 1.001.501 1.502.501 2.503-.501 1.501 0 3.504.501 5.006v4.505c0 1.001 0 2.002-.501 2.503 0 1.001-1.002 1.501-1.002 2.002-.501 1.001-1.002 1.502-1.503 2.503 0 .5-1.002 1.001-1.503 1.502 0 1.001-.501 1.501-1.002 2.002-.501 1.001-1.002 1.502-1.503 2.002-1.503 1.001-2.505 2.002-4.008 3.004h-2.005c-1.002 0-2.004.5-2.505.5-1.002 0-1.503 0-2.004-.5-.501-.501-.501-1.502-1.002-2.503 0-1.502 0-3.004.501-5.006-1.002.501-1.503 1.502-2.004 1.001-1.002-.5-.501-1.001-1.002-2.002-1.002-1.502-1.503-3.004-3.507-3.504-3.507-.501-6.513.5-9.519 1.001-.501 0-1.503-1.001-2.004-1.001-.501-.501-1.002-1.502-.501-2.003.501-.5 1.002-1.501 1.002-2.002.501-1.001.501-2.002.501-2.503 0-1.001.501-1.501 1.002-2.002.501-1.001.501-1.502 1.002-2.503.501-1.001 1.503-2.503 3.006-3.003 1.503-.501 3.006-1.002 4.509-2.003h1.002c.501 0 .501-.5 1.002-.5.501-1.001 1.002-1.001 1.503-1.502 1.503-1.502 3.006-2.002 4.509-2.002 1.503-.501 2.505-2.003 4.008-2.503zm-5.512 37.043c.501 0 1.002 0 1.504.5v.501h1.002c.501-.501 1.002-1.001 1.503-1.001 1.002.5 1.002 1.001.501 1.501l-1.503 1.502c-.501 0-.501 1.001-1.002 1.502-1.003.501-2.005.5-2.005-1.001-1.002.5-2.004-.501-2.004-1.502 0-.501 1.002-1.502 1.503-2.002h.501zm-82.665-133.655c.501 0 1.002 0 2.004.501 1.002 0 1.002 0 1.503-.501 1.003.501.502 1.502 0 2.003-1.002.5-1.503 1.001-3.006 1.001-1.002 0-2.004 0-2.004-1.001s1.002-1.502 1.503-2.003zm79.159 14.517c2.004 1.001 4.008 3.004 5.511 4.005.501 1.001.501 1.001 1.002 1.501 0 1.002 0 1.002.501 1.502.501.501 3.006 2.002 2.004 2.503-.501.501-3.006-.501-3.507-1.001-.501-.501-.501-2.503-1.002-3.004-1.503-2.002-4.008-3.003-5.011-5.005.502 0 .502-.501.502-.501zm11.525.501s2.505 1.001 1.002 1.502c-.501 0-1.503.5-2.505-.501.501 0 1.002-.5 1.503-1.001zm1.001 2.503c.501.501.501.501 0 1.001-.501.501-1.002 0-1.503 0-.501 0-.501-1.001 0-1.001h1.503zm-4.008 7.008c.501.5 1.503 1.001 1.503 1.001.501 0 2.505-.501 2.505 0 .501 1.001 1.503 1.001.501 1.502-.501.5-2.004 1.001-2.004 1.501 0 0-.501 1.502-1.002 1.502-1.002-.5-.501-2.002-1.002-2.503 0-.5-2.505-2.503-.501-3.003zm4.008 4.005c.501.5 0 1.501 0 2.002.501.501 1.002.501 1.503 1.001 0 1.001-.501 2.002-.501 2.503.501.501.501 2.002.501 2.503l-.501.5c0 .501.501 1.002 0 1.002 0 .5-.501.5-.501.5 0 .501 0 1.001-.501 1.502 0 .501-.501.501-1.002.501-1.002.5-2.004 1.501-3.006 1.501 0 .501-.501 2.003-1.503 1.502-.501-.501 0-2.002.501-2.002.501-1.002 1.002-1.502 1.503-2.503.501-.501 1.002-.501 2.004-.501-.501-1.001-1.503-1.502-1.503-2.002 0-.501 1.503-1.502 1.503-2.503.501-.501-.501-2.002 0-3.003.501-.501.501-2.503 1.503-2.503z" fill="#3A76BC"/><path d="M322.253 194.697c-1.002-.5-3.507 1.002-2.505 1.502 1.002 0 2.505-.5 2.505-1.502zm-3.003 2.002c0-.5-.501-.5-.501-1.001-.501.501-2.004 2.503-1.002 3.004.501.5.501-.501 1.002-1.001 0 0 1.002-.501.501-1.002zm13.025-41.548c2.004 0 3.006-.5 4.008-2.002.501-.5 1.002-1.001 1.503-1.001 1.002 0 1.503-.501 2.505-1.001.501 0 1.503-.501 2.004-.501 1.002-.5 1.002-1.001 2.004-1.501 1.503 0 3.006.5 4.509 1.001 1.002.5 3.508.5 3.508 2.002.501.501 0 1.001.501 2.002.501.501 1.002 1.502 1.002 2.003 0 .5-.501.5-.501 1.001v1.001c-.501 1.001-1.002 1.502-1.503 2.002-.502.501-1.003 1.001-2.005 1.001-.501 0-.501-2.502-.501-3.003-.501 0-1.002 0-1.002.501-.501 0-1.002-.501-1.002-1.002-.501.501-1.002 1.002-2.004 1.502-1.002 0-1.503 0-2.505-.5h-5.01c-.501 0-1.503 0-2.004-.501-.501 0-1.002-.501-1.002 0s-.501.501-1.002 1.001h-6.012c1.002-2.002 3.507-2.002 4.509-4.005zm10.022 16.52c.501 0 1.503.5 1.503 1.001 0 1.001-1.503.501-2.004.501-.501 0-1.503-.501-1.503-1.002.501-.5 1.503-.5 2.004-.5zm-3.508 1.502c.501.5 1.002.5 1.503 1.001.501.501-.501 1.001-1.002 1.001-.501-.5-1.503 0-2.004-1.001-.501-1.001.501-.501 1.503-1.001zm24.047 11.013c1.002.5 1.002.5 1.503 1.001.502.5 1.003 1.501.502 2.002-1.003.501-1.504-1.001-1.504-1.502-.501-.5-1.002-1.001-.501-1.501zm8.52-25.53c.501-.5.501-1.001 1.002-.5.501 0 .501 0 1.002.5.501.501 1.002 1.502.501 2.503-.501 1.001-1.002 1.001-2.004 0-1.002-.501-.501-2.002-.501-2.503zm7.515-9.511c.501-1.001 1.002-2.002 2.004-2.503.501-.5 3.006-1.001 2.505.501h-1.503c-.501.5-1.002 1.001-1.002 1.502-.501 0-1.002.5-1.002 1.001-.501 0-1.503.5-1.002-.501zm3.507-.501c1.002-.501 1.503-.501 2.505-.501.501 0 .501-1.501.501-1.501.501-1.001 1.002-1.502 1.503-2.003 1.002-.5 1.503-.5 2.505-.5 2.005 0 3.508-.501 5.011.5.501.501.501.501 1.503 0 1.002 0 1.503 0 2.505.501s1.503 1.001 2.505 1.502c.501.5 1.002 1.001 2.004 1.501.501.501 1.002 0 2.004.501 1.002 0 1.503.501 2.505 1.001.501.501.501.501.501 2.002 0 1.002.501 1.502 1.002 2.503.501.501 0 1.002.501 2.003.501.5 1.002 1.501 1.002 2.503.501.5.501 1.001 1.002 1.501 1.002.501 1.503 1.502 1.503 2.003 0 2.002-1.503 2.503-3.006 2.503s-3.006-.501-4.509-1.002c-2.004-1.001-3.006-1.501-4.509-3.003-.501-.501-1.002-1.502-1.503-1.502-1.002-.5-1.503-1.001-1.503-1.502 0-.5.501-2.002-.501-2.002s-1.503-.5-2.505-.5c-1.503 0-3.006-.501-4.509-.501-.502 0-1.504 0-2.506.501 0 0 .501.5 0 1.001h-1.002c0 2.503 2.505 1.001 4.009 2.002 2.004.501 3.507.501 5.01 1.001 1.002.501 1.002.501 1.503 1.502.501.5 1.002 1.001 2.004 1.502 1.002.5 1.503.5 2.505 1.001 1.002 0 1.002 1.001 0 1.502-.501 0-1.503 0-1.503.5-.501 1.001 0 1.502 0 2.503 0 .501 0 1.502-1.002 1.502-.501-.501-1.503-.501-2.505-1.001-1.002-.501-4.509 1.001-4.509-1.002 0-1.001 1.002-1.501 1.002-2.002.501-1.001-.501-1.001-1.002-1.502-1.002-.5-1.503-.5-2.506-1.001-1.002 0-2.004-.5-2.505-1.502-.501 0-1.002 0-1.002-.5-.501-.501-.501-1.001-1.002-1.502-.501-1.001-1.002-1.502-2.004-1.502-1.503 0-1.503-1.001-2.004-2.002v-1.502c-.501-1.001-.501-.5-1.002-.5-.501-.501-.501-.501-.501-1.001 0-.501-1.002-1.001-1.002-1.502.501-1.001 2.004 0 2.004.5.501 0 1.002-1.001 1.002-1.501 0-.501 0-1.001.501-1.502zm32.566 4.506c1.002-1.001 1.503-1.001 2.505-.501 1.002 1.001 2.004 1.001 2.505 1.502 1.002 1.001 1.503 1.502 2.505 2.002 0 .501.502 1.001 0 1.502h-1.503c-1.002 0-1.503-.501-2.505-1.001-.501-.501-.501-1.001-1.002-1.001-.501-.501-1.002 0-1.503 0-1.002.5-1.503.5-2.004-.501-.501-.501-.501-1.502 0-1.502s1.002 0 1.002-.5zm-37.577.5c0-.5.501-1.501 1.503-1.001.501.501 0 1.502 0 2.503-1.002-.501-1.503-.501-1.503-1.502zm-2.504 3.004c0-.501.501-1.001 1.002-1.502.501-.501 2.004-.501 1.503.501 0 .5-.501 1.501-1.002 2.002-.501 1.001-1.503 0-1.503-1.001zm4.006-.501c1.002-.501 1.503.5 1.503 1.501.501 1.002 0 1.502-.501 2.503-.501 0-1.503-1.001-2.004-1.501-.501-.501.501-1.002.501-1.002.501 0 0-1.001 0-1.501h.501zm-3.005 3.004c.501-.501 1.002-.501 2.004 0 .501.5.501.5.501 1.501-.501 0 0 1.002 0 1.002 0 .5.501.5 1.002.5s.501.501 1.002 1.001c0 .501.501.501 1.002 1.001 0 .501-.501.501-.501 1.002-1.002.5-2.004 0-3.006-.501-.501 0-1.503 0-2.505-1.001 0 0 .501-1.502.501-2.002 0-1.002-1.002-2.003 0-2.503z" fill="#3A76BC"/><path d="M451.015 245.256c-1.002-1.001-1.503-2.503-2.004-3.504 0-.501-1.503-1.001-1.503-1.502-1.002-.5-1.503-.5-2.004-.5-1.503-.501-2.506-1.002-4.009-1.502-.501 0-1.002-.501-1.503-.501h-2.505c.501-1.501.501-2.503 0-3.504-1.002-1.001-1.503-2.002-2.505-2.503-1.503 0-2.505-.5-3.507-1.001-.501-.5-1.002-1.001-1.002-1.502l-1.503-1.501c-1.002-.501-2.004-1.502-3.006-2.003-1.002-.5-2.004-2.002-3.006-2.502-.501 0-1.002 0-1.503-.501-1.002 0-1.503-1.001-2.004 0-.501.501-1.503 1.502-3.007 1.502l1.504-1.502c.501-.501.501-.501.501-1.001-.501 0-.501-.501-1.002-.501-1.504 1.001-3.508 1.001-5.011 1.502-.501 0-1.002 1.001-1.503 1.502 0 0 0-.501-.501 0h-.501c0 .5-.501 1.001-1.002 1.001-.501-.501-1.503-.501-2.004-.501-.501 0-1.503 1.001-2.004 1.001-1.002-.5-1.503-.5-2.004-1.001-.501-.5-.501-2.002 0-2.503 0-1.501.501-3.504-1.503-3.504-1.503 0-3.507 1.502-4.509 0-.501-1.501 2.505-3.003.501-4.004-1.503-1.001-3.006.5-4.509 1.001-.501.5-1.503.5-2.004 0-.501-.501-1.002-1.502-1.503-2.002-.502-1.002-.502-1.002-1.003-2.503 0-1.001.501-1.001 1.003-2.003 0-.5 0-1.501 1.002-2.503.501-.5 1.002 0 2.004 0 .501 0 1.503-.5 2.004-.5 1.002-.501 1.503-.501 2.505-1.001 1.002 0 1.503-.501 2.505-.501 1.002.501 1.503 1.001 2.004 2.002.501.501 0 1.002 0 2.003 0 .5 1.002 2.002 1.503 1.001 1.503-1.502 1.503-3.004.501-4.505 0-.501-.501-1.001-.501-1.502 0-1.001 0-1.502.501-2.002 1.002-1.502 2.004-2.503 3.006-3.504.501-1.002.501-3.004.501-4.005.501-1.001.501-3.003 2.004-3.504 1.503-1.001.501-2.503 1.503-3.504.501-1.001 1.503-2.002 2.505-3.504.501-.501.501-.501.501-1.502 0-.5-1.503-.5-1.002-1.502h1.002c.501-.5 0-.5-.501-1.001-.501 0-1.503.501-2.004.501.501.5 1.002.5 1.002 1.502-.501.5-1.002 1.001-1.503.5-.501-1.001 0-1.001-1.002-1.001-.501-.501-1.503 0-2.004 0 .501-.501 1.002-1.502 1.503-1.502 1.002 0 1.503-.5 2.505-.5 1.503 0 3.507-.501 3.507-2.003.501-1.001-.501-1.501-1.002-2.002 0-.501-.501-1.001-.501-1.001-.501 0-1.002.5-1.503.5-1.002 0-3.006-1.001-4.509-1.501-2.004-.501-2.505-1.001-4.008-2.503 0-.501-.501-1.502-1.503-1.001-.501.5-1.002.5-2.004 0-1.503-.501-3.006-1.001-4.509-.501-1.002 0-1.503 0-1.503 1.001-.501 1.502 0 1.502 1.002 2.003.501.5 0 1.001.501 1.501.501.501 1.503 1.001 1.503 1.502 0 1.502.501 3.004.501 4.505-1.002-.5-1.503-1.502-2.505-1.502-1.503-.5-2.004 0-3.006-1.001-1.002-.5-2.004-1.001-3.006-1.001 0-.5-1.003 0-1.003-.5l-1.002-1.002c-1.002-1.001-1.002-1.501 0-2.002.501-1.001 1.503-1.502 2.005-2.503 0-.5-1.003-2.503-.502-2.503.501-.5 1.504-1.001 2.506-1.501-.501-1.002-2.506-2.003-3.508-2.503-1.002-.501-1.503-1.001-2.004-1.502-1.002-.501-1.002-1.502-2.004-1.502-.501-.5-1.002-.5-1.503.501 0 .5.501 1.502.501 2.002.501 1.001 1.503 1.502 1.002 2.503-1.002 1.001-1.503.501-2.505 1.001-2.004 0-3.006 0-4.509-.5-1.002-.501-1.503-1.002-2.505-1.502-.501-.501-1.002-1.001-2.004-1.001-1.503-.501-3.006 0-4.509-1.001-1.503-.501-3.006-1.502-4.509-2.003-.501-.5-1.002-1.001-1.504-1.001 0-.5-.501-1.001-1.002-1.001-1.002-.501-2.505.501-4.008 1.001-1.002.501-2.505.501-3.006 1.001-.501.501-1.002 1.502-1.002 2.003 0 .5-.501.5-1.002.5-1.503.501-1.002 0-1.002 1.001l-1.002 1.001c-1.002 1.002-1.002 2.503-.501 3.505.501 1.001.501 1.001 0 1.501-.501 1.001-.501 1.001-1.503.501-1.002 0-2.505-.501-3.507.5l1.002 1.002h1.002c.501.5 1.503.5 2.505.5 1.002-.5 1.002-1.001 2.004-.5.501.5 1.503 0 2.004 0 2.004-.501 3.507-.501 5.511 0 1.503 0 2.505 2.002 3.006 3.003 1.504 3.004 2.506 6.007 4.009 9.01 0 .501.501.501.501.501 0 .501.501 1.001.501 1.502v2.503c-.501 2.002-.501 3.504-.501 5.506 0 .501 0 1.502.501 2.002 0 .501 1.002 1.502 1.002 2.003.501 1.001 1.002 2.002 1.503 2.503.501 1.001 1.002 1.501 1.503 2.002.501 2.002 1.002 3.003 2.004 4.505 1.002 1.502 1.503 3.004 3.006 4.005 1.002.5 0-1.502 0-2.003-.501-.5-1.002-1.001-1.002-2.002.501-1.001 0-1.001-.501-2.002-.501-.501-1.503-1.001-2.004-2.003-.501-1.001 0-1.501 1.002-1.001.501 0 1.002 1.001 1.002 1.502.501 1.001 1.002 1.502 1.002 2.002.501 1.001 1.002 1.502 1.503 2.503.501.501 1.002.501 1.503 1.502 0 .501.501 1.502 1.002 2.002.501.501 1.503 0 2.004 1.001.501.501.501 1.502 1.002 2.003 1.503 3.003 4.008 6.007 7.014 6.007 1.003 0 2.005-.501 2.506 0 1.002 0 1.503.5 2.505 1.001 1.002 1.001 2.505 2.002 4.008 2.503.501 0 1.503-.501 2.004 0 1.002.5 1.002 1.501 1.503 2.002.501.501 1.503 1.001 2.004 1.001h1.002c.501.501.501 1.001 1.002 1.502.501.5.501-1.001 1.002-1.502.501-1.001 1.002-1.001 2.004-.5 1.002 1.001 2.004 3.003 1.503 4.505-.501.5-1.002 1.001-1.503 2.002-.501.501-.501 1.502-1.002 2.503-.501 1.001 0 3.504 0 4.505.501.501.501 1.502.501 2.503 0 1.001.501 1.502.501 2.503 1.002 1.502.501 3.003 1.002 4.505 0 1.001-.501 2.003-.501 2.503.501.501 1.002 1.502 1.503 2.002.501 1.002 1.002 1.502 2.004 2.003v2.503c0 .5 0 1.001-.501 1.501 0 .501-.501 1.002-.501 1.502 0 1.502-.501 2.503-1.002 3.504 0 .501-.501 1.001-.501 1.502l-1.002.5c0 1.002-.501 1.502-.501 2.003-.501.5-1.002 1.001-1.002 1.501v1.502c0 1.001 0 .501-.501 1.001l-1.503 3.004c-1.002 1.001-1.503 2.002-2.004 3.003 0 1.001-1.002 2.003-1.503 3.004.501 0 1.002.5.501 1.001 0 .501-1.002.501-1.503 1.001-.501.501-2.004 1.001-2.004 2.002-.501 1.002.501 3.004-.501 3.504-.501.501-1.503 2.003 0 2.503-1.002 1.001-2.004 2.003-.501 3.504 0 0 1.002.501 1.002 1.002.501.5 0 1.501 0 2.002 1.002 0 1.002-.501 1.503-.501.501.501.501.501 1.002.501 0 .5 1.002.5 1.002.5.501-.5.501-.5 0-1.001v-2.002c-.501-1.502-1.002.501-1.503-.501 0-.5 0-.5.501-1.001.501-.5.501 0 1.002-.5 1.002 0 1.002-.501 1.503-1.502 1.002-1.502 1.503-3.004 2.505-4.005 1.002-2.002 2.004-3.003 3.507-4.505 1.503-1.001 2.505-2.002 3.507-2.503 1.503-.5 3.507-1.001 5.011-2.002l3.507-3.504c1.002-1.001 3.006-1.502 4.008-2.503 1.002-.501 1.503-.501 2.505-1.001 1.002 0 1.503-.501 2.004-1.001 1.503-1.002 2.505-1.502 4.008-2.503 1.002-1.001 2.004-2.503 3.006-3.004 1.503-.5 2.505-1.001 3.507-2.002 1.002-1.001 2.505-2.002 3.006-3.504.502-1.001.502-1.502 1.504-2.002 0-.501 0-1.502.501-2.003.501-1.501 1.503-2.503 2.505-4.004 1.002-1.002 1.503-2.003 2.505-3.504 0-.501.501-1.502 1.002-2.003.501-.5 0-1.001-.501-2.002zm-47.597-58.568c.501-.5 1.002 0 1.503-.5.501-.501 1.002 0 1.002.5.501.501-2.505.501-3.006.501l.501-.501zm-5.01-.5c1.002 0 1.002 0 2.004.5.501.501 2.004 1.001 1.002 1.502-.501 0-1.503-.5-2.004-.5-.501-.501-2.505-1.502-1.002-1.502zm-1.002.5c-.501.501-2.004 3.504-3.006 3.004 0-.501.501-.501.501-1.001 0-.501.501-1.001.501-1.502 0-1.001 1.503-1.502 2.004-.501zm-5.01-2.503c.501 0 1.503 0 2.505-.5.501-.501-1.503-1.001-1.002-2.002.501-.501 2.004 1.001 2.505 1.001.501.5.501 1.501 1.002 2.503H394.4c-.501 0-2.505 0-2.004-1.002z" fill="#3A76BC"/><path d="M414.945 183.684c0 .501-.501 1.001-1.002 1.502-1.002 0-.501-1.001-.501-1.502.501-.5 1.002-1.501 1.503-1.501 1.002 0 1.002 1.001 0 1.501zm.498-6.507c.501 0 1.002-1.001 1.503-.501.501.501-.501 1.001-.501 1.502.501.501 2.505 0 2.505 1.001.501.501 0 1.502-.501 1.502s-1.002-.501-1.002-1.001c-.501-.501-2.505 1.501-3.006.5-.501-1.001.501-2.503 1.002-3.003zm-11.522 35.541c1.503.5 3.006 1.502 4.509 1.502.501 0 1.002.5 1.002 1.001 0 .5-1.503.5-2.004.5-1.503-.5-2.505-1.001-4.008-2.002-.501 0-1.002-.501-1.002-1.502 0-.5 1.503.501 1.503.501zm10.522 2.503c1.002 0 2.505-.501 3.006 1.001 0 1.001-1.002 0-1.002 0h-2.004c-.501 0-1.002 0-1.503-.501-.501 0-.501-.5-1.002-1.001-.501-.5 1.002-.5 1.002-.5 1.002 0 1.002 0 1.503 1.001zm4.51 1.502c.501-.5.501-.5 1.503 0 0 0 .501.501.501 1.001 0 .501-1.503-.5-2.004-.5v-.501zm-28.56-49.057c1.002.501 1.503.501 2.004 1.001 0 1.001 0 1.502-1.002 1.001-1.002 0-1.503-.5-2.004-1.001v-1.001h1.002zm60.625-64.574l.501.5-3.507.501.501-1.001h2.505zm-341.697 71.082l2.505.5-1.002 4.005 30.061 7.509 1.503-4.005 2.505 1.001-5.511 23.027-3.006-.501 1.002-4.505-30.061-8.009-1.002 4.505-3.006-.501 6.012-23.026zm9.521-25.53l-7.014 17.02 2.505 1.502 2.004-4.505 29.059 11.513-1.503 4.004 2.505 1.002 4.51-11.514-2.506-1.501-2.004 4.004-19.539-7.508 27.556-3.504 6.513-12.014-30.061-16.519 2.505-4.005-2.505-1.502-6.513 11.513 2.505 1.502 2.505-4.004 18.537 10.512-29.059 4.004zm14.529-27.532c1.002-3.003 24.049-32.537 27.055-34.54l6.513 6.007-2.505 2.503-2.505-2.002s-5.01 2.503-8.517 6.507l22.546 18.021v7.008l-7.516 10.512-2.505-1.501 2.505-3.504-24.049-19.022s-3.507 6.007-4.509 10.011l2.505 2.503-1.503 2.002-7.515-4.505zm30.063-37.543c.501-1.502 27.556-25.53 30.562-26.53l5.01 7.007-2.004 2.002-2.505-3.003s-7.015 2.002-14.53 9.01l9.019 10.012s5.01-2.503 4.509-4.005l-2.004-2.002 2.004-2.002 6.513 8.009-2.004 1.502-2.505-2.503-4.008 3.504v1.001c.501 0 9.018 9.511 9.018 9.511l.501-.5c1.002-.501 8.016-7.51 8.517-10.012 0 0-.501-1.001-1.503-2.002-1.002-1.002-.501-1.002-.501-1.002l2.505-2.002 5.511 8.01-17.535 14.016h-12.025l-17.535-19.523-3.006 3.504-2.004-2.002zm93.189-53.562l-1.002-3.003 16.534-4.506 21.042 19.523-2.004-20.023-4.509.5-.501-2.503 13.027-2.002.501 3.004-4.509 1 4.008 33.54-11.524 1.501-20.541-19.522 5.511 20.023 3.507-1.001.501 3.003-11.023 3.004-1.002-2.503 4.009-1.001-8.518-30.035-3.507 1.001zm92.187 23.027l-14.028-35.541-12.025-.5-15.531 34.54-3.507.5.501 3.003c1.503-.5 11.523-.5 11.523-.5l-.501-3.505h-3.006l3.006-7.508 14.029-.5 3.507 8.008-4.008.501.501 3.004c3.006-.501 23.047 2.002 23.047 2.002v-3.004l-3.508-.5zm-32.065-12.515l6.513-13.515 5.011 13.515h-11.524zm38.075-12.013s1.503-7.509 2.004-8.51c0-.5 25.552 4.005 40.583 10.512l-2.505 8.51-3.507-1.001 1.002-3.504s-7.516-4.505-8.518-4.505c0 0-7.515 28.533-7.515 29.033l4.008 1.502-.501 3.003s-21.043-6.507-23.548-6.507l.501-2.503 4.51.5 7.515-28.533-10.021-.5-1.002 3.003-3.006-.5zm48.098 4.004s21.544 9.51 21.544 10.011c.501.5-1.002 3.004-1.002 3.004l-4.008-2.002-13.027 27.531 4.009 2.503-1.503 2.503s-19.54-10.011-21.544-10.011l.501-2.503 4.509 1.501 13.026-28.032-4.008-2.503 1.503-2.002zm55.111 32.037l-15.531-11.012c-17.035-6.007-24.049 4.004-26.053 12.013-2.505 11.013 5.01 16.52 5.01 16.52s10.521 9.51 13.026 10.512c9.019 5.005 20.542 2.502 25.552-5.507 7.516-12.514-2.004-22.526-2.004-22.526zm-6.513 2.503c-1.002 3.504-2.004 6.508-11.022 17.52 0 0-3.507 5.006-8.017 3.004 0 0-3.006-2.002-3.507-2.503-1.002-1.001-2.004-2.002-2.004-4.005.501-2.002 0-3.504 2.004-6.007 1.503-2.502 8.017-12.014 8.017-12.014s3.006-4.004 5.01-4.004c1.503 0 3.006 0 4.008.5 1.002 0 2.505 1.502 2.505 1.502s4.008 2.002 3.006 6.007zm2.507 36.543l.501-.501h5.512l-1.002.501h-5.011zm2.005-2.003l18.537-18.521-3.006-3.504 2.004-2.002 12.526 13.014-3.006 25.53 12.525-9.511-2.505-3.504 2.505-2.002 8.016 11.012-2.505 2.003-2.505-3.504-27.556 19.522-4.008-5.006v-3.504l3.006-28.533-8.517 8.51h-5.511zm65.131 41.548l-6.513-12.014-36.574 4.505-2.505-3.504-2.005 1.502 6.514 10.011 2.004-1.501-1.503-3.504 8.016-1.001 7.014 13.015-5.511 6.007-3.507-6.508-2.505 1.001 11.022 25.53 2.505-1.002-.501-3.504 24.049-29.033zm-29.059-6.007v.501l16.033-2.003-10.522 12.014-5.511-10.512zm39.079 39.545l-1.002-5.005 2.505-.501 6.513 24.028-3.006 1.001-1.503-5.006-29.56 7.509s1.503 10.512 4.008 11.513h4.509v3.504l-9.018 1.502s-5.512-32.538-7.516-34.54l2.004-1.001 2.005 4.505 30.061-7.509zM162.932 338.364l-8.517-15.518c-13.026-11.013-23.548-4.005-28.057 2.002-6.513 9.01-2.505 16.519-2.505 16.519s6.012 12.014 7.515 14.016c6.012 8.009 18.037 8.01 25.051 3.004 9.519-7.509 6.513-20.023 6.513-20.023zm-6.012 1.001c-.501.5-7.014 5.506-17.536 11.012 0 0-4.509 2.503-7.515-.5 0 0-2.505-2.503-2.505-3.504-.501-1.001-1.002-2.002 0-4.005 1.002-1.502 1.002-3.003 3.507-4.505l12.526-7.509s4.509-2.503 6.012-1.501c2.004.5 3.006 1.001 3.507 1.501 1.002 1.002 1.503 2.503 1.503 2.503s3.006 3.504.501 6.508z" fill="#3A76BC"/><path d="M134.874 268.283l-.501-5.006 3.006-.501s2.505 18.021 3.006 19.022c1.002.501-16.032 11.514-16.032 11.514l19.539 2.503 6.514 16.519-2.506 1.501-2.505-5.005-29.059 10.512 1.503 4.505-2.505 1.001-8.016-23.027 2.505-1.001 2.004 4.506 19.54-7.509-25.552-2.503-2.004-7.509 22.045-14.016-21.043 3.504 1.002 4.005-2.505 1.001-2.505-13.015 2.505-.501 1.002 4.505 30.562-5.005zm11.524 105.121l-3.006-4.005-2.505 1.502 8.517 11.013 2.004-1.502-3.006-4.005 17.035-13.015-6.514 29.534 9.52 9.511 23.548-24.528 2.505 2.503 1.503-2.503-7.516-7.509-2.004 2.003 2.505 3.003-15.03 15.017 6.513-29.534-9.519-11.513-2.505 2.002 2.505 2.503-24.55 19.523zm55.111 34.54l-9.519 10.512s6.513 5.506 12.525 7.008l2.505-4.005 3.006 2.002-5.01 7.509s-26.053-18.521-29.059-22.025l1.503-2.003 3.006 2.503 19.54-24.528-2.505-2.503 1.503-2.503s14.529 13.015 26.554 20.023l-5.01 8.01-2.505-1.502 2.004-4.005s-4.51-7.008-8.518-8.51l-8.517 11.013 4.008 3.004 2.004-2.003 2.505 1.502-5.01 8.009-2.505-1.001 2.004-3.504-4.509-3.003zm23.047 1.502l4.008-8.009s23.047 12.514 35.573 16.018l-2.506 8.51-3.507-1.001 1.002-3.504s-7.014-5.006-7.515-5.507l-12.525 28.533 4.008 1.502-1.002 2.503-22.045-9.511 1.002-2.503 4.509 2.002 12.025-28.533s-6.514-2.002-8.518-1.001l-2.004 2.003-2.505-1.502zM270.148 457c2.004.501 25.05 4.506 25.05 4.506v-3.004h-2.505l-7.014-35.541-13.527-3.504-22.045 28.533-3.507-.501-1.002 2.003 10.521 4.004 1.503-2.002-3.507-1.502 5.01-6.507 16.033 4.004 1.002 8.01-6.012-.501V457zm-9.019-16.519l10.021-11.513 3.507 15.518-13.528-4.005zm-1-379.438l-.501.5s-1.503.501-2.505.501c-.501 0-2.004-1.001-2.505-1.502 0-.5-2.004-4.505-2.505-5.005-.501 0-3.006-3.004-5.512-2.503-2.505.5-4.008 0-4.008 0 9.52-8.01 1.002-19.523-7.014-18.522-7.014 1.002-35.071 18.522-35.071 18.522l2.004 2.002 3.507-2.002 15.031 27.03-3.508 2.504 2.004 2.002 19.54-11.013-1.503-3.003s-1.503 1.502-2.505 1.502c-1.002.5-1.002 0-1.002 0l-6.513-12.014 5.511-2.503s2.004-.5 3.006-1.001c.501 0 1.503 1 1.503 1s4.509 8.51 5.511 10.013c.501 1 2.505 1 3.006 1 .501.501 5.512-1 5.512-1l9.519-3.505-1.002-3.003zm-27.055-7.509c-.501 1.001-7.014 4.005-7.014 4.005l-7.015-12.515 7.516-3.504s2.004-.5 3.006.501c1.002 1.001 5.01 9.01 5.01 9.01s-.501 2.003-1.503 2.503zm113.73 404.969l-.501.5s-3.006 0-4.008-1.001c0-.5 0-.5-.501-.5.501 0 .501-.501 0-2.503 0-5.006-5.512-9.011-5.512-9.011s7.516-4.004 7.516-10.011-5.511-9.511-7.015-9.511c-1.503-.501-4.509-.501-4.509-.501-9.018 1.001-32.065-1.001-32.065-1.001l.501 3.003 3.507.501-1.503 30.535h-3.507s-.501 3.004 0 3.004 22.045 1.001 22.045 1.001l-.501-3.004h-3.006l.501-14.016h7.014c.501-.5 2.004 2.503 2.004 2.503s.501 10.512.501 11.013c0 .5 2.505 2.503 3.507 3.003 1.002 0 16.534-1.001 16.534-1.001l-1.002-3.003zm-19.039-17.521s0 1.502-1.002 2.003h-8.016l1.002-14.017h7.014l1.503 1.502c0 1.001-.501 10.512-.501 10.512zm16.536-16.519l24.049-4.005s1.002 2.003 1.002 2.503c0 .501-3.507 0-3.006 1.002 0 .5 11.523 9.01 11.523 9.01s7.014-13.015 6.513-15.017l-3.006 1.001-1.002-2.503 11.022-4.005 1.504 2.003-3.508 2.002-8.517 20.524 3.507 13.515 4.008-.5 1.002 2.502-23.046 5.507-1.002-2.002 4.509-1.502-3.507-13.516-18.538-14.016-3.006.501-.501-3.004zm66.633-21.525s24.549-14.016 29.059-20.524l6.012 7.509-2.505 2.503-3.006-3.004s-8.017 2.002-11.524 5.507l7.516 12.013 4.509-3.504-1.503-3.003 3.006-2.002 6.012 7.508-3.006 2.503-2.004-2.503-5.01 3.504 7.014 11.514 3.507-2.503 2.004 2.503-20.041 13.515-2.004-2.503 3.507-2.503-16.032-26.53-4.509 2.002-1.002-2.002zm32.566-22.526l15.031-16.019 2.505 2.503-2.505 2.503 16.533 17.02s4.008 2.502 7.515 0c3.508-2.003 6.013-4.005 5.011-8.51-1.002-4.005-2.004-4.005-3.006-5.006-1.504-1.001-16.534-14.517-16.534-14.517l-2.505 3.504-2.505-2.503 7.014-9.01 2.505 2.002-2.004 3.004L487.59 369.9s4.008 6.006 4.008 9.51c-.501 3.505-1.002 5.507-1.503 6.007-1.002 1.002-11.023 11.514-11.023 11.514s-5.01 3.003-7.515 3.003c-2.004 0-6.012-1.502-7.014-3.003-1.503-1.001-17.035-17.02-17.035-17.02l-2.505 2.503-1.503-2.002zm31.063-31.537l-2.004-1.501 7.014-12.014 30.061-6.007-18.037-9.011-2.004 3.504-2.505-1.501 5.01-10.012 2.505 1.001-1.503 3.504 30.562 14.517-5.511 12.014-29.56 5.006 16.033 12.014 2.505-4.506 2.505 1.502-7.515 11.013-2.004-1.502 2.505-4.005-25.552-17.019-2.505 3.003zm47.096-77.589c-13.528-3.004-19.54 9.511-19.54 9.511l-8.517 28.032 2.505 1.001 1.503-4.004 29.059 10.011-1.503 5.006 3.006 1.001s9.018-26.03 9.018-32.037c.501-6.007-4.008-16.018-15.531-18.521zm12.024 23.026l-2.004 7.509s-29.56-9.511-29.56-10.012c0 0 .501-3.504 1.002-6.006 1.002-2.503 3.507-1.502 3.507-1.502s22.045 6.007 25.051 7.008c3.006.5 2.004 3.003 2.004 3.003zm-419.351-60.57l4.008-11.013 3.006 11.013h11.524l-9.52 7.008 3.507 11.013-9.018-7.008-10.02 7.509 4.008-11.514-9.018-7.008h11.523zm406.324 3.004l4.008-11.013 3.007 11.013h11.523l-9.519 7.008 4.008 11.013-9.52-7.008-10.02 7.509 4.008-11.514-9.018-7.008h11.523z" fill="#3A76BC"/></svg>