<svg width="171" height="62" viewBox="0 0 171 62" fill="none" xmlns="http://www.w3.org/2000/svg">
<path fill-rule="evenodd" clip-rule="evenodd" d="M10.3866 36.7976C7.93969 36.7976 5.43151 36.9572 2.93581 36.9572L0.55928 41.0967C3.5464 41.0967 6.10565 40.937 8.95998 40.937C8.49126 42.9572 7.95898 45.2725 7.95898 47.466H2.30252L0.400391 50.332H8.00892C8.20185 52.661 9.12908 54.2434 10.3253 55.6467C12.4101 58.0887 15.0352 59.1956 17.9962 60.3607C19.6283 61.0014 21.468 61.3651 23.3349 61.6854C24.126 61.8211 25.0123 61.9089 25.9521 61.9545H29.0186C31.7606 61.8348 34.5695 61.4061 36.5829 60.7233C38.6133 60.0347 40.352 59.2332 42.2995 58.3452C43.0134 58.0191 43.6727 58.0111 43.6727 57.0182V45.7137C43.6727 44.3959 42.3982 44.5999 41.454 44.5999C40.2237 44.5999 40.3349 45.594 40.3429 46.8275L40.344 57.0182C39.6528 57.1801 38.9526 57.4525 38.2558 57.627C37.526 57.8105 36.6283 57.9336 35.8406 58.067C31.5574 58.7932 25.4867 58.5994 21.6609 57.1573C19.4149 56.3114 17.5196 54.151 17.5196 51.6054C17.5196 50.8051 17.5854 50.8871 17.6773 50.1724H34.0043C34.3516 50.1724 37.8892 48.0063 38.2841 47.466H18.1302C18.7135 44.9499 19.2923 42.6357 20.5305 40.7786L47.4804 40.7809C48.8242 40.7945 48.6766 40.8527 49.5085 40.2713L54.7541 36.7828C55.0594 36.5708 55.2762 36.5104 55.4022 36.1604C54.0823 36.1604 52.7612 36.1615 51.4402 36.1604C42.1985 36.1558 32.8274 36.638 23.5426 36.638C28.1629 27.8667 37.2627 20.6162 46.5055 17.5119C52.5478 15.4827 70.2186 11.7115 75.2293 20.0667C75.816 21.046 76.4845 22.6329 76.4845 24.2198L91.3838 11.1631C91.3191 10.3731 90.6824 9.208 90.3272 8.56389C88.6463 5.51889 85.2189 3.23885 81.9594 2.16153C80.8733 1.80242 80.0482 1.58354 78.9859 1.32589C67.2485 -1.52188 51.0963 2.42715 37.307 9.98435C24.3609 17.0787 17.2642 23.9929 10.3866 36.7976Z" fill="#393185"/>
<path fill-rule="evenodd" clip-rule="evenodd" d="M159.861 44.7588C159.861 47.3205 162.565 45.6845 165.735 46.4996C166.579 46.7162 167.09 46.8838 167.151 47.6248C163.559 47.6248 159.966 47.6294 156.373 47.6248C154.168 47.6226 151.462 48.0341 150.146 49.4899C148.956 50.8021 149.24 52.3479 149.24 54.1526C149.24 56.6812 153.032 58.1336 155.739 58.1336H164.616C169.193 58.1336 170.378 56.2799 170.639 53.545V48.2621C170.639 46.5623 170.034 45.371 168.95 44.703C166.382 43.1206 163.637 43.4854 160.653 43.4854C160.088 43.4854 159.861 44.2036 159.861 44.7588ZM167.448 50.3894V53.7673C167.448 53.7673 167.407 55.3177 164.775 55.3177C162.143 55.3177 155.688 55.3542 155.688 55.3542C155.688 55.3542 152.64 55.5149 152.64 53.5872C152.64 51.6594 152.641 51.8862 152.641 51.8862C152.641 51.8862 152.67 50.378 155.239 50.378C157.81 50.378 167.448 50.3894 167.448 50.3894Z" fill="#393185"/>
<path fill-rule="evenodd" clip-rule="evenodd" d="M82.3499 43.6443C81.5304 47.1738 83.2442 45.9562 85.8806 46.3062C87.2924 46.4943 88.7156 46.1694 89.4817 47.6241C85.7841 47.6241 82.0843 47.6321 78.3867 47.6241C75.5119 47.6172 71.4126 48.5475 71.4126 51.7635V53.9934C71.4126 56.6918 75.1102 58.1328 77.9112 58.1328H87.1052C90.1071 58.1328 92.8104 56.8126 92.8104 53.8338V47.9433C92.8104 46.2652 92.0773 45.3064 91.0422 44.6247C88.9562 43.2498 83.394 43.2361 82.3499 43.6443ZM89.6962 50.3316V53.7095C89.6962 53.7095 89.6554 55.2599 87.0235 55.2599C84.3927 55.2599 77.9373 55.2964 77.9373 55.2964C77.9373 55.2964 74.89 55.4572 74.89 53.5294C74.89 51.6005 74.89 51.8273 74.89 51.8273C74.89 51.8273 74.9195 50.3202 77.489 50.3202C80.0584 50.3202 89.6962 50.3316 89.6962 50.3316Z" fill="#393185"/>
<path fill-rule="evenodd" clip-rule="evenodd" d="M120.075 47.4663C120.075 55.8215 135.291 49.5366 135.291 53.5164C135.291 55.0748 134.275 55.2823 132.282 55.2698L123.403 55.2675C120.996 55.2663 120.232 54.9927 120.232 57.0185C120.232 57.7618 120.602 58.1335 121.342 58.1335H133.231C135.818 58.1335 138.778 56.9479 138.778 54.1525C138.778 52.4619 138.762 50.9662 136.884 50.0063C135.655 49.3781 134.461 49.2094 132.597 49.2162C130.6 49.2242 123.561 49.8501 123.561 48.1024C123.561 46.275 123.497 46.4449 126.579 46.3559L130.378 46.1918C131.275 44.4874 130.598 43.4854 130.061 43.4854C126.81 43.4854 120.075 42.709 120.075 47.4663Z" fill="#393185"/>
<path fill-rule="evenodd" clip-rule="evenodd" d="M47.4771 47.784V56.8597C47.4771 58.4375 48.9479 58.1331 50.0136 58.1331C50.3949 58.1331 50.7615 58.051 50.8058 57.6554C50.8058 54.6287 50.8126 51.6008 50.8001 48.574C50.7967 47.7304 50.7854 47.1832 51.2756 46.8218C51.699 46.5106 52.3969 46.3464 53.1766 46.343C56.8856 46.3305 57.9104 46.05 62.214 46.3544C64.384 46.5083 64.1218 47.2357 64.1207 49.3755C64.1196 50.9681 64.1207 52.5607 64.1207 54.1522C64.1207 58.3497 63.879 58.1331 66.6573 58.1331C67.3076 58.1331 67.6083 57.2576 67.6083 56.5405V48.4201C67.6083 46.6292 67.2009 45.4401 66.0943 44.6866C65.2216 44.0938 63.4613 43.485 62.0597 43.485H53.0246C50.6435 43.485 47.4771 44.6455 47.4771 47.784Z" fill="#393185"/>
<path fill-rule="evenodd" clip-rule="evenodd" d="M96.457 47.3063V57.0182C96.457 58.3429 97.5432 58.1331 98.6758 58.1331C100.256 58.1331 99.7858 55.9545 99.7858 54.3118C99.7858 52.6667 99.7869 51.0217 99.7858 49.3755C99.7835 46.3111 99.2943 46.1914 106.443 46.1914C113.442 46.1914 113.104 46.3533 113.1 49.3755C113.098 51.0217 113.1 52.6667 113.1 54.3118C113.1 57.8698 112.631 58.1331 115.319 58.1331C116.059 58.1331 116.428 57.7615 116.428 57.0182V46.9883C116.428 44.8462 113.216 43.485 110.881 43.485H102.005C99.4578 43.485 96.457 44.8177 96.457 47.3063Z" fill="#393185"/>
<path fill-rule="evenodd" clip-rule="evenodd" d="M141.948 45.8734V56.8598C141.948 58.3954 143.342 58.1332 144.168 58.1332C145.244 58.1332 145.436 57.2953 145.436 56.2225V46.5107C145.436 44.4108 144.619 44.6 143.217 44.6C142.45 44.6 141.948 45.1027 141.948 45.8734Z" fill="#393185"/>
<path fill-rule="evenodd" clip-rule="evenodd" d="M141.473 42.6893C141.473 43.2559 141.585 43.5557 142.199 44.03C143.023 44.6661 145.752 44.8702 145.752 42.5297C145.752 40.342 141.473 40.4138 141.473 42.6893Z" fill="#393185"/>
<path fill-rule="evenodd" clip-rule="evenodd" d="M39.8687 42.5299C39.8687 45.3184 44.1484 44.8248 44.1484 42.6895C44.1484 42.2085 43.9056 41.7285 43.6082 41.4811C42.3258 40.4129 39.8687 40.9841 39.8687 42.5299Z" fill="#393185"/>
</svg>
