<svg width="257" height="62" fill="none" xmlns="http://www.w3.org/2000/svg"><path d="M70.712 49.48c-.704 0-1.264-.192-1.68-.576-.384-.416-.576-.976-.576-1.68V21.592c0-1.92.576-3.424 1.728-4.512 1.152-1.12 2.752-1.68 4.8-1.68h14.88c1.504 0 2.256.624 2.256 1.872 0 .544-.208.976-.624 1.296-.384.32-.928.48-1.632.48H75.368c-.736 0-1.328.24-1.776.72-.416.48-.624 1.12-.624 1.92v8.784h13.248c1.504 0 2.256.624 2.256 1.872 0 .576-.208 1.024-.624 1.344-.384.32-.928.48-1.632.48H72.968v13.056c0 .704-.208 1.264-.624 1.68-.384.384-.928.576-1.632.576zm27.57-28.848c-.833 0-1.537-.256-2.113-.768a2.662 2.662 0 01-.864-2.016c0-.8.288-1.472.864-2.016.576-.544 1.28-.816 2.112-.816.896 0 1.632.272 2.208.816.608.544.912 1.216.912 2.016 0 .768-.304 1.424-.912 1.968-.576.544-1.312.816-2.208.816zm.047 28.848c-.704 0-1.248-.192-1.632-.576-.384-.416-.576-.976-.576-1.68V27.256c0-.704.192-1.248.576-1.632.384-.416.928-.624 1.632-.624.704 0 1.248.208 1.632.624.384.384.576.928.576 1.632v19.968c0 .704-.192 1.264-.576 1.68-.384.384-.928.576-1.632.576zm11.277 0c-.704 0-1.248-.192-1.632-.576-.352-.416-.528-.976-.528-1.68V27.256c0-1.504.72-2.256 2.16-2.256.672 0 1.2.208 1.584.624.384.384.576.928.576 1.632v2.352c2.368-3.072 5.584-4.608 9.648-4.608 3.072 0 5.44.896 7.104 2.688 1.696 1.76 2.544 4.256 2.544 7.488v12.048c0 .704-.208 1.264-.624 1.68-.384.384-.912.576-1.584.576-.704 0-1.248-.192-1.632-.576-.384-.416-.576-.976-.576-1.68V35.176c0-2.144-.512-3.76-1.536-4.848-.992-1.088-2.48-1.632-4.464-1.632-2.688 0-4.832.8-6.432 2.4-1.568 1.568-2.352 3.696-2.352 6.384v9.744c0 .704-.208 1.264-.624 1.68-.384.384-.928.576-1.632.576zm36.255 0c-3.104 0-5.568-.704-7.392-2.112-1.792-1.408-2.688-3.312-2.688-5.712s.944-4.304 2.832-5.712c1.92-1.408 4.528-2.112 7.824-2.112 1.728 0 3.264.224 4.608.672 1.376.448 2.48 1.056 3.312 1.824v-2.4c0-1.728-.56-3.04-1.68-3.936-1.088-.928-2.704-1.392-4.848-1.392-2.848 0-5.312.656-7.392 1.968-.608.352-1.136.528-1.584.528-.416 0-.832-.176-1.248-.528a1.706 1.706 0 01-.528-1.248c0-.544.272-1.04.816-1.488 1.152-.864 2.608-1.552 4.368-2.064 1.76-.512 3.6-.768 5.52-.768 3.488 0 6.208.8 8.16 2.4 1.952 1.568 2.928 3.776 2.928 6.624V47.32c0 .704-.192 1.248-.576 1.632-.352.352-.88.528-1.584.528-.704 0-1.248-.176-1.632-.528-.384-.384-.576-.896-.576-1.536v-1.344c-1.92 2.272-4.8 3.408-8.64 3.408zm.768-3.408c2.336 0 4.208-.416 5.616-1.248 1.44-.864 2.16-1.984 2.16-3.36 0-1.344-.688-2.384-2.064-3.12-1.344-.768-3.216-1.152-5.616-1.152-2.08 0-3.68.384-4.8 1.152-1.12.768-1.68 1.872-1.68 3.312 0 1.408.544 2.496 1.632 3.264 1.12.768 2.704 1.152 4.752 1.152zm20.164 3.408c-.704 0-1.248-.192-1.632-.576-.352-.416-.528-.976-.528-1.68V27.256c0-1.504.72-2.256 2.16-2.256.672 0 1.2.208 1.584.624.384.384.576.928.576 1.632v2.352c2.368-3.072 5.584-4.608 9.648-4.608 3.072 0 5.44.896 7.104 2.688 1.696 1.76 2.544 4.256 2.544 7.488v12.048c0 .704-.208 1.264-.624 1.68-.384.384-.912.576-1.584.576-.704 0-1.248-.192-1.632-.576-.384-.416-.576-.976-.576-1.68V35.176c0-2.144-.512-3.76-1.536-4.848-.992-1.088-2.48-1.632-4.464-1.632-2.688 0-4.832.8-6.432 2.4-1.568 1.568-2.352 3.696-2.352 6.384v9.744c0 .704-.208 1.264-.624 1.68-.384.384-.928.576-1.632.576zm37.887 0c-2.464 0-4.656-.416-6.576-1.248-1.92-.864-3.44-2.016-4.56-3.456-.32-.416-.48-.832-.48-1.248 0-.704.336-1.232 1.008-1.584.288-.16.592-.24.912-.24.544 0 1.104.288 1.68.864 1.056 1.12 2.224 1.936 3.504 2.448 1.28.512 2.752.768 4.416.768 1.536 0 2.784-.24 3.744-.72.992-.512 1.488-1.2 1.488-2.064 0-.64-.192-1.168-.576-1.584-.352-.416-.976-.816-1.872-1.2-.896-.384-2.304-.896-4.224-1.536-3.232-1.024-5.52-2.08-6.864-3.168-1.312-1.088-1.968-2.512-1.968-4.272 0-1.888.816-3.392 2.448-4.512 1.664-1.152 3.904-1.728 6.72-1.728 2.08 0 4 .352 5.76 1.056 1.792.672 3.12 1.6 3.984 2.784.288.384.432.784.432 1.2 0 .544-.288 1.008-.864 1.392-.416.256-.832.384-1.248.384-.64 0-1.248-.288-1.824-.864a6.949 6.949 0 00-2.688-1.68c-.992-.384-2.192-.576-3.6-.576-1.504 0-2.656.224-3.456.672-.768.448-1.152 1.088-1.152 1.92 0 .64.176 1.152.528 1.536.352.384.96.752 1.824 1.104.864.352 2.304.848 4.32 1.488 2.24.704 3.984 1.408 5.232 2.112 1.28.704 2.192 1.488 2.736 2.352.544.864.816 1.904.816 3.12 0 1.952-.88 3.52-2.64 4.704-1.728 1.184-4.048 1.776-6.96 1.776zm17.632-28.848c-.831 0-1.535-.256-2.111-.768a2.662 2.662 0 01-.864-2.016c0-.8.288-1.472.864-2.016.576-.544 1.28-.816 2.111-.816.897 0 1.633.272 2.209.816.608.544.912 1.216.912 2.016 0 .768-.304 1.424-.912 1.968-.576.544-1.312.816-2.209.816zm.049 28.848c-.704 0-1.248-.192-1.632-.576-.384-.416-.576-.976-.576-1.68V27.256c0-.704.192-1.248.576-1.632.384-.416.928-.624 1.632-.624.704 0 1.248.208 1.632.624.384.384.576.928.576 1.632v19.968c0 .704-.192 1.264-.576 1.68-.384.384-.928.576-1.632.576zm18.14 0c-3.104 0-5.568-.704-7.392-2.112-1.792-1.408-2.688-3.312-2.688-5.712s.944-4.304 2.832-5.712c1.92-1.408 4.528-2.112 7.824-2.112 1.728 0 3.264.224 4.608.672 1.376.448 2.48 1.056 3.312 1.824v-2.4c0-1.728-.56-3.04-1.68-3.936-1.088-.928-2.704-1.392-4.848-1.392-2.848 0-5.312.656-7.392 1.968-.608.352-1.136.528-1.584.528-.416 0-.832-.176-1.248-.528a1.706 1.706 0 01-.528-1.248c0-.544.272-1.04.816-1.488 1.152-.864 2.608-1.552 4.368-2.064 1.76-.512 3.6-.768 5.52-.768 3.488 0 6.208.8 8.16 2.4 1.952 1.568 2.928 3.776 2.928 6.624V47.32c0 .704-.192 1.248-.576 1.632-.352.352-.88.528-1.584.528-.704 0-1.248-.176-1.632-.528-.384-.384-.576-.896-.576-1.536v-1.344c-1.92 2.272-4.8 3.408-8.64 3.408zm.768-3.408c2.336 0 4.208-.416 5.616-1.248 1.44-.864 2.16-1.984 2.16-3.36 0-1.344-.688-2.384-2.064-3.12-1.344-.768-3.216-1.152-5.616-1.152-2.08 0-3.68.384-4.8 1.152-1.12.768-1.68 1.872-1.68 3.312 0 1.408.544 2.496 1.632 3.264 1.12.768 2.704 1.152 4.752 1.152z" fill="#393185"/><path stroke="#202020" stroke-width="3" stroke-linecap="round" d="M10.121 16L44 49.879"/><path stroke="#393185" stroke-width="3" stroke-linecap="round" d="M10 49.879L43.879 16"/><circle cx="41" cy="33" r="5" stroke="#202020" stroke-width="3"/><circle cx="27" cy="47" r="5" transform="rotate(90 27 47)" stroke="#393185" stroke-width="3"/><circle cx="12" cy="33" r="5" stroke="#202020" stroke-width="3"/><circle cx="27" cy="17" r="5" transform="rotate(90 27 17)" stroke="#393185" stroke-width="3"/></svg>