<svg width="257" height="62" viewBox="0 0 257 62" fill="none" xmlns="http://www.w3.org/2000/svg">
<path d="M70.712 49.48C70.008 49.48 69.448 49.288 69.032 48.904C68.648 48.488 68.456 47.928 68.456 47.224V21.592C68.456 19.672 69.032 18.168 70.184 17.08C71.336 15.96 72.936 15.4 74.984 15.4H89.864C91.368 15.4 92.12 16.024 92.12 17.272C92.12 17.816 91.912 18.248 91.496 18.568C91.112 18.888 90.568 19.048 89.864 19.048H75.368C74.632 19.048 74.04 19.288 73.592 19.768C73.176 20.248 72.968 20.888 72.968 21.688V30.472H86.216C87.72 30.472 88.472 31.096 88.472 32.344C88.472 32.92 88.264 33.368 87.848 33.688C87.464 34.008 86.92 34.168 86.216 34.168H72.968V47.224C72.968 47.928 72.76 48.488 72.344 48.904C71.96 49.288 71.416 49.48 70.712 49.48ZM98.2812 20.632C97.4493 20.632 96.7453 20.376 96.1693 19.864C95.5933 19.32 95.3053 18.648 95.3053 17.848C95.3053 17.048 95.5933 16.376 96.1693 15.832C96.7453 15.288 97.4493 15.016 98.2812 15.016C99.1773 15.016 99.9133 15.288 100.489 15.832C101.097 16.376 101.401 17.048 101.401 17.848C101.401 18.616 101.097 19.272 100.489 19.816C99.9133 20.36 99.1773 20.632 98.2812 20.632ZM98.3293 49.48C97.6253 49.48 97.0813 49.288 96.6973 48.904C96.3133 48.488 96.1213 47.928 96.1213 47.224V27.256C96.1213 26.552 96.3133 26.008 96.6973 25.624C97.0813 25.208 97.6253 25 98.3293 25C99.0333 25 99.5773 25.208 99.9613 25.624C100.345 26.008 100.537 26.552 100.537 27.256V47.224C100.537 47.928 100.345 48.488 99.9613 48.904C99.5773 49.288 99.0333 49.48 98.3293 49.48ZM109.606 49.48C108.902 49.48 108.358 49.288 107.974 48.904C107.622 48.488 107.446 47.928 107.446 47.224V27.256C107.446 25.752 108.166 25 109.606 25C110.278 25 110.806 25.208 111.19 25.624C111.574 26.008 111.766 26.552 111.766 27.256V29.608C114.134 26.536 117.35 25 121.414 25C124.486 25 126.854 25.896 128.518 27.688C130.214 29.448 131.062 31.944 131.062 35.176V47.224C131.062 47.928 130.854 48.488 130.438 48.904C130.054 49.288 129.526 49.48 128.854 49.48C128.15 49.48 127.606 49.288 127.222 48.904C126.838 48.488 126.646 47.928 126.646 47.224V35.176C126.646 33.032 126.134 31.416 125.11 30.328C124.118 29.24 122.63 28.696 120.646 28.696C117.958 28.696 115.814 29.496 114.214 31.096C112.646 32.664 111.862 34.792 111.862 37.48V47.224C111.862 47.928 111.654 48.488 111.238 48.904C110.854 49.288 110.31 49.48 109.606 49.48ZM145.861 49.48C142.757 49.48 140.293 48.776 138.469 47.368C136.677 45.96 135.781 44.056 135.781 41.656C135.781 39.256 136.725 37.352 138.613 35.944C140.533 34.536 143.141 33.832 146.437 33.832C148.165 33.832 149.701 34.056 151.045 34.504C152.421 34.952 153.525 35.56 154.357 36.328V33.928C154.357 32.2 153.797 30.888 152.677 29.992C151.589 29.064 149.973 28.6 147.829 28.6C144.981 28.6 142.517 29.256 140.437 30.568C139.829 30.92 139.301 31.096 138.853 31.096C138.437 31.096 138.021 30.92 137.605 30.568C137.253 30.216 137.077 29.8 137.077 29.32C137.077 28.776 137.349 28.28 137.893 27.832C139.045 26.968 140.501 26.28 142.261 25.768C144.021 25.256 145.861 25 147.781 25C151.269 25 153.989 25.8 155.941 27.4C157.893 28.968 158.869 31.176 158.869 34.024V47.32C158.869 48.024 158.677 48.568 158.293 48.952C157.941 49.304 157.413 49.48 156.709 49.48C156.005 49.48 155.461 49.304 155.077 48.952C154.693 48.568 154.501 48.056 154.501 47.416V46.072C152.581 48.344 149.701 49.48 145.861 49.48ZM146.629 46.072C148.965 46.072 150.837 45.656 152.245 44.824C153.685 43.96 154.405 42.84 154.405 41.464C154.405 40.12 153.717 39.08 152.341 38.344C150.997 37.576 149.125 37.192 146.725 37.192C144.645 37.192 143.045 37.576 141.925 38.344C140.805 39.112 140.245 40.216 140.245 41.656C140.245 43.064 140.789 44.152 141.877 44.92C142.997 45.688 144.581 46.072 146.629 46.072ZM166.793 49.48C166.089 49.48 165.545 49.288 165.161 48.904C164.809 48.488 164.633 47.928 164.633 47.224V27.256C164.633 25.752 165.353 25 166.793 25C167.465 25 167.993 25.208 168.377 25.624C168.761 26.008 168.953 26.552 168.953 27.256V29.608C171.321 26.536 174.537 25 178.601 25C181.673 25 184.041 25.896 185.705 27.688C187.401 29.448 188.249 31.944 188.249 35.176V47.224C188.249 47.928 188.041 48.488 187.625 48.904C187.241 49.288 186.713 49.48 186.041 49.48C185.337 49.48 184.793 49.288 184.409 48.904C184.025 48.488 183.833 47.928 183.833 47.224V35.176C183.833 33.032 183.321 31.416 182.297 30.328C181.305 29.24 179.817 28.696 177.833 28.696C175.145 28.696 173.001 29.496 171.401 31.096C169.833 32.664 169.049 34.792 169.049 37.48V47.224C169.049 47.928 168.841 48.488 168.425 48.904C168.041 49.288 167.497 49.48 166.793 49.48ZM204.68 49.48C202.216 49.48 200.024 49.064 198.104 48.232C196.184 47.368 194.664 46.216 193.544 44.776C193.224 44.36 193.064 43.944 193.064 43.528C193.064 42.824 193.4 42.296 194.072 41.944C194.36 41.784 194.664 41.704 194.984 41.704C195.528 41.704 196.088 41.992 196.664 42.568C197.72 43.688 198.888 44.504 200.168 45.016C201.448 45.528 202.92 45.784 204.584 45.784C206.12 45.784 207.368 45.544 208.328 45.064C209.32 44.552 209.816 43.864 209.816 43C209.816 42.36 209.624 41.832 209.24 41.416C208.888 41 208.264 40.6 207.368 40.216C206.472 39.832 205.064 39.32 203.144 38.68C199.912 37.656 197.624 36.6 196.28 35.512C194.968 34.424 194.312 33 194.312 31.24C194.312 29.352 195.128 27.848 196.76 26.728C198.424 25.576 200.664 25 203.48 25C205.56 25 207.48 25.352 209.24 26.056C211.032 26.728 212.36 27.656 213.224 28.84C213.512 29.224 213.656 29.624 213.656 30.04C213.656 30.584 213.368 31.048 212.792 31.432C212.376 31.688 211.96 31.816 211.544 31.816C210.904 31.816 210.296 31.528 209.72 30.952C208.952 30.184 208.056 29.624 207.032 29.272C206.04 28.888 204.84 28.696 203.432 28.696C201.928 28.696 200.776 28.92 199.976 29.368C199.208 29.816 198.824 30.456 198.824 31.288C198.824 31.928 199 32.44 199.352 32.824C199.704 33.208 200.312 33.576 201.176 33.928C202.04 34.28 203.48 34.776 205.496 35.416C207.736 36.12 209.48 36.824 210.728 37.528C212.008 38.232 212.92 39.016 213.464 39.88C214.008 40.744 214.28 41.784 214.28 43C214.28 44.952 213.4 46.52 211.64 47.704C209.912 48.888 207.592 49.48 204.68 49.48ZM222.312 20.632C221.481 20.632 220.777 20.376 220.201 19.864C219.625 19.32 219.337 18.648 219.337 17.848C219.337 17.048 219.625 16.376 220.201 15.832C220.777 15.288 221.481 15.016 222.312 15.016C223.209 15.016 223.945 15.288 224.521 15.832C225.129 16.376 225.433 17.048 225.433 17.848C225.433 18.616 225.129 19.272 224.521 19.816C223.945 20.36 223.209 20.632 222.312 20.632ZM222.361 49.48C221.657 49.48 221.113 49.288 220.729 48.904C220.345 48.488 220.153 47.928 220.153 47.224V27.256C220.153 26.552 220.345 26.008 220.729 25.624C221.113 25.208 221.657 25 222.361 25C223.065 25 223.609 25.208 223.993 25.624C224.377 26.008 224.569 26.552 224.569 27.256V47.224C224.569 47.928 224.377 48.488 223.993 48.904C223.609 49.288 223.065 49.48 222.361 49.48ZM240.501 49.48C237.397 49.48 234.933 48.776 233.109 47.368C231.317 45.96 230.421 44.056 230.421 41.656C230.421 39.256 231.365 37.352 233.253 35.944C235.173 34.536 237.781 33.832 241.077 33.832C242.805 33.832 244.341 34.056 245.685 34.504C247.061 34.952 248.165 35.56 248.997 36.328V33.928C248.997 32.2 248.437 30.888 247.317 29.992C246.229 29.064 244.613 28.6 242.469 28.6C239.621 28.6 237.157 29.256 235.077 30.568C234.469 30.92 233.941 31.096 233.493 31.096C233.077 31.096 232.661 30.92 232.245 30.568C231.893 30.216 231.717 29.8 231.717 29.32C231.717 28.776 231.989 28.28 232.533 27.832C233.685 26.968 235.141 26.28 236.901 25.768C238.661 25.256 240.501 25 242.421 25C245.909 25 248.629 25.8 250.581 27.4C252.533 28.968 253.509 31.176 253.509 34.024V47.32C253.509 48.024 253.317 48.568 252.933 48.952C252.581 49.304 252.053 49.48 251.349 49.48C250.645 49.48 250.101 49.304 249.717 48.952C249.333 48.568 249.141 48.056 249.141 47.416V46.072C247.221 48.344 244.341 49.48 240.501 49.48ZM241.269 46.072C243.605 46.072 245.477 45.656 246.885 44.824C248.325 43.96 249.045 42.84 249.045 41.464C249.045 40.12 248.357 39.08 246.981 38.344C245.637 37.576 243.765 37.192 241.365 37.192C239.285 37.192 237.685 37.576 236.565 38.344C235.445 39.112 234.885 40.216 234.885 41.656C234.885 43.064 235.429 44.152 236.517 44.92C237.637 45.688 239.221 46.072 241.269 46.072Z" fill="#393185"/>
<line x1="10.1213" y1="16" x2="44" y2="49.8787" stroke="#202020" stroke-width="3" stroke-linecap="round"/>
<line x1="10" y1="49.8787" x2="43.8787" y2="16" stroke="#393185" stroke-width="3" stroke-linecap="round"/>
<circle cx="41" cy="33" r="5" stroke="#202020" stroke-width="3"/>
<circle cx="27" cy="47" r="5" transform="rotate(90 27 47)" stroke="#393185" stroke-width="3"/>
<circle cx="12" cy="33" r="5" stroke="#202020" stroke-width="3"/>
<circle cx="27" cy="17" r="5" transform="rotate(90 27 17)" stroke="#393185" stroke-width="3"/>
</svg>
